<svg xmlns="http://www.w3.org/2000/svg" xmlns:xlink="http://www.w3.org/1999/xlink" width="500" zoomAndPan="magnify" viewBox="0 0 375 374.999991" height="500" preserveAspectRatio="xMidYMid meet" version="1.0"><defs><clipPath id="f83e2e6c4a"><path d="M 7 86 L 375 86 L 375 272.734375 L 7 272.734375 Z M 7 86 " clip-rule="nonzero"/></clipPath><clipPath id="175a46fb90"><path d="M 0 83.734375 L 368 83.734375 L 368 271 L 0 271 Z M 0 83.734375 " clip-rule="nonzero"/></clipPath></defs><g clip-path="url(#f83e2e6c4a)"><path fill="#ffde59" d="M 352.734375 185.585938 C 348.753906 182.90625 336.359375 180.6875 328.9375 185.203125 C 327.253906 186.195312 325.570312 187.574219 323.964844 189.332031 C 317.078125 196.375 313.253906 206.167969 313.175781 206.242188 L 308.816406 217.414062 L 297.949219 212.363281 C 294.125 210.605469 282.035156 206.78125 273.003906 210.375 C 268.71875 212.136719 265.660156 213.972656 263.441406 216.265625 C 260.457031 219.328125 258.316406 223.765625 256.25 231.492188 L 252.039062 246.949219 L 238.957031 237.769531 C 237.347656 236.621094 226.40625 232.03125 217.457031 239.375 C 216.921875 239.832031 216.308594 240.371094 215.695312 240.980469 C 211.945312 244.808594 207.660156 251.3125 203.53125 259.421875 C 202.917969 263.78125 201.082031 266.613281 199.398438 268.296875 C 197.867188 269.828125 196.03125 270.976562 194.042969 271.585938 L 190.675781 272.582031 L 187.386719 271.511719 C 183.253906 270.210938 178.890625 266.308594 177.972656 259.269531 C 173.230469 249.78125 168.257812 242.433594 164.199219 239.070312 C 155.402344 231.648438 144.382812 236.160156 142.777344 237.308594 L 129.617188 246.335938 L 125.5625 230.804688 C 122.195312 217.949219 118.75 213.589844 108.957031 209.535156 C 100.003906 205.859375 87.914062 209.535156 84.011719 211.292969 L 73.148438 216.113281 L 68.863281 205.019531 C 68.863281 204.941406 65.113281 195.378906 58.457031 188.261719 L 56.238281 185.96875 L 54.019531 184.4375 C 53.789062 184.285156 53.484375 184.054688 53.179688 183.902344 C 45.832031 179.308594 33.4375 181.453125 29.382812 184.054688 L 7.191406 198.746094 L 12.320312 172.347656 C 13.773438 164.695312 20.199219 138.144531 39.789062 118.023438 C 41.929688 115.878906 44.148438 113.8125 46.445312 111.902344 C 66.566406 95.375 84.703125 87.035156 101.996094 86.421875 L 109.800781 86.117188 L 112.78125 93.460938 C 128.007812 130.722656 141.628906 144.800781 158.84375 150.464844 C 158.15625 146.714844 158.078125 143.042969 158.078125 139.90625 C 158.078125 138.527344 158.078125 137.304688 158.003906 136.15625 L 157.316406 123.683594 L 169.632812 124.144531 C 177.4375 124.449219 182.105469 126.589844 186.3125 129.5 C 187.84375 129.269531 189.375 129.117188 190.90625 129.117188 C 192.511719 129.117188 194.117188 129.269531 195.726562 129.574219 C 200.699219 126.515625 206.742188 124.21875 215.007812 125.367188 L 225.414062 126.746094 L 224.800781 137.304688 C 224.722656 137.992188 224.722656 138.605469 224.722656 139.292969 C 224.570312 142.8125 224.34375 146.792969 223.347656 150.769531 C 231.535156 148.167969 238.113281 144.035156 244.390625 137.609375 C 253.339844 128.429688 261.757812 114.273438 270.175781 94.148438 L 273.234375 86.878906 L 281.039062 87.261719 C 291.980469 87.722656 314.015625 91.699219 339.191406 112.820312 C 362.679688 132.484375 367.808594 161.558594 369.796875 172.578125 C 369.875 173.113281 369.949219 173.648438 370.101562 174.109375 L 375 200.582031 Z M 352.734375 185.585938 " fill-opacity="1" fill-rule="nonzero"/></g><g clip-path="url(#175a46fb90)"><path fill="#ff914d" d="M 345.542969 183.210938 C 341.5625 180.535156 329.167969 178.316406 321.746094 182.832031 C 320.0625 183.824219 318.378906 185.203125 316.773438 186.960938 C 309.886719 194 306.058594 203.796875 305.984375 203.871094 L 301.621094 215.042969 L 290.757812 209.992188 C 286.929688 208.234375 274.84375 204.40625 265.8125 208.003906 C 261.527344 209.761719 258.46875 211.601562 256.25 213.894531 C 253.265625 216.957031 251.121094 221.394531 249.054688 229.121094 L 244.847656 244.578125 L 231.765625 235.394531 C 230.15625 234.25 219.214844 229.65625 210.261719 237.003906 C 209.726562 237.460938 209.117188 237.996094 208.503906 238.609375 C 204.753906 242.433594 200.46875 248.9375 196.335938 257.050781 C 195.726562 261.410156 193.890625 264.242188 192.207031 265.925781 C 190.675781 267.457031 188.839844 268.601562 186.851562 269.214844 L 183.484375 270.210938 L 180.191406 269.140625 C 176.0625 267.839844 171.699219 263.9375 170.78125 256.898438 C 166.039062 247.410156 161.0625 240.0625 157.007812 236.695312 C 148.210938 229.273438 137.191406 233.789062 135.585938 234.9375 L 122.425781 243.964844 L 118.367188 228.433594 C 115.003906 215.578125 111.558594 211.21875 101.765625 207.160156 C 92.8125 203.488281 80.722656 207.160156 76.820312 208.921875 L 65.957031 213.742188 L 61.671875 202.570312 C 61.671875 202.496094 57.921875 192.929688 51.265625 185.8125 L 49.046875 183.519531 L 46.828125 181.988281 C 46.597656 181.835938 46.292969 181.605469 45.984375 181.453125 C 38.640625 176.863281 26.246094 179.003906 22.1875 181.605469 L 0 196.375 L 5.125 169.976562 C 6.582031 162.324219 13.007812 135.773438 32.59375 115.648438 C 34.738281 113.507812 36.957031 111.441406 39.253906 109.527344 C 59.375 93 77.507812 84.660156 94.800781 84.050781 L 102.683594 83.742188 L 105.667969 91.089844 C 120.894531 128.351562 134.511719 142.355469 151.652344 148.015625 C 150.964844 144.265625 150.886719 140.59375 150.886719 137.457031 C 150.886719 136.078125 150.886719 134.855469 150.8125 133.707031 L 150.199219 121.234375 L 162.519531 121.695312 C 170.324219 122 174.988281 124.144531 179.199219 127.050781 C 180.726562 126.820312 182.257812 126.667969 183.789062 126.667969 C 185.394531 126.667969 187.003906 126.820312 188.609375 127.128906 C 193.582031 124.066406 199.628906 121.769531 207.890625 122.917969 L 218.296875 124.296875 L 217.683594 134.855469 C 217.609375 135.542969 217.609375 136.15625 217.609375 136.84375 C 217.457031 140.363281 217.226562 144.34375 216.230469 148.320312 C 224.417969 145.71875 231 141.589844 237.273438 135.160156 C 246.226562 125.980469 254.640625 111.824219 263.058594 91.699219 L 266.121094 84.433594 L 273.921875 84.816406 C 284.867188 85.273438 306.902344 89.253906 332.074219 110.371094 C 355.566406 130.035156 360.691406 159.109375 362.679688 170.128906 C 362.757812 170.664062 362.835938 171.199219 362.988281 171.660156 L 367.882812 198.132812 Z M 345.542969 183.210938 " fill-opacity="1" fill-rule="nonzero"/></g><path fill="#000000" d="M 324.804688 119.167969 C 303.765625 101.570312 285.09375 96.75 273.3125 96.214844 C 252.652344 145.644531 232.605469 159.261719 203.605469 162.476562 C 203.605469 162.171875 203.683594 161.863281 203.683594 161.484375 C 203.683594 158.421875 203.070312 155.285156 201.847656 152.378906 C 206.054688 147.480469 205.976562 140.746094 206.359375 134.242188 C 199.855469 133.324219 195.800781 135.621094 190.523438 139.675781 C 188.378906 138.679688 186.160156 138.070312 183.789062 138.070312 C 181.417969 138.070312 179.121094 138.605469 176.980469 139.597656 C 171.777344 135.46875 169.097656 133.324219 162.058594 133.09375 C 162.441406 139.597656 161.371094 147.328125 165.5 152.222656 C 164.277344 155.132812 163.589844 158.269531 163.589844 161.328125 C 163.589844 161.636719 163.589844 161.941406 163.664062 162.246094 C 135.050781 158.652344 115.308594 144.648438 95.183594 95.449219 C 83.402344 95.832031 67.484375 101.035156 46.367188 118.40625 C 24.714844 136.234375 17.75 163.929688 16.144531 172.195312 C 23.644531 167.222656 40.78125 164.847656 52.03125 171.886719 C 52.488281 172.195312 52.871094 172.425781 53.332031 172.730469 L 78.121094 151.535156 L 59.453125 178.164062 C 67.867188 187.113281 72.230469 198.667969 72.230469 198.667969 C 72.230469 198.667969 90.441406 190.328125 106.050781 196.757812 C 120.128906 202.570312 125.332031 210.527344 129.308594 225.679688 C 135.125 221.699219 151.421875 217.339844 164.277344 228.128906 C 171.46875 234.171875 177.972656 245.800781 181.953125 254.140625 C 181.875 256.742188 182.71875 258.199219 183.636719 258.503906 C 184.554688 258.199219 185.394531 256.742188 185.320312 254.140625 C 189.375 245.878906 195.953125 234.324219 203.222656 228.355469 C 216.230469 217.644531 232.453125 222.160156 238.191406 226.214844 C 242.246094 211.140625 247.601562 203.183594 261.679688 197.519531 C 277.367188 191.246094 295.5 199.738281 295.5 199.738281 C 295.5 199.738281 302.617188 181.375 315.929688 173.1875 C 327.179688 166.304688 344.316406 168.828125 351.816406 173.800781 C 350.210938 165.386719 346.308594 137.226562 324.804688 119.167969 Z M 324.804688 119.167969 " fill-opacity="1" fill-rule="nonzero"/></svg>