<svg xmlns="http://www.w3.org/2000/svg" xmlns:xlink="http://www.w3.org/1999/xlink" width="500" zoomAndPan="magnify" viewBox="0 0 375 374.999991" height="500" preserveAspectRatio="xMidYMid meet" version="1.0"><defs><clipPath id="09bd0fb3eb"><path d="M 0 347.007812 L 24.980469 347.007812 L 24.980469 375 L 0 375 Z M 0 347.007812 " clip-rule="nonzero"/></clipPath></defs><g clip-path="url(#09bd0fb3eb)"><path fill="#000000" d="M -22.941406 473.195312 C -23.179688 476.359375 -18.316406 482.542969 -16.257812 485.230469 C -15.222656 486.578125 -16.757812 487.257812 -17.523438 486.222656 C -21.777344 480.429688 -24.214844 475.710938 -34.160156 468.925781 C -47.308594 459.960938 -59.359375 453.566406 -87.867188 452.414062 C -98.292969 451.996094 -96.5 455.117188 -102.351562 459.492188 C -103.222656 460.136719 -104.320312 459.253906 -103.195312 458.144531 C -97.941406 452.980469 -96.582031 452.050781 -96.457031 449.859375 C -95.949219 440.527344 -106.222656 414.007812 -114.5 412.929688 C -118.066406 412.46875 -123.171875 413.324219 -124.300781 413.183594 C -124.480469 413.167969 -124.636719 413.097656 -124.765625 412.972656 C -124.894531 412.84375 -124.96875 412.691406 -124.984375 412.511719 C -125.003906 412.332031 -124.960938 412.164062 -124.859375 412.015625 C -124.757812 411.863281 -124.621094 411.765625 -124.449219 411.714844 C -124.125 411.609375 -118.242188 411.277344 -116.617188 411.152344 C -116.007812 411.101562 -114.585938 410.515625 -113.480469 409.238281 C -113.234375 408.953125 -113.128906 408.367188 -112.617188 407.109375 C -107.132812 393.507812 -105.527344 362.582031 -109.703125 358.847656 C -117.078125 352.261719 -118.214844 351.128906 -117.335938 350.378906 C -116.308594 349.492188 -115.867188 351.542969 -112.265625 354.304688 C -106.289062 358.886719 -103.171875 359.292969 -93.179688 359.988281 C -79.449219 360.933594 -76.027344 360.875 -69.226562 360.554688 C -52.261719 359.761719 -37.132812 357.578125 -32.59375 356.667969 C -27.667969 355.679688 -27.144531 349.835938 -25.953125 347.550781 C -25.875 347.371094 -25.746094 347.242188 -25.570312 347.160156 C -25.390625 347.082031 -25.210938 347.070312 -25.023438 347.132812 C -24.839844 347.191406 -24.699219 347.308594 -24.601562 347.480469 C -24.507812 347.648438 -24.480469 347.828125 -24.523438 348.019531 C -24.585938 348.375 -26.738281 354.042969 -26.746094 354.054688 C -28.988281 359.582031 -16.929688 377.820312 6.765625 380.773438 C 9.261719 381.085938 18.792969 376.609375 19.921875 376.671875 C 20.253906 376.699219 20.46875 376.871094 20.570312 377.1875 C 20.671875 377.503906 20.59375 377.769531 20.34375 377.984375 C 18.0625 379.84375 10.945312 379.230469 7.042969 387.867188 C -0.582031 404.710938 9.742188 428.902344 18.949219 434.03125 C 23.835938 436.757812 23.976562 436.339844 24.542969 436.875 C 24.976562 437.28125 24.765625 438.203125 24.113281 438.292969 C 22.789062 438.480469 19.726562 435.226562 9.964844 433.609375 C 4.960938 432.789062 -20.554688 441.699219 -22.941406 473.195312 Z M -39.300781 438.832031 C -39.511719 439.34375 -43.324219 426.578125 -46.15625 423.503906 C -49.359375 420.015625 -61.453125 421.355469 -65.007812 424.632812 L -71.894531 431.003906 C -73.546875 432.535156 -64.578125 426.851562 -46.160156 434.488281 C -41.421875 436.453125 -39.695312 438.972656 -39.300781 438.832031 Z M -93.207031 371.019531 C -93.207031 371.003906 -81.789062 381.300781 -80.742188 381.769531 C -79.410156 382.371094 -78.148438 382.96875 -76.933594 382.941406 C -75.722656 382.914062 -66.253906 383.296875 -57.519531 380.941406 C -44.058594 377.300781 -33.757812 368.347656 -33.570312 366.105469 C -44.898438 369.6875 -57.921875 372.042969 -69.269531 372.992188 C -83.644531 374.195312 -87.902344 372.34375 -93.21875 371.019531 Z M -93.507812 451.0625 C -92.714844 451.027344 -89.464844 450.507812 -79.246094 451.5625 C -60.15625 453.535156 -51.851562 456.832031 -42.8125 461.722656 C -30.195312 468.554688 -25.449219 473.8125 -26.15625 472.019531 C -30.617188 460.726562 -30.414062 460.761719 -31.859375 459.238281 C -31.875 459.21875 -40.753906 452.597656 -47.09375 448.871094 C -66.777344 437.292969 -84.085938 442.3125 -86.265625 444.3125 C -86.371094 444.40625 -93.015625 450.511719 -93.519531 451.0625 Z M -106.320312 361.710938 C -106.074219 364.449219 -105.75 374.851562 -106.140625 381.871094 C -106.527344 389.152344 -109.769531 403.949219 -111.113281 407.21875 C -111.292969 407.644531 -112.339844 410.488281 -112.320312 410.828125 C -111.40625 410.871094 -104.59375 410.617188 -104.613281 410.621094 C -102.824219 410.566406 -100.113281 408.996094 -98.308594 407.292969 C -97.226562 406.265625 -95.023438 401.394531 -94.433594 399.964844 C -89.695312 388.464844 -91.421875 382.65625 -92.523438 377.625 C -92.78125 376.457031 -93.765625 372.558594 -94.675781 371.78125 C -97.875 369.027344 -105.691406 362.183594 -106.320312 361.710938 Z M -106.300781 359.652344 C -106.410156 359.847656 -106.367188 359.714844 -106.203125 359.859375 C -96.382812 368.378906 -92.933594 375.265625 -57.402344 370.082031 C -52.296875 369.335938 -38.597656 366.605469 -33.867188 364.613281 C -31.71875 363.707031 -31.382812 361.851562 -29.714844 357.730469 C -29.6875 357.640625 -29.664062 357.546875 -29.648438 357.449219 C -50.582031 362.136719 -90.5 364.21875 -106.300781 359.652344 Z M 6.679688 383.722656 C 6.011719 384 -6.859375 389.894531 -6.835938 389.882812 C -7.523438 390.195312 -16.910156 404.898438 -9.851562 418.097656 C -8.238281 421.117188 -5.773438 423.738281 -5.324219 424.269531 C -4.289062 425.492188 -4.171875 425.304688 11.554688 430.957031 C 12.933594 431.453125 10.742188 430.488281 8.386719 425.136719 C 6.105469 419.941406 3.445312 415.289062 2.863281 403.730469 C 2.316406 392.761719 6.605469 384.148438 6.679688 383.722656 Z M -24.929688 471.15625 C -24.699219 470.503906 -24.875 470.335938 -24.148438 468.210938 C -23.261719 465.621094 -23.261719 464.648438 -22.414062 461.410156 C -19.472656 450.058594 -9.265625 437.597656 4.496094 432.941406 C 7.550781 431.90625 9.492188 432.277344 9.851562 431.898438 C 9.605469 431.804688 -3.199219 427.160156 -3.914062 426.925781 C -4.902344 426.59375 -4.492188 426.6875 -8.265625 427.59375 C -22.722656 431.050781 -33.109375 450.589844 -28.9375 461.089844 C -24.523438 472.203125 -25.269531 470.398438 -24.929688 471.15625 Z M -32.113281 457.257812 C -32.042969 457.179688 -32.015625 457.257812 -32.207031 456.761719 C -37.707031 442.878906 -37.367188 443.339844 -38.5625 441.816406 C -44.105469 434.75 -61.585938 429.125 -74.121094 433.402344 C -74.796875 433.632812 -74.449219 433.351562 -82.78125 441.078125 C -82.976562 441.253906 -83.199219 441.488281 -82.941406 441.433594 C -58.273438 435.3125 -40.484375 451.738281 -32.113281 457.257812 Z M -7.222656 425.828125 C -7.195312 425.628906 -6.042969 426.214844 -22.492188 420.203125 C -23.949219 419.671875 -26.449219 420.988281 -27.671875 421.917969 C -34.113281 426.800781 -37.367188 436.703125 -37.007812 438.800781 C -36.617188 441.109375 -36.398438 442.222656 -35.5 444.503906 C -31.070312 455.78125 -31.441406 454.8125 -31.3125 454.875 C -30.113281 441.171875 -20.300781 429.746094 -10.113281 426.589844 C -9.46875 426.394531 -8.746094 426.214844 -7.222656 425.832031 Z M -28.25 358.050781 C -28.714844 359.050781 -29.457031 361.035156 -30.378906 363.1875 C -30.867188 364.324219 -31.15625 366.265625 -30.78125 367.199219 C -30.011719 369.136719 -28.300781 374.65625 -24.191406 379.804688 C -19.863281 385.230469 -12.554688 390.929688 -6.25 388.035156 C 7.160156 381.875 5.320312 382.773438 5.929688 382.429688 C 4.105469 381.042969 -19.347656 379.753906 -28.25 358.050781 Z M -100.316406 428.730469 C -94.371094 443.773438 -95.128906 449.664062 -94.980469 450.355469 C -86.613281 443.183594 -86.613281 442.480469 -86.75 441.390625 C -86.910156 440.097656 -87.324219 431.023438 -91.164062 423.703125 C -94.390625 417.554688 -99.878906 411.871094 -102.027344 412 C -119.179688 413.054688 -108.234375 408.679688 -100.316406 428.730469 Z M -98.527344 410.382812 C -97.839844 410.425781 -95.941406 410.300781 -92.875 410.234375 C -92.023438 410.214844 -90.582031 410.011719 -89.847656 409.539062 C -83.722656 405.585938 -79.363281 398.296875 -78.71875 392.152344 C -77.929688 384.652344 -77.476562 386.730469 -91.515625 374.535156 C -93.390625 372.902344 -88 380.585938 -90.519531 392.011719 C -93.140625 403.894531 -98.371094 410.101562 -98.527344 410.382812 Z M -9.496094 391.207031 C -9.578125 391.105469 -8.855469 390.792969 -15.976562 394.058594 C -18.625 395.273438 -21.089844 396.289062 -23.414062 398.777344 C -27.8125 403.503906 -27.550781 412.0625 -24.8125 417.398438 C -24.4375 418.121094 -24.078125 418.082031 -20.410156 419.40625 C -6.203125 424.539062 -7.394531 424.214844 -7.75 423.738281 C -14.628906 414.53125 -16.75 406.351562 -9.496094 391.214844 Z M -11.464844 390.402344 C -11.789062 389.988281 -14.703125 390.109375 -19.597656 386.363281 C -28.640625 379.441406 -31.175781 369.796875 -32.1875 367.699219 C -32.394531 368.066406 -36.265625 377.664062 -37.578125 380.839844 C -38.285156 382.535156 -33.941406 395.273438 -24.773438 395.417969 C -21.847656 395.457031 -23.5 395.984375 -11.464844 390.402344 Z M -77.601562 384.382812 C -77.769531 384.632812 -72.382812 389.300781 -68.582031 390.390625 C -64.214844 391.644531 -59.582031 392.140625 -55.222656 391.019531 C -50.574219 389.824219 -44.78125 387.394531 -41.316406 383.71875 C -39.066406 381.332031 -35.210938 371.390625 -34.890625 370.328125 C -48.542969 381.546875 -59.125 384.382812 -77.601562 384.382812 Z M -98.703125 411.921875 C -82.984375 426.054688 -86.480469 442.53125 -84.9375 441.101562 C -77.863281 434.566406 -76.085938 433.867188 -76.523438 428.296875 C -77.234375 419.386719 -85.9375 412.164062 -90.382812 411.800781 C -93.207031 411.570312 -98.703125 411.921875 -98.714844 411.921875 Z M -76.960938 387.191406 C -77.21875 389.230469 -76.636719 392.585938 -78.792969 398.082031 C -81.03125 403.792969 -83.933594 406.597656 -87.957031 410.03125 C -87.941406 410.03125 -76.550781 409.980469 -75.5 409.285156 C -70.535156 406.003906 -67.582031 395.304688 -71.820312 391.628906 C -73.417969 390.257812 -76.796875 387.335938 -76.972656 387.191406 Z M -38.4375 437.035156 C -38.234375 437.003906 -36.011719 424.285156 -25.585938 419.105469 C -26.585938 418.710938 -35.21875 415.617188 -37.089844 414.925781 C -37.828125 414.652344 -44.597656 418.050781 -43.53125 424.050781 C -43.449219 424.523438 -38.714844 436.441406 -38.4375 437.035156 Z M -69.1875 392.007812 C -58.832031 401.003906 -59.382812 400.742188 -58.371094 400.886719 C -51.917969 401.847656 -45.808594 397.15625 -45.378906 396.105469 C -40.71875 384.632812 -41.363281 386.324219 -41.144531 385.628906 C -41.78125 386.089844 -42.5625 387.050781 -45.382812 388.636719 C -61.21875 397.597656 -71.730469 389.800781 -69.1875 392.007812 Z M -86.644531 411.570312 C -73.90625 419.703125 -75.324219 428.070312 -75.035156 430.835938 C -65.785156 423.585938 -68.421875 410.984375 -75.960938 411.164062 C -75.984375 411.164062 -86.867188 411.433594 -86.644531 411.570312 Z M -38.902344 384.125 C -39.375 385.1875 -43.742188 395.972656 -44.578125 397.972656 C -44.703125 398.222656 -44.714844 398.472656 -44.609375 398.730469 C -44.488281 399.046875 -44.347656 399.355469 -44.1875 399.652344 C -43.234375 401.25 -41.414062 402.453125 -40.417969 402.796875 C -38.960938 403.300781 -39.089844 403.035156 -32.128906 399.851562 C -26.15625 397.125 -26.59375 397.355469 -26.492188 397.191406 C -33.710938 395.257812 -36.453125 390.464844 -38.902344 384.125 Z M -25.292969 398.429688 C -25.40625 398.328125 -38.988281 404.433594 -39.101562 404.824219 C -40.230469 408.730469 -37.914062 413.089844 -36.085938 413.746094 C -25.636719 417.507812 -27.136719 417 -26.570312 417.144531 C -28.5 411.949219 -28.605469 407.394531 -27.6875 403.847656 C -26.921875 400.875 -26.140625 399.832031 -25.292969 398.429688 Z M -68.488281 394.558594 C -68.769531 395.066406 -67.320312 398.511719 -70.246094 405.089844 C -71.640625 408.226562 -73.042969 409.085938 -73.300781 409.515625 C -73.148438 409.609375 -73.582031 409.566406 -65.558594 409.324219 C -63.078125 409.246094 -59.160156 402.625 -60.332031 401.613281 C -62.917969 399.382812 -68.332031 394.683594 -68.488281 394.558594 Z M -60.996094 421 C -57.941406 420.273438 -55.269531 419.75 -51.917969 420.054688 C -48.195312 420.394531 -47.046875 421.160156 -46.277344 421.332031 C -46.445312 420.714844 -50.144531 411.417969 -50.355469 411.101562 C -51.144531 411.707031 -60.667969 420.554688 -60.996094 421 Z M -69.738281 426.914062 C -69.636719 427.054688 -65.105469 422.828125 -64.644531 421.941406 C -62.382812 417.550781 -62.175781 410.496094 -67.074219 410.828125 C -74.121094 411.308594 -70.515625 409.984375 -68.820312 414.234375 C -66.984375 418.828125 -67.445312 422.738281 -69.738281 426.914062 Z M -62.164062 420.003906 C -61.484375 419.40625 -52.210938 410.808594 -52.191406 410.789062 C -51.648438 410.28125 -51.785156 410.332031 -52.28125 410.347656 C -63.792969 410.714844 -62.539062 410.691406 -62.902344 410.757812 C -61.707031 413.757812 -61.15625 415.351562 -62.164062 420.003906 Z M -39.390625 414.183594 C -39.480469 414.070312 -48.699219 410.695312 -48.796875 410.785156 C -48.71875 411.183594 -45.132812 420.234375 -44.910156 420.582031 C -43.867188 417.746094 -41.941406 415.691406 -39.390625 414.183594 Z M -57.046875 402.484375 C -56.628906 402.953125 -50.757812 408.03125 -50.453125 408.210938 C -50.144531 408.132812 -46.730469 399.382812 -46.703125 399.265625 C -49.941406 401.328125 -53.167969 402.617188 -57.046875 402.484375 Z M -62.367188 409.210938 C -51.066406 408.835938 -52.640625 408.902344 -52.101562 408.839844 C -52.277344 408.582031 -51.390625 409.382812 -58.726562 403.011719 C -59.453125 405.507812 -60.632812 407.300781 -62.375 409.210938 Z M -48.789062 409.140625 C -48.296875 409.347656 -49.597656 408.875 -39.8125 412.402344 C -39.15625 412.636719 -39.457031 412.527344 -39.988281 411.140625 C -41.261719 407.835938 -40.738281 406.113281 -40.785156 405.457031 C -41.308594 405.613281 -48.492188 408.917969 -48.796875 409.140625 Z M -41.273438 404.035156 C -45.300781 402.035156 -45.316406 399.816406 -45.617188 400.554688 C -48.585938 407.816406 -48.234375 406.886719 -48.253906 407.230469 C -45.933594 406.164062 -43.65625 405.132812 -41.277344 404.035156 Z M -41.273438 404.035156 " fill-opacity="1" fill-rule="nonzero"/></g><path fill="#ffd700" d="M 351.789062 227.757812 C 348.597656 225.828125 343.296875 239.136719 332.832031 239.136719 C 326.5625 239.136719 321.375 236.640625 318.15625 231.925781 C 319.25 228.5625 317.632812 222.636719 314.675781 221.136719 C 314.523438 219.054688 314.558594 216.972656 314.777344 214.894531 C 318.023438 212.042969 318.378906 207.882812 317.492188 202.878906 C 317.769531 202.050781 318.066406 201.210938 318.390625 200.359375 C 321.324219 198.976562 324.09375 194.976562 323.523438 189.953125 C 324.726562 187.941406 326.125 185.621094 327.640625 183.058594 C 330.316406 181.558594 332.019531 178.890625 332.347656 174.835938 C 334.234375 171.417969 336.152344 167.765625 337.964844 163.9375 C 341.871094 162.96875 342.597656 158.621094 341.488281 155.910156 C 342.761719 152.734375 343.914062 149.492188 344.882812 146.230469 C 348.28125 143.304688 349.15625 139.535156 347.292969 135.277344 C 347.804688 131.722656 347.945312 128.15625 347.71875 124.574219 C 348.984375 120.179688 348.746094 116.570312 345.722656 114.574219 C 343.890625 109.371094 340.96875 104.878906 336.957031 101.089844 C 336.832031 98.570312 333.71875 95.6875 330.148438 95.796875 C 328.34375 94.65625 326.480469 93.621094 324.558594 92.695312 C 323.058594 91.972656 321.566406 91.296875 320.066406 90.679688 C 319.15625 86.890625 313.019531 85.492188 310.40625 87.390625 C 307.445312 86.597656 304.449219 85.976562 301.414062 85.535156 C 299.699219 82.757812 292.421875 82.167969 290.402344 84.75 C 286.429688 84.753906 282.476562 85.042969 278.542969 85.621094 C 274.203125 84.113281 270.503906 84.28125 268.175781 87.765625 C 263.433594 89.050781 258.808594 90.664062 254.292969 92.597656 C 250.316406 91.378906 247.683594 92.859375 246.140625 96.46875 C 242.019531 98.632812 238.023438 101.003906 234.152344 103.585938 C 229.136719 102.164062 227.628906 104.039062 226.859375 108.800781 C 225.578125 109.792969 224.132812 110.953125 222.734375 112.105469 C 221.339844 113.257812 219.988281 114.398438 218.90625 115.359375 C 215.070312 114.808594 213.492188 116.726562 213.625 120.355469 C 211.644531 122.335938 209.96875 124.171875 208.609375 125.785156 C 214.382812 128.523438 215.195312 132.613281 218.226562 139.773438 C 213.761719 137.316406 208.277344 125.785156 197.65625 125.785156 C 193.042969 125.785156 191.085938 128.882812 187.503906 128.882812 C 183.921875 128.882812 181.964844 125.785156 177.351562 125.785156 C 166.730469 125.785156 161.246094 137.3125 156.78125 139.773438 C 159.816406 132.613281 160.625 128.523438 166.398438 125.785156 C 165.039062 124.171875 163.363281 122.335938 161.382812 120.355469 C 161.515625 116.726562 159.9375 114.808594 156.101562 115.359375 C 155.019531 114.398438 153.675781 113.257812 152.273438 112.105469 C 150.867188 110.953125 149.429688 109.792969 148.148438 108.800781 C 147.382812 104.039062 145.871094 102.164062 140.859375 103.585938 C 136.984375 101.003906 132.988281 98.632812 128.867188 96.46875 C 127.324219 92.859375 124.691406 91.378906 120.714844 92.597656 C 116.199219 90.664062 111.574219 89.050781 106.832031 87.765625 C 104.503906 84.28125 100.804688 84.113281 96.464844 85.621094 C 92.53125 85.042969 88.578125 84.753906 84.605469 84.75 C 82.585938 82.167969 75.308594 82.761719 73.59375 85.535156 C 70.558594 85.976562 67.5625 86.597656 64.601562 87.390625 C 61.988281 85.492188 55.855469 86.890625 54.941406 90.679688 C 53.441406 91.296875 51.949219 91.96875 50.449219 92.695312 C 48.527344 93.621094 46.664062 94.65625 44.859375 95.796875 C 41.292969 95.6875 38.171875 98.570312 38.050781 101.089844 C 34.039062 104.878906 31.121094 109.371094 29.285156 114.574219 C 26.261719 116.570312 26.027344 120.179688 27.289062 124.574219 C 27.0625 128.15625 27.207031 131.722656 27.71875 135.277344 C 25.855469 139.535156 26.722656 143.304688 30.125 146.230469 C 31.089844 149.492188 32.242188 152.734375 33.519531 155.910156 C 32.40625 158.625 33.136719 162.976562 37.042969 163.9375 C 38.855469 167.765625 40.773438 171.417969 42.660156 174.835938 C 42.988281 178.890625 44.691406 181.558594 47.367188 183.058594 C 48.882812 185.621094 50.277344 187.941406 51.484375 189.953125 C 50.914062 194.976562 53.683594 198.976562 56.621094 200.359375 C 56.941406 201.210938 57.238281 202.050781 57.519531 202.878906 C 56.628906 207.882812 56.984375 212.042969 60.230469 214.894531 C 60.449219 216.972656 60.484375 219.054688 60.332031 221.136719 C 57.375 222.636719 55.757812 228.5625 56.851562 231.925781 C 53.636719 236.640625 48.445312 239.136719 42.175781 239.136719 C 31.710938 239.136719 26.410156 225.828125 23.21875 227.757812 C 21.128906 229.011719 27.875 247.769531 47.363281 247.769531 C 64.605469 247.769531 76.296875 234.523438 76.296875 203.75 C 76.296875 169.277344 47.863281 146.121094 63.996094 136.195312 C 79.996094 126.34375 101.082031 156.738281 101.082031 156.738281 C 101.925781 162.121094 104.613281 165.964844 108.152344 167.667969 C 111.691406 169.367188 112.695312 171.433594 113.847656 178.941406 C 120.160156 171.371094 128.46875 171.355469 132.011719 174.832031 C 119.234375 174.074219 115.15625 182.742188 114.082031 188.28125 C 113.011719 193.816406 113.488281 195.109375 111.769531 199.617188 C 110.054688 204.125 113.386719 206.417969 115.773438 206.101562 C 116.0625 207.921875 117.257812 208.988281 119.304688 209.90625 C 116.757812 205.585938 118.773438 195.746094 128.15625 195.746094 C 137.539062 195.746094 137.964844 206.449219 144.523438 212.003906 C 141.445312 213.027344 141.90625 211.953125 139.136719 211.335938 C 129.492188 220.726562 116.464844 217.492188 114.308594 215.390625 C 112.511719 218.257812 113.953125 221.851562 116.265625 222.207031 C 117.652344 227.082031 120.667969 228.085938 121.960938 230.160156 C 121.960938 234.058594 122.886719 236.9375 125.855469 242.472656 C 127.90625 239.394531 132.011719 238.167969 136.320312 230.160156 C 135.910156 242.0625 126.464844 245.246094 126.675781 253.453125 C 126.886719 261.65625 130.546875 265.992188 135.160156 273.152344 C 139.773438 280.308594 137.015625 282.308594 145.9375 292.457031 C 145.929688 279.378906 149.550781 275.304688 155.097656 260.144531 C 158.246094 270.074219 151.175781 273.222656 151.175781 294.847656 C 151.175781 308.15625 158.097656 312.289062 165.511719 312.289062 C 178.179688 312.289062 180.8125 311.175781 183.558594 307.570312 C 185.714844 304.746094 185.050781 302.078125 185.050781 296.847656 C 185.050781 291.613281 175.207031 286.328125 167.660156 286.328125 C 158.582031 286.328125 162.835938 273.972656 165.734375 270.738281 C 168.507812 275.359375 174.480469 274.027344 177.816406 274.027344 C 181.15625 274.027344 182.871094 275.664062 187.507812 280.355469 C 192.148438 275.664062 193.867188 274.027344 197.199219 274.027344 C 200.53125 274.027344 206.511719 275.363281 209.285156 270.738281 C 212.179688 273.972656 216.4375 286.328125 207.359375 286.328125 C 199.816406 286.328125 189.964844 291.613281 189.964844 296.847656 C 189.964844 302.078125 189.304688 304.746094 191.457031 307.570312 C 194.203125 311.175781 196.835938 312.289062 209.507812 312.289062 C 216.917969 312.289062 223.84375 308.15625 223.84375 294.847656 C 223.84375 273.222656 216.773438 270.074219 219.921875 260.144531 C 225.464844 275.308594 229.078125 279.378906 229.078125 292.457031 C 238.007812 282.308594 235.234375 280.300781 239.859375 273.152344 C 244.480469 266 248.140625 261.65625 248.339844 253.453125 C 248.542969 245.246094 239.109375 242.0625 238.695312 230.160156 C 243.003906 238.167969 247.113281 239.394531 249.160156 242.472656 C 252.136719 236.9375 253.058594 234.058594 253.058594 230.160156 C 254.347656 228.085938 257.367188 227.082031 258.753906 222.207031 C 261.0625 221.851562 262.503906 218.257812 260.710938 215.390625 C 258.554688 217.492188 245.527344 220.726562 235.882812 211.335938 C 233.109375 211.953125 233.570312 213.027344 230.496094 212.003906 C 237.050781 206.449219 237.46875 195.746094 246.855469 195.746094 C 256.242188 195.746094 258.253906 205.589844 255.707031 209.90625 C 257.757812 208.980469 258.953125 207.917969 259.238281 206.101562 C 261.628906 206.421875 264.960938 204.136719 263.242188 199.617188 C 261.523438 195.09375 262.011719 193.828125 260.929688 188.28125 C 259.847656 182.734375 255.777344 174.078125 243 174.832031 C 246.542969 171.355469 254.851562 171.371094 261.167969 178.941406 C 262.316406 171.429688 263.320312 169.359375 266.859375 167.667969 C 270.398438 165.972656 273.085938 162.121094 273.933594 156.738281 C 273.933594 156.738281 295.019531 126.34375 311.019531 136.195312 C 327.152344 146.121094 298.714844 169.277344 298.714844 203.75 C 298.714844 234.519531 310.40625 247.769531 327.648438 247.769531 C 347.136719 247.769531 353.890625 229.011719 351.792969 227.757812 Z M 210.609375 315.273438 C 207.800781 316.96875 204.144531 316.507812 198.71875 316.507812 C 193.292969 316.507812 196.179688 317.855469 187.503906 317.855469 C 178.824219 317.855469 181.707031 316.507812 176.285156 316.507812 C 170.863281 316.507812 167.207031 316.972656 164.398438 315.273438 C 165.359375 319.507812 167.9375 322.355469 173.707031 322.390625 C 176.785156 325.96875 181.605469 326.855469 187.507812 326.855469 C 193.40625 326.855469 198.226562 325.96875 201.304688 322.390625 C 207.074219 322.355469 209.652344 319.511719 210.613281 315.273438 Z M 109.222656 263.164062 C 115.707031 255.675781 114.988281 252.101562 120.21875 249.714844 C 118.449219 252.949219 118.066406 257.375 120.65625 264.535156 C 122.542969 269.765625 127.429688 273.589844 129.375 278.632812 C 133.296875 288.808594 137.65625 295.347656 143.472656 301.304688 C 144.054688 306.828125 146.492188 316.21875 154.519531 318.890625 C 155.824219 324.414062 162.945312 326.886719 165.90625 334.597656 C 163.238281 335.625 158.773438 332.492188 151.953125 332.800781 C 148.054688 332.851562 148.925781 331.210938 142.359375 326.851562 C 135.796875 322.492188 126.113281 321.542969 120.957031 319.386719 C 115.800781 317.234375 113.957031 311.964844 110.183594 308.460938 C 116.4375 306.246094 119.625 301.664062 119.625 295.289062 C 119.625 291.386719 116.6875 286.628906 111.351562 286.628906 C 106.015625 286.628906 103.792969 290.699219 104.222656 294.101562 C 104.425781 293.53125 104.714844 293.007812 105.085938 292.53125 C 105.460938 292.054688 105.898438 291.648438 106.402344 291.316406 C 106.910156 290.980469 107.453125 290.734375 108.035156 290.574219 C 108.621094 290.414062 109.214844 290.351562 109.820312 290.382812 C 110.148438 290.40625 110.476562 290.460938 110.796875 290.546875 C 111.117188 290.632812 111.425781 290.746094 111.722656 290.890625 C 112.019531 291.039062 112.300781 291.210938 112.566406 291.410156 C 112.832031 291.609375 113.074219 291.832031 113.296875 292.078125 C 113.515625 292.324219 113.710938 292.589844 113.882812 292.875 C 114.054688 293.160156 114.195312 293.457031 114.308594 293.769531 C 114.417969 294.082031 114.5 294.402344 114.550781 294.730469 C 114.601562 295.054688 114.621094 295.386719 114.609375 295.71875 C 114.609375 301.867188 110.472656 304.503906 105.242188 304.503906 C 104.617188 304.480469 103.996094 304.398438 103.382812 304.261719 C 102.769531 304.125 102.171875 303.933594 101.59375 303.6875 C 101.015625 303.441406 100.464844 303.144531 99.941406 302.800781 C 99.414062 302.453125 98.925781 302.066406 98.472656 301.628906 C 98.019531 301.195312 97.605469 300.726562 97.238281 300.214844 C 96.871094 299.707031 96.550781 299.167969 96.277344 298.601562 C 96.007812 298.035156 95.789062 297.449219 95.625 296.84375 C 95.460938 296.234375 95.351562 295.621094 95.300781 294.992188 C 94.683594 288.074219 97.214844 283.996094 103.753906 278.6875 C 96.675781 279.378906 91.597656 277.53125 86.136719 271.457031 C 95.675781 273.300781 104.761719 268.304688 109.21875 263.164062 Z M 265.777344 263.164062 C 270.230469 268.308594 279.316406 273.304688 288.859375 271.457031 C 283.394531 277.535156 278.316406 279.382812 271.238281 278.6875 C 277.777344 284 280.316406 288.074219 279.695312 294.996094 C 279.640625 295.621094 279.535156 296.238281 279.367188 296.84375 C 279.203125 297.449219 278.988281 298.039062 278.714844 298.605469 C 278.445312 299.171875 278.125 299.710938 277.757812 300.21875 C 277.386719 300.726562 276.976562 301.199219 276.523438 301.632812 C 276.070312 302.066406 275.578125 302.457031 275.054688 302.800781 C 274.53125 303.148438 273.976562 303.445312 273.398438 303.6875 C 272.820312 303.933594 272.226562 304.125 271.613281 304.265625 C 271 304.402344 270.378906 304.484375 269.75 304.507812 C 264.527344 304.507812 260.386719 301.867188 260.386719 295.71875 C 260.375 295.386719 260.390625 295.058594 260.441406 294.730469 C 260.492188 294.402344 260.574219 294.082031 260.6875 293.773438 C 260.800781 293.460938 260.941406 293.164062 261.113281 292.878906 C 261.28125 292.59375 261.476562 292.328125 261.699219 292.082031 C 261.921875 291.835938 262.164062 291.613281 262.425781 291.410156 C 262.691406 291.210938 262.972656 291.039062 263.269531 290.894531 C 263.570312 290.75 263.878906 290.632812 264.199219 290.546875 C 264.519531 290.460938 264.84375 290.40625 265.175781 290.386719 C 265.777344 290.351562 266.375 290.417969 266.957031 290.574219 C 267.542969 290.734375 268.085938 290.980469 268.589844 291.316406 C 269.09375 291.652344 269.535156 292.058594 269.90625 292.535156 C 270.28125 293.011719 270.570312 293.535156 270.773438 294.101562 C 271.203125 290.703125 268.980469 286.632812 263.644531 286.632812 C 258.308594 286.632812 255.367188 291.386719 255.367188 295.292969 C 255.367188 301.671875 258.558594 306.25 264.808594 308.464844 C 261.039062 311.964844 259.195312 317.234375 254.039062 319.390625 C 248.882812 321.546875 239.203125 322.492188 232.632812 326.851562 C 226.066406 331.214844 226.941406 332.855469 223.042969 332.804688 C 216.21875 332.496094 211.757812 335.625 209.089844 334.597656 C 212.046875 326.886719 219.175781 324.417969 220.476562 318.894531 C 228.503906 316.21875 230.941406 306.832031 231.523438 301.308594 C 237.335938 295.347656 241.695312 288.808594 245.621094 278.636719 C 247.566406 273.59375 252.453125 269.769531 254.339844 264.539062 C 256.929688 257.375 256.546875 252.945312 254.777344 249.71875 C 260.007812 252.105469 259.28125 255.675781 265.769531 263.167969 Z M 105.171875 173.226562 C 113.636719 198.15625 96.75 218.886719 89.015625 227.085938 C 85.628906 230.675781 84.964844 258.53125 90.046875 258.070312 C 97.609375 257.382812 108.304688 247.605469 114.152344 229.445312 C 110.667969 262.378906 87.199219 263.582031 84.300781 263.097656 C 82.542969 262.800781 81.34375 255.839844 81.175781 246.890625 C 81.039062 239.835938 81.53125 232.824219 82.660156 225.859375 C 85.609375 208.597656 104.097656 191.082031 105.175781 173.230469 Z M 284.960938 258.070312 C 290.039062 258.53125 289.371094 230.675781 285.988281 227.085938 C 278.257812 218.886719 261.367188 198.15625 269.832031 173.226562 C 270.910156 191.078125 289.402344 208.59375 292.351562 225.855469 C 293.480469 232.820312 293.972656 239.832031 293.832031 246.886719 C 293.664062 255.839844 292.46875 262.800781 290.710938 263.097656 C 287.8125 263.582031 264.34375 262.375 260.855469 229.445312 C 266.703125 247.601562 277.398438 257.378906 284.964844 258.066406 Z M 133.960938 204.515625 C 133.578125 208.519531 128.652344 215.171875 123.730469 210.597656 C 127.847656 210.210938 129.539062 208.023438 129.921875 200.402344 C 131.628906 201.421875 132.976562 202.792969 133.960938 204.515625 Z M 241.039062 204.515625 C 242.027344 202.792969 243.375 201.421875 245.078125 200.402344 C 245.464844 208.015625 247.15625 210.210938 251.273438 210.597656 C 246.347656 215.171875 241.425781 208.519531 241.039062 204.515625 Z M 68.0625 198.4375 C 72.292969 208.671875 71.140625 215.523438 68.117188 224.679688 C 67.09375 220.371094 67.675781 216.140625 68.0625 211.140625 C 68.445312 206.140625 66.675781 202.523438 68.0625 198.445312 Z M 141.558594 194.015625 C 136.539062 187.78125 131.960938 186.398438 125.230469 187.589844 C 132.078125 180.085938 142.503906 185.472656 141.558594 194.015625 Z M 130.695312 158.351562 C 127.363281 158.351562 124.3125 156.390625 121.125 153.15625 L 121.136719 153.167969 C 119.28125 151.179688 115.027344 155.789062 111.898438 154.964844 C 112.257812 149.632812 112.261719 142.632812 109.339844 138.515625 C 108.929688 137.976562 108.507812 137.433594 108.078125 136.886719 C 105.679688 133.835938 102.972656 131.09375 99.960938 128.652344 C 103.355469 134.34375 103.023438 143.632812 100.871094 146.457031 C 100.613281 131.277344 90.144531 122.175781 86.566406 120.441406 C 85.558594 119.992188 84.535156 119.574219 83.492188 119.183594 C 85.460938 120.933594 87.480469 125.890625 86.5625 134.351562 C 85.292969 123.375 77.097656 117.230469 73.792969 116.484375 C 70.804688 115.9375 67.796875 115.660156 64.757812 115.652344 C 47.367188 115.652344 42.445312 135.785156 46.140625 144.8125 C 50.933594 156.535156 58.910156 168.820312 58.757812 178.980469 C 51.902344 160.175781 42.890625 153.1875 40.738281 142.601562 L 40.738281 142.617188 C 38.429688 143.066406 37.695312 139.757812 40.308594 139.316406 C 40.25 138.378906 40.246094 137.441406 40.289062 136.507812 C 40.402344 134.195312 40.746094 131.917969 41.320312 129.675781 L 41.3125 129.6875 C 39.355469 129.847656 37.445312 128.300781 36.578125 125.65625 C 37.398438 126.503906 39.757812 126.964844 42.390625 126.234375 L 42.390625 126.246094 C 43.34375 123.664062 44.632812 121.261719 46.25 119.035156 L 46.246094 119.035156 C 42.859375 117.800781 41.707031 114.042969 42.191406 110.964844 C 43.476562 113.65625 46.449219 116.53125 48.402344 116.457031 L 48.402344 116.464844 C 50.113281 114.660156 52.0625 113.167969 54.246094 111.980469 L 54.226562 111.980469 C 50.644531 105.203125 56.21875 103.523438 57.964844 99.574219 C 59.757812 102.34375 53.039062 107.421875 57.738281 110.457031 L 57.730469 110.464844 C 60.3125 109.601562 62.964844 109.179688 65.683594 109.195312 C 66.074219 109.195312 66.472656 109.207031 66.867188 109.222656 L 66.863281 109.195312 C 65.582031 100.242188 72.453125 100.5 76.097656 96.191406 C 76.136719 100.5 67.171875 102.988281 71.980469 109.792969 C 74.402344 110.242188 76.777344 110.863281 79.109375 111.65625 L 78.898438 111.582031 C 79.207031 105.582031 89.175781 106.039062 93.792969 100.5 C 93.433594 106.5 82.402344 108.449219 82.101562 112.746094 L 81.996094 112.707031 C 85.828125 114.222656 89.511719 116.039062 93.046875 118.152344 C 94.207031 112.8125 105.183594 112.710938 109.441406 108.09375 C 108.570312 114.351562 96.308594 115.6875 97.109375 120.71875 L 97.101562 120.71875 C 100.617188 123.074219 103.933594 125.691406 107.046875 128.5625 L 106.9375 128.453125 C 109.75 122.511719 122.785156 122.664062 124.675781 119.636719 C 122.214844 127.742188 110.441406 125.382812 110.019531 131.484375 L 109.984375 131.449219 C 111.175781 132.703125 112.285156 133.964844 113.289062 135.230469 C 115.15625 137.582031 116.765625 139.691406 118.1875 141.585938 C 120.0625 137.523438 127.855469 136.566406 135.140625 131.488281 C 135.601562 138.359375 120.527344 141.4375 121.460938 145.976562 C 125.640625 151.578125 127.792969 154.207031 130.625 154.207031 C 134.882812 154.207031 142.371094 147.667969 146.164062 147.667969 C 138.777344 151.847656 138.085938 158.363281 130.699219 158.363281 Z M 139.59375 268.738281 C 136.515625 257.554688 146.722656 259.402344 150.675781 253.816406 C 149.4375 261.050781 141.132812 262.894531 139.59375 268.738281 Z M 158.261719 215.492188 C 158.007812 211.488281 145.847656 207.4375 151.234375 198.050781 C 150.566406 206.769531 161.03125 207.796875 158.261719 215.492188 Z M 187.5 141.699219 C 191.550781 150.210938 197.046875 155.96875 203.988281 158.96875 C 198.351562 159.394531 192.835938 157.777344 187.5 153.042969 C 182.164062 157.777344 176.648438 159.394531 171.011719 158.96875 C 177.960938 155.980469 183.457031 150.226562 187.5 141.699219 Z M 180.9375 184 C 183.953125 181.511719 186.140625 178.433594 187.5 174.765625 C 188.859375 178.433594 191.046875 181.507812 194.0625 183.996094 C 191.226562 187.203125 189.296875 195.691406 187.5 204.925781 C 185.699219 195.691406 183.773438 187.203125 180.9375 183.996094 Z M 187.5 167.816406 C 186.378906 168.523438 185.15625 168.933594 183.832031 169.039062 C 182.507812 169.148438 181.238281 168.949219 180.011719 168.433594 C 181.523438 167.832031 182.914062 167.023438 184.1875 166.015625 C 185.464844 165.007812 186.566406 163.835938 187.5 162.507812 C 188.433594 163.835938 189.539062 165.003906 190.8125 166.011719 C 192.085938 167.023438 193.476562 167.828125 194.988281 168.429688 C 193.761719 168.945312 192.492188 169.148438 191.167969 169.039062 C 189.84375 168.929688 188.621094 168.519531 187.5 167.8125 Z M 187.5 230.0625 C 182.375 230.0625 180.78125 247.503906 165.136719 251.503906 C 177.347656 241.449219 179.398438 223.28125 187.5 223.28125 C 195.601562 223.28125 197.652344 241.449219 209.863281 251.503906 C 194.21875 247.503906 192.625 230.0625 187.5 230.0625 Z M 216.738281 215.492188 C 213.96875 207.796875 224.433594 206.769531 223.765625 198.050781 C 229.152344 207.4375 216.996094 211.488281 216.738281 215.492188 Z M 235.410156 268.734375 C 233.867188 262.886719 225.5625 261.039062 224.328125 253.8125 C 228.277344 259.40625 238.484375 257.558594 235.410156 268.734375 Z M 249.769531 187.585938 C 243.039062 186.394531 238.460938 187.777344 233.441406 194.011719 C 232.496094 185.46875 242.921875 180.085938 249.769531 187.585938 Z M 310.246094 115.644531 C 307.210938 115.652344 304.199219 115.929688 301.214844 116.476562 C 297.90625 117.222656 289.714844 123.367188 288.441406 134.34375 C 287.523438 125.882812 289.546875 120.925781 291.515625 119.175781 C 290.476562 119.566406 289.449219 119.988281 288.4375 120.433594 C 284.863281 122.167969 274.394531 131.269531 274.136719 146.449219 C 271.980469 143.628906 271.648438 134.339844 275.042969 128.644531 C 272.03125 131.085938 269.324219 133.832031 266.925781 136.878906 C 266.5 137.425781 266.082031 137.972656 265.664062 138.511719 C 262.742188 142.625 262.746094 149.625 263.105469 154.960938 C 259.976562 155.78125 255.71875 151.171875 253.871094 153.160156 L 253.878906 153.148438 C 250.691406 156.382812 247.640625 158.34375 244.308594 158.34375 C 236.921875 158.34375 236.230469 151.828125 228.84375 147.648438 C 232.640625 147.648438 240.128906 154.1875 244.382812 154.1875 C 247.21875 154.1875 249.371094 151.558594 253.542969 145.957031 C 254.480469 141.417969 239.402344 138.339844 239.863281 131.46875 C 247.148438 136.546875 254.945312 137.507812 256.816406 141.566406 C 258.238281 139.671875 259.851562 137.5625 261.714844 135.210938 C 262.722656 133.945312 263.828125 132.683594 265.023438 131.429688 L 264.984375 131.46875 C 264.5625 125.363281 252.789062 127.722656 250.328125 119.617188 C 252.226562 122.644531 265.25 122.492188 268.070312 128.433594 L 267.957031 128.542969 C 271.070312 125.671875 274.386719 123.058594 277.90625 120.699219 L 277.894531 120.699219 C 278.695312 115.667969 266.433594 114.332031 265.5625 108.074219 C 269.820312 112.691406 280.792969 112.796875 281.957031 118.132812 C 285.496094 116.019531 289.175781 114.207031 293.007812 112.6875 L 292.90625 112.726562 C 292.601562 108.429688 281.574219 106.480469 281.214844 100.480469 C 285.832031 106.019531 295.792969 105.5625 296.109375 111.5625 L 295.894531 111.640625 C 298.226562 110.84375 300.605469 110.222656 303.027344 109.773438 C 307.835938 102.972656 298.871094 100.480469 298.910156 96.171875 C 302.550781 100.480469 309.425781 100.222656 308.144531 109.175781 L 308.144531 109.203125 C 308.539062 109.191406 308.9375 109.175781 309.328125 109.175781 C 312.046875 109.160156 314.699219 109.582031 317.28125 110.445312 L 317.28125 110.4375 C 321.976562 107.40625 315.257812 102.328125 317.054688 99.558594 C 318.796875 103.507812 324.371094 105.1875 320.789062 111.964844 L 320.765625 111.964844 C 322.953125 113.148438 324.898438 114.640625 326.609375 116.445312 L 326.609375 116.4375 C 328.5625 116.511719 331.539062 113.640625 332.820312 110.945312 C 333.304688 114.023438 332.152344 117.777344 328.765625 119.015625 C 330.386719 121.242188 331.671875 123.644531 332.625 126.226562 L 332.625 126.214844 C 335.261719 126.949219 337.621094 126.484375 338.441406 125.640625 C 337.570312 128.28125 335.660156 129.828125 333.707031 129.671875 L 333.699219 129.660156 C 334.269531 131.902344 334.613281 134.175781 334.726562 136.488281 C 334.773438 137.425781 334.765625 138.359375 334.710938 139.296875 C 337.320312 139.738281 336.589844 143.046875 334.277344 142.597656 L 334.277344 142.585938 C 332.128906 153.171875 323.117188 160.15625 316.257812 178.960938 C 316.105469 168.804688 324.082031 156.519531 328.878906 144.796875 C 332.570312 135.769531 327.644531 115.632812 310.257812 115.632812 Z M 306.9375 211.132812 C 307.324219 216.132812 307.90625 220.363281 306.882812 224.671875 C 303.863281 215.515625 302.707031 208.667969 306.9375 198.429688 C 308.324219 202.515625 306.554688 206.132812 306.9375 211.132812 Z M 306.9375 211.132812 " fill-opacity="1" fill-rule="evenodd"/><path fill="#ffffff" d="M 301.625 244.679688 C 305.703125 254.605469 311.628906 259.601562 322.707031 264.53125 C 308.398438 294.539062 295.933594 294.539062 290.546875 294.539062 C 290.546875 298.078125 294.546875 304.695312 269.824219 321.0625 C 245.101562 337.433594 215.914062 343.550781 201.910156 344.167969 C 209.066406 355.246094 217.605469 357.554688 222.632812 356.296875 C 217.707031 356.296875 215.53125 353.398438 215.53125 350.765625 C 215.53125 350.179688 215.632812 349.609375 215.835938 349.058594 C 216.039062 348.503906 216.328125 348.003906 216.703125 347.554688 C 217.082031 347.105469 217.523438 346.734375 218.03125 346.4375 C 218.539062 346.144531 219.082031 345.945312 219.660156 345.839844 C 267.867188 335.863281 309.167969 302.539062 329.328125 259.683594 C 315.789062 258.21875 309.015625 253.40625 301.628906 244.679688 Z M 84.1875 148.707031 C 64.945312 130.113281 59.066406 153.671875 71.980469 160.070312 C 67.542969 154.171875 66.644531 140.320312 84.1875 148.707031 Z M 77.625 155.890625 C 77.304688 155.890625 76.996094 155.828125 76.699219 155.707031 C 76.40625 155.585938 76.144531 155.410156 75.917969 155.183594 C 75.691406 154.957031 75.515625 154.695312 75.394531 154.402344 C 75.273438 154.105469 75.210938 153.796875 75.210938 153.480469 C 75.210938 153.160156 75.273438 152.851562 75.394531 152.554688 C 75.515625 152.261719 75.691406 152 75.917969 151.773438 C 76.144531 151.546875 76.402344 151.371094 76.699219 151.25 C 76.996094 151.128906 77.300781 151.066406 77.621094 151.066406 C 77.941406 151.066406 78.25 151.128906 78.546875 151.25 C 78.839844 151.375 79.101562 151.546875 79.328125 151.773438 C 79.554688 152 79.726562 152.261719 79.851562 152.554688 C 79.972656 152.851562 80.035156 153.160156 80.035156 153.480469 C 80.035156 153.800781 79.972656 154.105469 79.851562 154.402344 C 79.726562 154.695312 79.554688 154.957031 79.328125 155.183594 C 79.101562 155.410156 78.839844 155.582031 78.546875 155.707031 C 78.25 155.828125 77.941406 155.890625 77.625 155.890625 Z M 169.582031 28.589844 C 173.710938 32.078125 177.957031 32.628906 180.980469 39.65625 C 180.878906 34.425781 177.300781 28.851562 174.824219 28.167969 C 176.429688 28.015625 177.679688 28.535156 179.335938 30.304688 C 177.601562 23.628906 166.8125 20.667969 169.875 14.089844 C 166.8125 15.78125 162.109375 22.28125 169.582031 28.589844 Z M 187.5 44.921875 C 187.492188 34.234375 179.011719 18.78125 179.011719 14.085938 C 179.011719 9.390625 187.492188 4 187.5 0.0078125 C 187.507812 3.996094 195.988281 9.394531 195.988281 14.085938 C 195.988281 18.777344 187.507812 34.234375 187.5 44.921875 Z M 85.757812 72.175781 C 87.429688 73.082031 89.21875 73.476562 91.117188 73.355469 C 94.863281 69.714844 103.042969 64.664062 105.171875 63.097656 C 114.890625 76.5625 127.152344 75.5625 136.847656 70.402344 C 118.457031 72.328125 113.996094 62.480469 110.6875 55.09375 C 101.792969 59.933594 93.480469 65.628906 85.757812 72.175781 Z M 142.925781 49.863281 C 135.300781 43.75 148.847656 32.707031 164.96875 47.09375 C 158.367188 43.761719 144.15625 40.027344 142.925781 49.863281 Z M 165.90625 102.03125 C 176.136719 102.03125 178.242188 87.488281 177.472656 77.410156 C 171.855469 101.339844 162.652344 96.003906 161.390625 91.949219 C 158.46875 93.605469 158.449219 102.03125 165.90625 102.03125 Z M 160.777344 72.636719 C 161.050781 72.636719 161.324219 72.613281 161.59375 72.558594 C 161.863281 72.503906 162.125 72.425781 162.378906 72.320312 C 162.636719 72.214844 162.875 72.085938 163.105469 71.929688 C 163.335938 71.777344 163.546875 71.605469 163.742188 71.410156 C 163.9375 71.214844 164.109375 71.003906 164.261719 70.773438 C 164.414062 70.546875 164.542969 70.304688 164.648438 70.050781 C 164.753906 69.792969 164.835938 69.53125 164.886719 69.261719 C 164.941406 68.992188 164.96875 68.71875 164.96875 68.445312 C 164.96875 68.167969 164.941406 67.894531 164.886719 67.625 C 164.835938 67.355469 164.753906 67.09375 164.648438 66.839844 C 164.542969 66.585938 164.414062 66.34375 164.261719 66.113281 C 164.109375 65.886719 163.933594 65.671875 163.742188 65.480469 C 163.546875 65.285156 163.332031 65.109375 163.105469 64.957031 C 162.875 64.804688 162.632812 64.675781 162.378906 64.570312 C 162.125 64.464844 161.863281 64.386719 161.59375 64.332031 C 161.324219 64.277344 161.050781 64.25 160.773438 64.25 C 160.5 64.25 160.226562 64.277344 159.957031 64.332031 C 159.6875 64.386719 159.425781 64.464844 159.171875 64.570312 C 158.914062 64.675781 158.675781 64.804688 158.445312 64.957031 C 158.214844 65.113281 158.003906 65.285156 157.808594 65.480469 C 157.613281 65.675781 157.441406 65.886719 157.289062 66.117188 C 157.136719 66.34375 157.007812 66.585938 156.902344 66.839844 C 156.796875 67.09375 156.714844 67.359375 156.664062 67.628906 C 156.609375 67.898438 156.582031 68.171875 156.582031 68.445312 C 156.582031 68.722656 156.609375 68.992188 156.664062 69.265625 C 156.714844 69.535156 156.796875 69.796875 156.902344 70.050781 C 157.007812 70.304688 157.136719 70.546875 157.289062 70.773438 C 157.441406 71.003906 157.617188 71.214844 157.8125 71.410156 C 158.003906 71.605469 158.21875 71.777344 158.445312 71.933594 C 158.675781 72.085938 158.917969 72.214844 159.171875 72.320312 C 159.425781 72.425781 159.6875 72.503906 159.957031 72.558594 C 160.226562 72.613281 160.5 72.636719 160.777344 72.636719 Z M 134.953125 63.597656 C 123.898438 63.597656 117.339844 54.253906 117.339844 45.984375 C 117.339844 36.949219 125.738281 28.351562 135.921875 26.554688 C 173.855469 19.863281 181.933594 60.101562 187.5 60.101562 C 193.066406 60.101562 201.144531 19.863281 239.078125 26.554688 C 249.265625 28.351562 257.660156 36.949219 257.660156 45.984375 C 257.660156 54.253906 251.101562 63.597656 240.046875 63.597656 C 235.25 63.597656 230.992188 61.949219 228.410156 57.628906 C 235.054688 57.628906 240.078125 52.015625 240.078125 46.550781 C 240.066406 45.828125 239.988281 45.109375 239.839844 44.402344 C 239.691406 43.691406 239.476562 43.003906 239.195312 42.335938 C 238.914062 41.667969 238.570312 41.035156 238.164062 40.433594 C 237.761719 39.832031 237.300781 39.273438 236.789062 38.761719 C 236.277344 38.25 235.722656 37.789062 235.121094 37.386719 C 234.519531 36.980469 233.882812 36.636719 233.214844 36.355469 C 232.546875 36.074219 231.859375 35.859375 231.152344 35.710938 C 230.441406 35.5625 229.726562 35.484375 229 35.476562 C 201.144531 34.238281 192.167969 70.84375 192.167969 82.640625 C 192.167969 94.4375 194.886719 103.363281 200.066406 106.800781 C 194.628906 108.542969 191.550781 105.257812 187.5 105.257812 C 183.449219 105.257812 180.371094 108.539062 174.933594 106.800781 C 180.113281 103.363281 182.832031 94.4375 182.832031 82.640625 C 182.832031 70.839844 173.855469 34.242188 146 35.476562 C 145.273438 35.484375 144.558594 35.5625 143.847656 35.710938 C 143.140625 35.859375 142.449219 36.074219 141.785156 36.355469 C 141.117188 36.636719 140.480469 36.980469 139.878906 37.386719 C 139.277344 37.789062 138.722656 38.25 138.210938 38.761719 C 137.695312 39.273438 137.238281 39.832031 136.835938 40.433594 C 136.429688 41.035156 136.085938 41.667969 135.804688 42.335938 C 135.523438 43.003906 135.308594 43.691406 135.160156 44.402344 C 135.011719 45.109375 134.933594 45.828125 134.921875 46.550781 C 134.921875 52.015625 139.945312 57.628906 146.589844 57.628906 C 144.003906 61.941406 139.75 63.597656 134.953125 63.597656 Z M 111.0625 46.925781 C 96.25 55.269531 83.105469 65.71875 71.636719 78.269531 C 76.988281 63.09375 107.6875 44.628906 112.097656 36.988281 C 111.726562 39.582031 110.238281 43.734375 111.066406 46.925781 Z M 64.058594 269.839844 C 64.058594 270.320312 64.152344 270.78125 64.335938 271.222656 C 64.519531 271.667969 64.78125 272.058594 65.117188 272.398438 C 65.457031 272.738281 65.847656 272.996094 66.292969 273.179688 C 66.734375 273.363281 67.195312 273.457031 67.675781 273.457031 C 68.15625 273.457031 68.617188 273.363281 69.058594 273.179688 C 69.503906 272.996094 69.894531 272.738281 70.234375 272.398438 C 70.570312 272.058594 70.832031 271.667969 71.015625 271.222656 C 71.199219 270.78125 71.292969 270.320312 71.292969 269.839844 C 71.292969 269.359375 71.199219 268.898438 71.015625 268.457031 C 70.832031 268.011719 70.570312 267.621094 70.234375 267.285156 C 69.894531 266.945312 69.503906 266.683594 69.058594 266.5 C 68.617188 266.316406 68.15625 266.222656 67.675781 266.222656 C 67.195312 266.222656 66.734375 266.316406 66.292969 266.5 C 65.847656 266.683594 65.457031 266.945312 65.121094 267.285156 C 64.78125 267.621094 64.519531 268.015625 64.335938 268.457031 C 64.152344 268.898438 64.058594 269.359375 64.058594 269.839844 Z M 61.519531 298.078125 C 81.21875 329.570312 137.128906 361.582031 148.824219 350.605469 C 98.65625 341.0625 69.726562 307.515625 61.519531 298.078125 Z M 47.054688 210.367188 C 46.636719 207.1875 45.945312 204.070312 44.972656 201.011719 C 44.003906 197.957031 42.773438 195.011719 41.28125 192.171875 C 39.789062 189.335938 38.058594 186.652344 36.089844 184.121094 C 34.121094 181.589844 31.945312 179.253906 29.5625 177.109375 C 28.484375 187.179688 29.242188 209.441406 32.617188 221.5 L 36.894531 223.804688 C 34.433594 213.851562 33.101562 200.457031 34.023438 192.515625 C 37.304688 195.183594 41.820312 198.667969 47.050781 210.367188 Z M 84.449219 294.542969 C 84.449219 298.082031 80.449219 304.699219 105.171875 321.070312 C 129.894531 337.4375 159.082031 343.554688 173.089844 344.171875 C 165.933594 355.25 157.394531 357.558594 152.367188 356.300781 C 157.292969 356.300781 159.46875 353.40625 159.46875 350.769531 C 159.46875 350.183594 159.367188 349.613281 159.164062 349.0625 C 158.964844 348.511719 158.675781 348.011719 158.296875 347.558594 C 157.921875 347.109375 157.476562 346.738281 156.96875 346.445312 C 156.460938 346.148438 155.917969 345.949219 155.34375 345.847656 C 107.132812 335.871094 65.832031 302.546875 45.671875 259.6875 C 59.214844 258.222656 65.984375 253.410156 73.371094 244.6875 C 69.292969 254.613281 63.371094 259.609375 52.289062 264.539062 C 66.601562 294.542969 79.066406 294.542969 84.449219 294.542969 Z M 290.808594 148.707031 C 308.351562 140.320312 307.453125 154.171875 303.015625 160.070312 C 315.929688 153.671875 310.054688 130.113281 290.808594 148.707031 Z M 294.960938 153.480469 C 294.960938 153.160156 295.023438 152.851562 295.144531 152.554688 C 295.265625 152.261719 295.441406 152 295.667969 151.773438 C 295.894531 151.546875 296.152344 151.375 296.449219 151.25 C 296.746094 151.128906 297.050781 151.066406 297.371094 151.066406 C 297.691406 151.066406 298 151.128906 298.292969 151.25 C 298.589844 151.371094 298.851562 151.546875 299.078125 151.773438 C 299.304688 152 299.476562 152.261719 299.601562 152.554688 C 299.722656 152.851562 299.785156 153.160156 299.785156 153.476562 C 299.785156 153.796875 299.722656 154.105469 299.601562 154.402344 C 299.476562 154.695312 299.304688 154.957031 299.078125 155.183594 C 298.851562 155.410156 298.589844 155.582031 298.296875 155.707031 C 298 155.828125 297.691406 155.890625 297.371094 155.890625 C 297.054688 155.890625 296.746094 155.828125 296.449219 155.707031 C 296.15625 155.582031 295.894531 155.410156 295.667969 155.183594 C 295.441406 154.957031 295.269531 154.695312 295.144531 154.402344 C 295.023438 154.105469 294.960938 153.800781 294.960938 153.480469 Z M 203.195312 359.296875 C 196.601562 360.828125 191.25 366.058594 187.148438 374.992188 C 184.222656 367.914062 178.976562 362.792969 171.804688 359.296875 C 178.976562 355.796875 184.222656 350.679688 187.148438 343.601562 C 191.253906 352.535156 196.601562 357.769531 203.195312 359.296875 Z M 200.171875 28.167969 C 197.695312 28.847656 194.117188 34.425781 194.015625 39.65625 C 197.039062 32.628906 201.285156 32.078125 205.414062 28.589844 C 212.886719 22.277344 208.183594 15.777344 205.121094 14.085938 C 208.183594 20.664062 197.394531 23.625 195.660156 30.300781 C 197.316406 28.53125 198.566406 28.011719 200.171875 28.167969 Z M 238.152344 70.40625 C 247.847656 75.5625 260.109375 76.5625 269.828125 63.101562 C 271.957031 64.664062 280.136719 69.71875 283.882812 73.359375 C 285.78125 73.480469 287.570312 73.085938 289.242188 72.179688 C 281.519531 65.632812 273.207031 59.9375 264.3125 55.097656 C 261.003906 62.484375 256.542969 72.332031 238.152344 70.410156 Z M 232.074219 49.863281 C 239.699219 43.75 226.152344 32.707031 210.03125 47.09375 C 216.636719 43.761719 230.84375 40.027344 232.074219 49.863281 Z M 213.609375 91.953125 C 212.351562 96.007812 203.144531 101.339844 197.527344 77.414062 C 196.757812 87.492188 198.863281 102.03125 209.09375 102.03125 C 216.550781 102.03125 216.53125 93.609375 213.609375 91.953125 Z M 218.417969 68.449219 C 218.417969 68.171875 218.390625 67.902344 218.335938 67.628906 C 218.285156 67.359375 218.203125 67.097656 218.097656 66.84375 C 217.992188 66.589844 217.863281 66.347656 217.710938 66.117188 C 217.558594 65.890625 217.386719 65.679688 217.191406 65.484375 C 216.996094 65.289062 216.785156 65.113281 216.554688 64.960938 C 216.324219 64.808594 216.085938 64.679688 215.828125 64.574219 C 215.574219 64.46875 215.3125 64.390625 215.042969 64.335938 C 214.773438 64.28125 214.5 64.253906 214.226562 64.253906 C 213.949219 64.253906 213.675781 64.28125 213.40625 64.335938 C 213.136719 64.386719 212.875 64.46875 212.621094 64.574219 C 212.367188 64.679688 212.125 64.808594 211.894531 64.960938 C 211.667969 65.113281 211.453125 65.289062 211.257812 65.480469 C 211.066406 65.675781 210.890625 65.886719 210.738281 66.117188 C 210.585938 66.347656 210.457031 66.589844 210.351562 66.84375 C 210.246094 67.097656 210.164062 67.359375 210.113281 67.628906 C 210.058594 67.898438 210.03125 68.171875 210.03125 68.449219 C 210.03125 68.722656 210.058594 68.996094 210.113281 69.265625 C 210.164062 69.535156 210.246094 69.796875 210.351562 70.050781 C 210.457031 70.308594 210.585938 70.546875 210.738281 70.777344 C 210.890625 71.007812 211.0625 71.21875 211.257812 71.414062 C 211.453125 71.609375 211.664062 71.78125 211.894531 71.933594 C 212.125 72.085938 212.363281 72.214844 212.621094 72.320312 C 212.875 72.425781 213.136719 72.507812 213.40625 72.5625 C 213.675781 72.613281 213.949219 72.640625 214.222656 72.640625 C 214.5 72.640625 214.773438 72.613281 215.042969 72.5625 C 215.3125 72.507812 215.574219 72.429688 215.828125 72.324219 C 216.082031 72.21875 216.324219 72.089844 216.554688 71.933594 C 216.78125 71.78125 216.996094 71.609375 217.191406 71.414062 C 217.382812 71.21875 217.558594 71.007812 217.710938 70.777344 C 217.863281 70.550781 217.992188 70.308594 218.097656 70.054688 C 218.203125 69.800781 218.285156 69.535156 218.335938 69.265625 C 218.390625 68.996094 218.417969 68.722656 218.417969 68.449219 Z M 263.9375 46.925781 C 264.757812 43.734375 263.273438 39.582031 262.90625 36.988281 C 267.316406 44.628906 298.015625 63.09375 303.367188 78.269531 C 291.894531 65.71875 278.75 55.269531 263.9375 46.925781 Z M 310.941406 269.839844 C 310.941406 270.316406 310.847656 270.777344 310.664062 271.222656 C 310.480469 271.664062 310.21875 272.054688 309.882812 272.394531 C 309.542969 272.734375 309.152344 272.996094 308.707031 273.179688 C 308.265625 273.363281 307.804688 273.453125 307.324219 273.453125 C 306.84375 273.453125 306.382812 273.363281 305.941406 273.179688 C 305.496094 272.996094 305.105469 272.734375 304.765625 272.394531 C 304.429688 272.054688 304.167969 271.664062 303.984375 271.222656 C 303.800781 270.777344 303.707031 270.316406 303.707031 269.839844 C 303.707031 269.359375 303.800781 268.898438 303.984375 268.453125 C 304.167969 268.011719 304.429688 267.621094 304.765625 267.28125 C 305.105469 266.941406 305.496094 266.679688 305.941406 266.496094 C 306.382812 266.3125 306.84375 266.222656 307.324219 266.222656 C 307.804688 266.222656 308.265625 266.3125 308.707031 266.496094 C 309.152344 266.679688 309.542969 266.941406 309.878906 267.28125 C 310.21875 267.621094 310.480469 268.011719 310.664062 268.453125 C 310.847656 268.898438 310.941406 269.359375 310.941406 269.839844 Z M 226.175781 350.601562 C 276.34375 341.0625 305.273438 307.515625 313.480469 298.078125 C 293.78125 329.566406 237.871094 361.578125 226.175781 350.601562 Z M 342.378906 221.5 C 345.753906 209.441406 346.511719 187.179688 345.433594 177.109375 C 343.050781 179.253906 340.875 181.589844 338.90625 184.121094 C 336.9375 186.652344 335.207031 189.335938 333.714844 192.171875 C 332.222656 195.011719 330.992188 197.957031 330.019531 201.011719 C 329.050781 204.070312 328.355469 207.1875 327.941406 210.367188 C 333.171875 198.667969 337.683594 195.183594 340.96875 192.515625 C 341.894531 200.457031 340.554688 213.851562 338.097656 223.804688 Z M 342.378906 221.5 " fill-opacity="1" fill-rule="evenodd"/></svg>