<svg xmlns="http://www.w3.org/2000/svg" xmlns:xlink="http://www.w3.org/1999/xlink" width="500" zoomAndPan="magnify" viewBox="0 0 375 374.999991" height="500" preserveAspectRatio="xMidYMid meet" version="1.0"><defs><clipPath id="12e460196a"><path d="M 0 347.007812 L 24.980469 347.007812 L 24.980469 375 L 0 375 Z M 0 347.007812 " clip-rule="nonzero"/></clipPath><clipPath id="a673e407b6"><path d="M 16 2.34375 L 359 2.34375 L 359 375 L 16 375 Z M 16 2.34375 " clip-rule="nonzero"/></clipPath></defs><g clip-path="url(#12e460196a)"><path fill="#000000" d="M -22.941406 473.195312 C -23.179688 476.359375 -18.316406 482.542969 -16.257812 485.230469 C -15.222656 486.578125 -16.757812 487.257812 -17.523438 486.222656 C -21.777344 480.429688 -24.214844 475.710938 -34.160156 468.925781 C -47.308594 459.960938 -59.359375 453.566406 -87.867188 452.414062 C -98.292969 451.996094 -96.5 455.117188 -102.351562 459.492188 C -103.222656 460.136719 -104.320312 459.253906 -103.195312 458.144531 C -97.941406 452.980469 -96.582031 452.050781 -96.457031 449.859375 C -95.949219 440.527344 -106.222656 414.007812 -114.5 412.929688 C -118.066406 412.46875 -123.171875 413.324219 -124.300781 413.183594 C -124.480469 413.167969 -124.636719 413.097656 -124.765625 412.972656 C -124.894531 412.84375 -124.96875 412.691406 -124.984375 412.511719 C -125.003906 412.332031 -124.960938 412.164062 -124.859375 412.015625 C -124.757812 411.863281 -124.621094 411.765625 -124.449219 411.714844 C -124.125 411.609375 -118.242188 411.277344 -116.617188 411.152344 C -116.007812 411.101562 -114.585938 410.515625 -113.480469 409.238281 C -113.234375 408.953125 -113.128906 408.367188 -112.617188 407.109375 C -107.132812 393.507812 -105.527344 362.582031 -109.703125 358.847656 C -117.078125 352.261719 -118.214844 351.128906 -117.335938 350.378906 C -116.308594 349.492188 -115.867188 351.542969 -112.265625 354.304688 C -106.289062 358.886719 -103.171875 359.292969 -93.179688 359.988281 C -79.449219 360.933594 -76.027344 360.875 -69.226562 360.554688 C -52.261719 359.761719 -37.132812 357.578125 -32.59375 356.667969 C -27.667969 355.679688 -27.144531 349.835938 -25.953125 347.550781 C -25.875 347.371094 -25.746094 347.242188 -25.570312 347.160156 C -25.390625 347.082031 -25.210938 347.070312 -25.023438 347.132812 C -24.839844 347.191406 -24.699219 347.308594 -24.601562 347.480469 C -24.507812 347.648438 -24.480469 347.828125 -24.523438 348.019531 C -24.585938 348.375 -26.738281 354.042969 -26.746094 354.054688 C -28.988281 359.582031 -16.929688 377.820312 6.765625 380.773438 C 9.261719 381.085938 18.792969 376.609375 19.921875 376.671875 C 20.253906 376.699219 20.46875 376.871094 20.570312 377.1875 C 20.671875 377.503906 20.59375 377.769531 20.34375 377.984375 C 18.0625 379.84375 10.945312 379.230469 7.042969 387.867188 C -0.582031 404.710938 9.742188 428.902344 18.949219 434.03125 C 23.835938 436.757812 23.976562 436.339844 24.542969 436.875 C 24.976562 437.28125 24.765625 438.203125 24.113281 438.292969 C 22.789062 438.480469 19.726562 435.226562 9.964844 433.609375 C 4.960938 432.789062 -20.554688 441.699219 -22.941406 473.195312 Z M -39.300781 438.832031 C -39.511719 439.34375 -43.324219 426.578125 -46.15625 423.503906 C -49.359375 420.015625 -61.453125 421.355469 -65.007812 424.632812 L -71.894531 431.003906 C -73.546875 432.535156 -64.578125 426.851562 -46.160156 434.488281 C -41.421875 436.453125 -39.695312 438.972656 -39.300781 438.832031 Z M -93.207031 371.019531 C -93.207031 371.003906 -81.789062 381.300781 -80.742188 381.769531 C -79.410156 382.371094 -78.148438 382.96875 -76.933594 382.941406 C -75.722656 382.914062 -66.253906 383.296875 -57.519531 380.941406 C -44.058594 377.300781 -33.757812 368.347656 -33.570312 366.105469 C -44.898438 369.6875 -57.921875 372.042969 -69.269531 372.992188 C -83.644531 374.195312 -87.902344 372.34375 -93.21875 371.019531 Z M -93.507812 451.0625 C -92.714844 451.027344 -89.464844 450.507812 -79.246094 451.5625 C -60.15625 453.535156 -51.851562 456.832031 -42.8125 461.722656 C -30.195312 468.554688 -25.449219 473.8125 -26.15625 472.019531 C -30.617188 460.726562 -30.414062 460.761719 -31.859375 459.238281 C -31.875 459.21875 -40.753906 452.597656 -47.09375 448.871094 C -66.777344 437.292969 -84.085938 442.3125 -86.265625 444.3125 C -86.371094 444.40625 -93.015625 450.511719 -93.519531 451.0625 Z M -106.320312 361.710938 C -106.074219 364.449219 -105.75 374.851562 -106.140625 381.871094 C -106.527344 389.152344 -109.769531 403.949219 -111.113281 407.21875 C -111.292969 407.644531 -112.339844 410.488281 -112.320312 410.828125 C -111.40625 410.871094 -104.59375 410.617188 -104.613281 410.621094 C -102.824219 410.566406 -100.113281 408.996094 -98.308594 407.292969 C -97.226562 406.265625 -95.023438 401.394531 -94.433594 399.964844 C -89.695312 388.464844 -91.421875 382.65625 -92.523438 377.625 C -92.78125 376.457031 -93.765625 372.558594 -94.675781 371.78125 C -97.875 369.027344 -105.691406 362.183594 -106.320312 361.710938 Z M -106.300781 359.652344 C -106.410156 359.847656 -106.367188 359.714844 -106.203125 359.859375 C -96.382812 368.378906 -92.933594 375.265625 -57.402344 370.082031 C -52.296875 369.335938 -38.597656 366.605469 -33.867188 364.613281 C -31.71875 363.707031 -31.382812 361.851562 -29.714844 357.730469 C -29.6875 357.640625 -29.664062 357.546875 -29.648438 357.449219 C -50.582031 362.136719 -90.5 364.21875 -106.300781 359.652344 Z M 6.679688 383.722656 C 6.011719 384 -6.859375 389.894531 -6.835938 389.882812 C -7.523438 390.195312 -16.910156 404.898438 -9.851562 418.097656 C -8.238281 421.117188 -5.773438 423.738281 -5.324219 424.269531 C -4.289062 425.492188 -4.171875 425.304688 11.554688 430.957031 C 12.933594 431.453125 10.742188 430.488281 8.386719 425.136719 C 6.105469 419.941406 3.445312 415.289062 2.863281 403.730469 C 2.316406 392.761719 6.605469 384.148438 6.679688 383.722656 Z M -24.929688 471.15625 C -24.699219 470.503906 -24.875 470.335938 -24.148438 468.210938 C -23.261719 465.621094 -23.261719 464.648438 -22.414062 461.410156 C -19.472656 450.058594 -9.265625 437.597656 4.496094 432.941406 C 7.550781 431.90625 9.492188 432.277344 9.851562 431.898438 C 9.605469 431.804688 -3.199219 427.160156 -3.914062 426.925781 C -4.902344 426.59375 -4.492188 426.6875 -8.265625 427.59375 C -22.722656 431.050781 -33.109375 450.589844 -28.9375 461.089844 C -24.523438 472.203125 -25.269531 470.398438 -24.929688 471.15625 Z M -32.113281 457.257812 C -32.042969 457.179688 -32.015625 457.257812 -32.207031 456.761719 C -37.707031 442.878906 -37.367188 443.339844 -38.5625 441.816406 C -44.105469 434.75 -61.585938 429.125 -74.121094 433.402344 C -74.796875 433.632812 -74.449219 433.351562 -82.78125 441.078125 C -82.976562 441.253906 -83.199219 441.488281 -82.941406 441.433594 C -58.273438 435.3125 -40.484375 451.738281 -32.113281 457.257812 Z M -7.222656 425.828125 C -7.195312 425.628906 -6.042969 426.214844 -22.492188 420.203125 C -23.949219 419.671875 -26.449219 420.988281 -27.671875 421.917969 C -34.113281 426.800781 -37.367188 436.703125 -37.007812 438.800781 C -36.617188 441.109375 -36.398438 442.222656 -35.5 444.503906 C -31.070312 455.78125 -31.441406 454.8125 -31.3125 454.875 C -30.113281 441.171875 -20.300781 429.746094 -10.113281 426.589844 C -9.46875 426.394531 -8.746094 426.214844 -7.222656 425.832031 Z M -28.25 358.050781 C -28.714844 359.050781 -29.457031 361.035156 -30.378906 363.1875 C -30.867188 364.324219 -31.15625 366.265625 -30.78125 367.199219 C -30.011719 369.136719 -28.300781 374.65625 -24.191406 379.804688 C -19.863281 385.230469 -12.554688 390.929688 -6.25 388.035156 C 7.160156 381.875 5.320312 382.773438 5.929688 382.429688 C 4.105469 381.042969 -19.347656 379.753906 -28.25 358.050781 Z M -100.316406 428.730469 C -94.371094 443.773438 -95.128906 449.664062 -94.980469 450.355469 C -86.613281 443.183594 -86.613281 442.480469 -86.75 441.390625 C -86.910156 440.097656 -87.324219 431.023438 -91.164062 423.703125 C -94.390625 417.554688 -99.878906 411.871094 -102.027344 412 C -119.179688 413.054688 -108.234375 408.679688 -100.316406 428.730469 Z M -98.527344 410.382812 C -97.839844 410.425781 -95.941406 410.300781 -92.875 410.234375 C -92.023438 410.214844 -90.582031 410.011719 -89.847656 409.539062 C -83.722656 405.585938 -79.363281 398.296875 -78.71875 392.152344 C -77.929688 384.652344 -77.476562 386.730469 -91.515625 374.535156 C -93.390625 372.902344 -88 380.585938 -90.519531 392.011719 C -93.140625 403.894531 -98.371094 410.101562 -98.527344 410.382812 Z M -9.496094 391.207031 C -9.578125 391.105469 -8.855469 390.792969 -15.976562 394.058594 C -18.625 395.273438 -21.089844 396.289062 -23.414062 398.777344 C -27.8125 403.503906 -27.550781 412.0625 -24.8125 417.398438 C -24.4375 418.121094 -24.078125 418.082031 -20.410156 419.40625 C -6.203125 424.539062 -7.394531 424.214844 -7.75 423.738281 C -14.628906 414.53125 -16.75 406.351562 -9.496094 391.214844 Z M -11.464844 390.402344 C -11.789062 389.988281 -14.703125 390.109375 -19.597656 386.363281 C -28.640625 379.441406 -31.175781 369.796875 -32.1875 367.699219 C -32.394531 368.066406 -36.265625 377.664062 -37.578125 380.839844 C -38.285156 382.535156 -33.941406 395.273438 -24.773438 395.417969 C -21.847656 395.457031 -23.5 395.984375 -11.464844 390.402344 Z M -77.601562 384.382812 C -77.769531 384.632812 -72.382812 389.300781 -68.582031 390.390625 C -64.214844 391.644531 -59.582031 392.140625 -55.222656 391.019531 C -50.574219 389.824219 -44.78125 387.394531 -41.316406 383.71875 C -39.066406 381.332031 -35.210938 371.390625 -34.890625 370.328125 C -48.542969 381.546875 -59.125 384.382812 -77.601562 384.382812 Z M -98.703125 411.921875 C -82.984375 426.054688 -86.480469 442.53125 -84.9375 441.101562 C -77.863281 434.566406 -76.085938 433.867188 -76.523438 428.296875 C -77.234375 419.386719 -85.9375 412.164062 -90.382812 411.800781 C -93.207031 411.570312 -98.703125 411.921875 -98.714844 411.921875 Z M -76.960938 387.191406 C -77.21875 389.230469 -76.636719 392.585938 -78.792969 398.082031 C -81.03125 403.792969 -83.933594 406.597656 -87.957031 410.03125 C -87.941406 410.03125 -76.550781 409.980469 -75.5 409.285156 C -70.535156 406.003906 -67.582031 395.304688 -71.820312 391.628906 C -73.417969 390.257812 -76.796875 387.335938 -76.972656 387.191406 Z M -38.4375 437.035156 C -38.234375 437.003906 -36.011719 424.285156 -25.585938 419.105469 C -26.585938 418.710938 -35.21875 415.617188 -37.089844 414.925781 C -37.828125 414.652344 -44.597656 418.050781 -43.53125 424.050781 C -43.449219 424.523438 -38.714844 436.441406 -38.4375 437.035156 Z M -69.1875 392.007812 C -58.832031 401.003906 -59.382812 400.742188 -58.371094 400.886719 C -51.917969 401.847656 -45.808594 397.15625 -45.378906 396.105469 C -40.71875 384.632812 -41.363281 386.324219 -41.144531 385.628906 C -41.78125 386.089844 -42.5625 387.050781 -45.382812 388.636719 C -61.21875 397.597656 -71.730469 389.800781 -69.1875 392.007812 Z M -86.644531 411.570312 C -73.90625 419.703125 -75.324219 428.070312 -75.035156 430.835938 C -65.785156 423.585938 -68.421875 410.984375 -75.960938 411.164062 C -75.984375 411.164062 -86.867188 411.433594 -86.644531 411.570312 Z M -38.902344 384.125 C -39.375 385.1875 -43.742188 395.972656 -44.578125 397.972656 C -44.703125 398.222656 -44.714844 398.472656 -44.609375 398.730469 C -44.488281 399.046875 -44.347656 399.355469 -44.1875 399.652344 C -43.234375 401.25 -41.414062 402.453125 -40.417969 402.796875 C -38.960938 403.300781 -39.089844 403.035156 -32.128906 399.851562 C -26.15625 397.125 -26.59375 397.355469 -26.492188 397.191406 C -33.710938 395.257812 -36.453125 390.464844 -38.902344 384.125 Z M -25.292969 398.429688 C -25.40625 398.328125 -38.988281 404.433594 -39.101562 404.824219 C -40.230469 408.730469 -37.914062 413.089844 -36.085938 413.746094 C -25.636719 417.507812 -27.136719 417 -26.570312 417.144531 C -28.5 411.949219 -28.605469 407.394531 -27.6875 403.847656 C -26.921875 400.875 -26.140625 399.832031 -25.292969 398.429688 Z M -68.488281 394.558594 C -68.769531 395.066406 -67.320312 398.511719 -70.246094 405.089844 C -71.640625 408.226562 -73.042969 409.085938 -73.300781 409.515625 C -73.148438 409.609375 -73.582031 409.566406 -65.558594 409.324219 C -63.078125 409.246094 -59.160156 402.625 -60.332031 401.613281 C -62.917969 399.382812 -68.332031 394.683594 -68.488281 394.558594 Z M -60.996094 421 C -57.941406 420.273438 -55.269531 419.75 -51.917969 420.054688 C -48.195312 420.394531 -47.046875 421.160156 -46.277344 421.332031 C -46.445312 420.714844 -50.144531 411.417969 -50.355469 411.101562 C -51.144531 411.707031 -60.667969 420.554688 -60.996094 421 Z M -69.738281 426.914062 C -69.636719 427.054688 -65.105469 422.828125 -64.644531 421.941406 C -62.382812 417.550781 -62.175781 410.496094 -67.074219 410.828125 C -74.121094 411.308594 -70.515625 409.984375 -68.820312 414.234375 C -66.984375 418.828125 -67.445312 422.738281 -69.738281 426.914062 Z M -62.164062 420.003906 C -61.484375 419.40625 -52.210938 410.808594 -52.191406 410.789062 C -51.648438 410.28125 -51.785156 410.332031 -52.28125 410.347656 C -63.792969 410.714844 -62.539062 410.691406 -62.902344 410.757812 C -61.707031 413.757812 -61.15625 415.351562 -62.164062 420.003906 Z M -39.390625 414.183594 C -39.480469 414.070312 -48.699219 410.695312 -48.796875 410.785156 C -48.71875 411.183594 -45.132812 420.234375 -44.910156 420.582031 C -43.867188 417.746094 -41.941406 415.691406 -39.390625 414.183594 Z M -57.046875 402.484375 C -56.628906 402.953125 -50.757812 408.03125 -50.453125 408.210938 C -50.144531 408.132812 -46.730469 399.382812 -46.703125 399.265625 C -49.941406 401.328125 -53.167969 402.617188 -57.046875 402.484375 Z M -62.367188 409.210938 C -51.066406 408.835938 -52.640625 408.902344 -52.101562 408.839844 C -52.277344 408.582031 -51.390625 409.382812 -58.726562 403.011719 C -59.453125 405.507812 -60.632812 407.300781 -62.375 409.210938 Z M -48.789062 409.140625 C -48.296875 409.347656 -49.597656 408.875 -39.8125 412.402344 C -39.15625 412.636719 -39.457031 412.527344 -39.988281 411.140625 C -41.261719 407.835938 -40.738281 406.113281 -40.785156 405.457031 C -41.308594 405.613281 -48.492188 408.917969 -48.796875 409.140625 Z M -41.273438 404.035156 C -45.300781 402.035156 -45.316406 399.816406 -45.617188 400.554688 C -48.585938 407.816406 -48.234375 406.886719 -48.253906 407.230469 C -45.933594 406.164062 -43.65625 405.132812 -41.277344 404.035156 Z M -41.273438 404.035156 " fill-opacity="1" fill-rule="nonzero"/></g><g clip-path="url(#a673e407b6)"><path fill="#ffffff" d="M 187.445312 326.746094 C 182.816406 336.46875 174.726562 344.269531 164.511719 350.882812 C 174.726562 357.496094 182.816406 365.289062 187.445312 375.015625 C 192.074219 365.296875 200.164062 357.496094 210.378906 350.882812 C 200.164062 344.269531 192.074219 336.472656 187.445312 326.746094 Z M 314.929688 229.683594 C 318.054688 229.902344 325.539062 231.539062 328.246094 234.023438 C 331.878906 224.839844 331.375 219.390625 328.914062 214.203125 C 333.089844 212.019531 335.632812 208.769531 338.539062 203.648438 C 337.53125 214.546875 333.292969 233.316406 328.851562 243.105469 C 326.730469 239.574219 319.265625 232.308594 314.925781 229.679688 Z M 309.679688 128.769531 C 318.058594 125.039062 322.496094 122.113281 327.945312 116.660156 C 332.023438 127.554688 339.347656 148.851562 339.347656 187.199219 C 338.097656 176.59375 331.273438 167.019531 327.84375 163.382812 C 332.234375 158.945312 334.640625 149.390625 325.960938 124.769531 C 323.597656 126.441406 321.011719 127.621094 318.199219 128.3125 C 315.390625 129.003906 312.550781 129.15625 309.679688 128.769531 Z M 308.589844 233.757812 C 320.835938 248.542969 323.886719 268.257812 320.917969 291.199219 C 322.519531 289.121094 324.074219 287.007812 325.582031 284.859375 C 327.089844 282.714844 328.550781 280.535156 329.960938 278.324219 C 331.375 276.113281 332.734375 273.871094 334.050781 271.601562 C 335.363281 269.328125 336.625 267.03125 337.839844 264.703125 C 339.050781 262.378906 340.210938 260.027344 341.320312 257.648438 C 342.429688 255.269531 343.488281 252.871094 344.492188 250.445312 C 345.496094 248.023438 346.445312 245.578125 347.339844 243.109375 C 348.238281 240.644531 349.078125 238.160156 349.867188 235.660156 C 350.652344 233.15625 351.386719 230.636719 352.0625 228.101562 C 352.738281 225.566406 353.359375 223.019531 353.921875 220.457031 C 354.488281 217.894531 354.996094 215.320312 355.445312 212.738281 C 355.898438 210.152344 356.292969 207.558594 356.628906 204.957031 C 356.964844 202.355469 357.246094 199.746094 357.46875 197.132812 C 357.691406 194.519531 357.855469 191.902344 357.964844 189.28125 C 358.074219 186.660156 358.121094 184.035156 358.113281 181.414062 C 358.109375 178.789062 358.042969 176.167969 357.917969 173.546875 C 357.796875 170.925781 357.617188 168.308594 357.378906 165.695312 C 357.140625 163.082031 356.847656 160.476562 356.492188 157.878906 C 356.140625 155.277344 355.730469 152.6875 355.265625 150.105469 C 354.800781 147.523438 354.277344 144.953125 353.699219 142.394531 C 353.117188 139.835938 352.484375 137.289062 351.792969 134.757812 C 351.101562 132.230469 350.355469 129.714844 349.554688 127.214844 C 348.753906 124.71875 347.898438 122.238281 346.988281 119.777344 C 346.078125 117.316406 345.113281 114.878906 344.09375 112.460938 C 343.078125 110.042969 342.007812 107.648438 340.882812 105.277344 C 339.761719 102.90625 338.585938 100.558594 337.359375 98.238281 C 336.132812 95.921875 334.859375 93.628906 333.53125 91.367188 C 332.207031 89.101562 330.828125 86.867188 329.40625 84.664062 C 327.980469 82.464844 326.507812 80.292969 324.988281 78.152344 C 323.46875 76.015625 321.902344 73.910156 320.289062 71.84375 C 318.675781 69.773438 317.019531 67.738281 315.316406 65.742188 C 313.613281 63.746094 311.871094 61.789062 310.082031 59.867188 C 323.785156 85.066406 323.265625 106.574219 304.832031 123.421875 C 315.679688 119.121094 324.144531 112.617188 329.28125 103.050781 C 349.5 140.507812 354.867188 216.121094 328.96875 257.894531 C 326.878906 249.222656 317.28125 239.074219 308.597656 233.757812 Z M 59.957031 229.683594 C 56.832031 229.902344 49.347656 231.539062 46.640625 234.023438 C 43.007812 224.839844 43.511719 219.390625 45.972656 214.203125 C 41.796875 212.019531 39.25 208.769531 36.347656 203.648438 C 37.355469 214.546875 41.59375 233.316406 46.035156 243.105469 C 48.15625 239.574219 55.621094 232.308594 59.960938 229.679688 Z M 65.203125 128.769531 C 56.828125 125.039062 52.390625 122.113281 46.941406 116.660156 C 42.863281 127.554688 35.535156 148.851562 35.535156 187.199219 C 36.789062 176.59375 43.613281 167.019531 47.042969 163.382812 C 42.652344 158.945312 40.246094 149.390625 48.925781 124.769531 C 51.285156 126.441406 53.875 127.621094 56.683594 128.3125 C 59.496094 129.003906 62.335938 129.15625 65.203125 128.769531 Z M 163.773438 360.859375 C 165.800781 361.9375 167.640625 363.277344 169.292969 364.875 C 170.945312 366.472656 172.34375 368.269531 173.488281 370.265625 C 154.15625 367.40625 135.90625 360.15625 118.472656 349.574219 C 134.636719 355.019531 149.96875 359.148438 163.765625 360.859375 Z M 182.378906 21.34375 C 185.535156 30.53125 184.191406 38.945312 179.765625 46.835938 C 182.855469 48.691406 185.339844 52.453125 187.445312 56.867188 C 189.550781 52.453125 192.035156 48.695312 195.125 46.835938 C 190.699219 38.945312 189.351562 30.53125 192.511719 21.34375 C 192.851562 35.785156 198.972656 43.445312 207.664062 48.085938 C 198.15625 34.847656 196.464844 22.003906 206.199219 9.742188 C 196.59375 8.859375 189.546875 6.765625 187.445312 2.320312 C 185.34375 6.761719 178.292969 8.855469 168.691406 9.742188 C 178.425781 22.003906 176.734375 34.847656 167.226562 48.085938 C 175.917969 43.441406 182.039062 35.78125 182.378906 21.34375 Z M 66.296875 233.753906 C 54.050781 248.542969 51 268.257812 53.960938 291.195312 C 52.363281 289.117188 50.808594 287.003906 49.300781 284.855469 C 47.792969 282.710938 46.332031 280.53125 44.921875 278.320312 C 43.507812 276.109375 42.144531 273.867188 40.832031 271.597656 C 39.519531 269.324219 38.257812 267.027344 37.042969 264.699219 C 35.832031 262.375 34.671875 260.023438 33.5625 257.644531 C 32.453125 255.265625 31.394531 252.867188 30.390625 250.441406 C 29.390625 248.019531 28.4375 245.574219 27.542969 243.105469 C 26.648438 240.640625 25.804688 238.15625 25.019531 235.65625 C 24.230469 233.152344 23.5 230.632812 22.824219 228.097656 C 22.148438 225.5625 21.527344 223.015625 20.960938 220.453125 C 20.398438 217.890625 19.890625 215.316406 19.441406 212.734375 C 18.988281 210.148438 18.59375 207.554688 18.257812 204.953125 C 17.917969 202.351562 17.640625 199.742188 17.417969 197.128906 C 17.195312 194.515625 17.03125 191.898438 16.921875 189.277344 C 16.8125 186.65625 16.765625 184.03125 16.773438 181.410156 C 16.78125 178.785156 16.84375 176.164062 16.96875 173.542969 C 17.089844 170.921875 17.269531 168.304688 17.507812 165.691406 C 17.746094 163.082031 18.042969 160.472656 18.394531 157.875 C 18.746094 155.273438 19.15625 152.683594 19.621094 150.101562 C 20.089844 147.519531 20.609375 144.949219 21.191406 142.390625 C 21.769531 139.832031 22.40625 137.289062 23.097656 134.757812 C 23.785156 132.226562 24.53125 129.710938 25.335938 127.214844 C 26.136719 124.714844 26.992188 122.234375 27.902344 119.777344 C 28.8125 117.316406 29.777344 114.875 30.796875 112.457031 C 31.8125 110.039062 32.882812 107.644531 34.007812 105.273438 C 35.128906 102.902344 36.304688 100.558594 37.527344 98.238281 C 38.753906 95.917969 40.03125 93.628906 41.359375 91.363281 C 42.683594 89.101562 44.0625 86.867188 45.484375 84.664062 C 46.910156 82.460938 48.382812 80.292969 49.902344 78.152344 C 51.421875 76.015625 52.988281 73.910156 54.601562 71.84375 C 56.214844 69.773438 57.871094 67.738281 59.574219 65.742188 C 61.277344 63.746094 63.019531 61.789062 64.808594 59.867188 C 51.105469 85.066406 51.621094 106.574219 70.058594 123.421875 C 59.210938 119.121094 50.746094 112.617188 45.609375 103.050781 C 25.390625 140.507812 20.023438 216.121094 45.921875 257.894531 C 48.011719 249.222656 57.613281 239.074219 66.296875 233.757812 Z M 205.15625 319.746094 C 229.488281 332.765625 236.851562 314.792969 236.605469 308.984375 C 236.449219 305.328125 233.941406 301.148438 228.769531 301.148438 C 228.257812 301.15625 227.75 301.210938 227.246094 301.316406 C 226.746094 301.421875 226.261719 301.574219 225.789062 301.777344 C 225.316406 301.976562 224.867188 302.21875 224.441406 302.503906 C 224.019531 302.789062 223.625 303.113281 223.261719 303.476562 C 222.898438 303.839844 222.574219 304.234375 222.289062 304.65625 C 222.003906 305.082031 221.757812 305.53125 221.558594 306.003906 C 221.359375 306.476562 221.207031 306.960938 221.101562 307.464844 C 220.996094 307.964844 220.941406 308.472656 220.933594 308.984375 C 220.933594 312.222656 222.699219 313.941406 224.269531 315.472656 C 222.5625 314.636719 217.277344 311.652344 217.277344 303.382812 C 217.292969 302.46875 217.394531 301.570312 217.582031 300.675781 C 217.773438 299.785156 218.046875 298.921875 218.402344 298.082031 C 218.757812 297.242188 219.191406 296.445312 219.699219 295.691406 C 220.210938 294.933594 220.789062 294.234375 221.433594 293.589844 C 222.078125 292.945312 222.777344 292.367188 223.53125 291.859375 C 224.289062 291.347656 225.085938 290.914062 225.921875 290.558594 C 226.761719 290.203125 227.628906 289.929688 228.519531 289.742188 C 229.410156 289.550781 230.3125 289.449219 231.222656 289.433594 C 232.164062 289.46875 233.09375 289.589844 234.015625 289.796875 C 234.933594 290.003906 235.828125 290.292969 236.691406 290.660156 C 237.558594 291.03125 238.386719 291.476562 239.171875 291.996094 C 239.957031 292.515625 240.6875 293.101562 241.367188 293.753906 C 242.046875 294.410156 242.660156 295.121094 243.207031 295.886719 C 243.757812 296.652344 244.230469 297.460938 244.632812 298.3125 C 245.03125 299.164062 245.355469 300.046875 245.59375 300.957031 C 245.832031 301.867188 245.988281 302.792969 246.0625 303.734375 C 247.261719 318.492188 237.675781 327.789062 227.199219 327.789062 C 217.484375 327.789062 212.050781 325.179688 205.152344 319.746094 Z M 262 221.375 C 287.386719 221.375 310.789062 238.773438 310.789062 266.675781 C 310.789062 324.035156 268.058594 342.320312 244.027344 342.320312 C 219.996094 342.320312 209.335938 336.050781 197.21875 322.671875 C 213.515625 338.867188 255.101562 333.121094 264.476562 310.082031 C 270.824219 298.089844 267.660156 283.171875 276.695312 283.171875 C 283.730469 283.171875 284.929688 293.078125 282.894531 300.363281 C 285.949219 298.015625 288.222656 293 286.65625 287.046875 C 293.859375 273.097656 292.140625 255.703125 275.683594 244.417969 C 317.84375 264.007812 290.886719 319.332031 261.371094 330.199219 C 279.550781 324.558594 296.539062 315.09375 303.164062 287.777344 C 309.785156 260.464844 296.601562 233.441406 269.804688 233.441406 C 260.320312 233.441406 253.574219 238.125 253.574219 244.460938 C 253.574219 252.039062 257.445312 253.503906 257.445312 265.242188 C 257.445312 274.652344 248.566406 283.890625 234.617188 283.890625 C 215.578125 283.890625 212.050781 264.082031 213.203125 259.089844 C 213.203125 263.289062 218.890625 268.066406 223.835938 268.066406 C 227.441406 268.066406 232.949219 266.355469 232.949219 257.996094 C 232.949219 253.296875 230.703125 251.152344 230.703125 246.496094 C 230.703125 226.300781 254.472656 221.375 261.992188 221.375 Z M 201.398438 370.261719 C 202.542969 368.269531 203.941406 366.472656 205.589844 364.875 C 207.242188 363.273438 209.082031 361.9375 211.113281 360.859375 C 224.910156 359.148438 240.242188 355.015625 256.414062 349.574219 C 238.984375 360.152344 220.734375 367.402344 201.398438 370.261719 Z M 187.445312 359.972656 C 185.703125 356.40625 182.644531 353.46875 178.820312 350.882812 C 182.636719 348.296875 185.699219 345.355469 187.445312 341.792969 C 189.1875 345.355469 192.25 348.296875 196.070312 350.882812 C 192.25 353.46875 189.191406 356.40625 187.445312 359.972656 Z M 187.445312 359.972656 " fill-opacity="1" fill-rule="evenodd"/></g><path fill="#ffd700" d="M 153.515625 24.214844 C 153.75 28.839844 146.957031 43.804688 112.269531 68.882812 C 115.070312 71.703125 118.957031 80.6875 109.34375 93.539062 C 124.914062 83.40625 161.921875 33.769531 153.515625 24.214844 Z M 289.085938 152.179688 C 290.875 150.230469 292.441406 148.113281 293.785156 145.832031 C 274.511719 147.324219 267.144531 136.039062 256.566406 138.898438 C 258.132812 137.058594 259.308594 134.160156 259.824219 128.203125 C 255.167969 136.195312 237.601562 133.53125 229.609375 149.597656 C 256.773438 136.484375 274.429688 156.542969 280.800781 154.140625 C 286.027344 166.257812 309.691406 167.621094 324.503906 191.859375 C 313.664062 168.246094 293.472656 152.417969 289.082031 152.183594 Z M 149.675781 339.464844 C 130.871094 345.972656 102.269531 341.269531 100.230469 334.84375 C 98.191406 328.417969 103.050781 321.128906 107.675781 308.828125 C 106.164062 309.753906 104.777344 310.84375 103.519531 312.09375 C 94.074219 307.589844 88.617188 302.925781 81.710938 292.789062 C 84.921875 303.835938 95.769531 314.546875 99.113281 317.648438 C 97.320312 320.597656 95.679688 323.628906 94.199219 326.746094 C 84.167969 323.613281 66.617188 310.34375 65.464844 301.042969 C 64.316406 291.746094 71.996094 286.207031 81.085938 283.804688 C 76.226562 282.082031 70.953125 282.914062 63.898438 285.476562 C 59.71875 248.699219 83.226562 221.375 108.617188 221.375 C 118.542969 221.375 139.910156 226.300781 139.910156 246.496094 C 139.910156 251.230469 137.664062 253.296875 137.664062 257.996094 C 137.664062 266.355469 143.167969 268.066406 146.777344 268.066406 C 151.722656 268.066406 157.410156 263.289062 157.410156 259.089844 C 158.5625 264.082031 155.035156 283.890625 135.992188 283.890625 C 122.042969 283.890625 113.167969 273.730469 113.167969 264.316406 C 113.167969 243.011719 124.917969 235.742188 109.457031 228.113281 C 111.546875 230.097656 113.636719 236.785156 110.5 240.023438 C 81.25 243.890625 84.382812 271.996094 88.140625 281.84375 C 90.335938 280.097656 94.933594 278.476562 95.980469 281.84375 C 97.023438 285.214844 101.414062 297.074219 109.457031 304.699219 C 112.90625 299.265625 130.039062 313.582031 138.820312 311.804688 C 138.820312 306.894531 160.550781 300.625 167.761719 291.199219 C 164.207031 287.9375 166.613281 284.011719 170.6875 275.445312 C 174.761719 266.878906 172.148438 262.070312 175.066406 260.472656 L 175.078125 260.472656 C 169.464844 256.515625 167.367188 243.5625 169.804688 233.339844 C 162.757812 229.785156 161.070312 220.171875 162.851562 212.546875 C 159.402344 208.578125 158.253906 199.160156 161.699219 192.917969 C 159.089844 190.953125 155.953125 182.875 158.671875 175.53125 C 148.433594 154.402344 150.519531 134.183594 163.058594 114.75 C 159.296875 95.320312 166.691406 82.125 171.546875 76.992188 C 171.15625 74.289062 172.800781 72.488281 176.09375 73.820312 C 177.347656 71.859375 178.992188 69.195312 183.695312 68.332031 C 183.851562 70.371094 183.222656 72.800781 181.34375 76.328125 C 181.96875 77.894531 183.539062 80.164062 187.457031 85.652344 C 191.375 80.164062 192.941406 77.894531 193.570312 76.328125 C 191.6875 72.800781 191.058594 70.371094 191.21875 68.332031 C 195.921875 69.195312 197.566406 71.859375 198.820312 73.820312 C 202.113281 72.488281 203.757812 74.289062 203.363281 76.992188 C 208.222656 82.125 215.613281 95.316406 211.855469 114.75 C 224.390625 134.179688 226.480469 154.402344 216.242188 175.53125 C 218.960938 182.871094 215.824219 190.949219 213.210938 192.917969 C 216.660156 199.160156 215.511719 208.578125 212.0625 212.546875 C 213.839844 220.171875 212.15625 229.785156 205.109375 233.339844 C 207.542969 243.542969 205.457031 256.46875 199.871094 260.449219 L 199.878906 260.449219 C 202.972656 262.460938 202.976562 266.902344 201.800781 276.308594 C 200.625 285.710938 199.214844 295.738281 195.0625 297.933594 C 190.910156 300.132812 185.1875 298.40625 171.632812 294.015625 C 172.980469 295.96875 174.679688 297.542969 176.730469 298.738281 C 174.777344 303.289062 167.828125 316.574219 150.632812 324.65625 C 167.1875 319.488281 176.222656 309.019531 181.914062 301.1875 C 184.960938 302.273438 188.089844 302.992188 191.304688 303.335938 C 186.992188 312.820312 163.015625 339.386719 158.390625 338.445312 C 153.769531 337.503906 149.144531 332.644531 140.210938 320.183594 C 140.347656 321.625 140.609375 323.039062 141 324.433594 C 137.5 325.078125 122.480469 327.496094 111.976562 323.503906 C 121.539062 328.511719 130.484375 331.019531 142.988281 329.5625 C 144.835938 333.125 147.070312 336.425781 149.691406 339.460938 Z M 192.488281 271.519531 C 195.753906 270.679688 197.476562 266.980469 197.835938 263.269531 C 191.40625 266.140625 184.601562 265.535156 177.566406 262.746094 C 179.117188 267.632812 182.109375 271.03125 187.570312 271.890625 C 187.273438 278.671875 184.792969 285.828125 181.328125 293.152344 C 187.894531 286.570312 192.316406 280.066406 192.484375 271.519531 Z M 187.445312 236.945312 C 193.976562 236.945312 196.117188 235.0625 199.09375 232.242188 L 175.796875 232.242188 C 178.773438 235.0625 180.914062 236.945312 187.445312 236.945312 Z M 187.445312 99.914062 C 182.351562 99.914062 172.007812 103.515625 167.539062 110.414062 C 176.316406 105.398438 180 103.597656 187.445312 103.597656 C 194.890625 103.597656 198.574219 105.398438 207.347656 110.414062 C 202.882812 103.519531 192.539062 99.914062 187.445312 99.914062 Z M 165.738281 182.507812 C 168.011719 190.578125 174.125 196.402344 187.445312 196.402344 C 200.765625 196.402344 206.875 190.578125 209.152344 182.507812 C 205.703125 187.992188 195.046875 191.207031 187.445312 191.207031 C 179.84375 191.207031 169.1875 187.992188 165.738281 182.507812 Z M 173.535156 208.601562 C 178.082031 210.445312 184.074219 210.601562 187.445312 210.601562 C 190.816406 210.601562 196.808594 210.445312 201.355469 208.601562 C 198.734375 206.683594 191.402344 205 187.445312 204.683594 C 183.488281 204.996094 176.160156 206.683594 173.535156 208.601562 Z M 122.195312 253.085938 C 114.046875 275.96875 131.496094 280.5625 142.046875 277.222656 C 125.019531 275.863281 122.617188 263.324219 122.195312 253.085938 Z M 68.910156 278.421875 C 76.015625 278.265625 69.746094 265.886719 78.050781 245.039062 C 72.722656 254.289062 61.804688 278.578125 68.910156 278.421875 Z M 208.851562 78.011719 C 213.789062 84.671875 213.851562 90.351562 215.730469 95.605469 C 228.109375 94.113281 234.300781 108.691406 235.320312 115.742188 C 240.570312 115.507812 246.445312 112.921875 248.796875 108.539062 C 249.425781 112.457031 248.253906 117.785156 246.210938 119.589844 C 261.648438 124.523438 292.289062 115.988281 294.171875 110.261719 C 296.617188 102.824219 295.582031 95.296875 285.082031 89.730469 C 304.828125 91.613281 302.945312 110.261719 295.738281 116.53125 C 301.226562 114.800781 310.789062 109.160156 310.789062 93.488281 C 310.789062 77.816406 303.425781 50.386719 269.730469 30.015625 C 236.03125 9.640625 219.574219 13.402344 212.679688 19.042969 C 237.960938 12.878906 274.894531 47.253906 274.894531 60.578125 C 274.894531 66.453125 264.550781 67.828125 264.550781 79.539062 C 264.550781 89.335938 270.121094 91.6875 274.425781 94.039062 C 264.003906 105.636719 256.011719 105.125 251.503906 104.929688 C 253.15625 103.746094 254.527344 102.296875 255.617188 100.582031 C 254.0625 100.289062 252.496094 100.117188 250.914062 100.070312 C 239.789062 88.945312 226.023438 82.859375 223.382812 82.464844 C 224.378906 80.898438 224.613281 77.816406 224.953125 75.386719 C 220.617188 76.773438 218.5 78.574219 215.207031 80.742188 C 214.449219 80.21875 213.222656 79.304688 208.851562 78.011719 Z M 272.546875 86.957031 C 270.144531 75.570312 295.742188 79.644531 301.59375 91.761719 C 289.34375 82.097656 277.117188 83.480469 272.546875 86.957031 Z M 289.941406 105.007812 C 293.515625 109.550781 279.832031 113.550781 269.644531 114.019531 C 280.929688 111.980469 286.179688 100.226562 289.941406 105.007812 Z M 79.148438 116.527344 C 73.664062 114.800781 64.101562 109.160156 64.101562 93.488281 C 64.101562 77.816406 71.464844 50.386719 105.160156 30.015625 C 138.859375 9.640625 155.316406 13.402344 162.210938 19.042969 C 136.925781 12.878906 99.992188 47.253906 99.992188 60.578125 C 99.992188 66.453125 110.335938 67.828125 110.335938 79.539062 C 110.335938 89.335938 104.769531 91.6875 100.460938 94.039062 C 110.886719 105.636719 118.878906 105.125 123.386719 104.929688 C 121.734375 103.746094 120.363281 102.296875 119.269531 100.582031 C 120.824219 100.289062 122.390625 100.117188 123.972656 100.070312 C 135.101562 88.945312 148.867188 82.859375 151.503906 82.464844 C 150.511719 80.898438 150.277344 77.816406 149.9375 75.386719 C 154.273438 76.773438 156.386719 78.574219 159.679688 80.742188 C 160.4375 80.21875 161.664062 79.304688 166.039062 78.011719 C 161.101562 84.671875 161.039062 90.355469 159.164062 95.605469 C 146.78125 94.113281 140.589844 108.691406 139.570312 115.742188 C 134.320312 115.507812 128.445312 112.921875 126.09375 108.539062 C 125.464844 112.457031 126.640625 117.785156 128.679688 119.589844 C 113.242188 124.523438 82.601562 115.988281 80.722656 110.261719 C 78.273438 102.824219 79.3125 95.296875 89.8125 89.734375 C 70.0625 91.613281 71.945312 110.261719 79.152344 116.53125 Z M 105.242188 114.015625 C 93.960938 111.980469 88.710938 100.226562 84.949219 105.003906 C 81.371094 109.546875 95.054688 113.546875 105.242188 114.015625 Z M 102.34375 86.957031 C 104.746094 75.566406 79.148438 79.640625 73.296875 91.757812 C 85.546875 82.097656 97.773438 83.480469 102.34375 86.957031 Z M 94.089844 154.136719 C 100.460938 156.539062 118.121094 136.480469 145.28125 149.59375 C 137.289062 133.527344 119.722656 136.191406 115.066406 128.199219 C 115.585938 134.15625 116.757812 137.054688 118.324219 138.894531 C 107.746094 136.035156 100.382812 147.320312 81.105469 145.832031 C 82.449219 148.109375 84.015625 150.226562 85.804688 152.179688 C 81.417969 152.414062 61.226562 168.242188 50.386719 191.855469 C 65.195312 167.617188 88.863281 166.257812 94.085938 154.136719 Z M 104.222656 172.632812 C 115.195312 172.945312 132.386719 158.238281 150.199219 169.078125 C 144.867188 156.121094 130.449219 158.632812 122.925781 152.363281 C 123.761719 155.390625 123.867188 156.855469 125.328125 158.421875 C 118.433594 156.4375 99.304688 166.355469 93.042969 164.167969 C 93.878906 166.597656 95.09375 168.164062 97.089844 168.832031 C 92.625 169.8125 72.40625 186.421875 65.199219 205.230469 C 75.226562 186.738281 106.824219 181.785156 104.222656 172.632812 Z M 132.332031 173.78125 C 132.332031 175.648438 132.394531 177.371094 133.257812 178.390625 C 125.332031 177.28125 118.328125 184.910156 109.917969 183.238281 C 112.320312 186.058594 113.054688 187.050781 114.621094 187.519531 C 108.617188 188.355469 94.050781 201.484375 84.949219 219.023438 C 95.449219 203.898438 114.429688 201.996094 117.230469 191.855469 C 129.457031 193.398438 133.140625 179.136719 153.4375 185.273438 C 150.195312 177.125 142.152344 181.929688 132.332031 173.78125 Z M 116.605469 206.121094 C 127.730469 219.023438 140.652344 194.113281 156.152344 196.664062 C 151.136719 187.886719 136.039062 197.65625 129.558594 194.941406 C 131.230469 197.292969 132.222656 198.652344 134 198.9375 C 128.253906 200.480469 125.328125 207.320312 116.605469 206.121094 Z M 245.328125 194.941406 C 243.65625 197.292969 242.664062 198.652344 240.886719 198.9375 C 246.632812 200.480469 249.558594 207.320312 258.28125 206.121094 C 247.15625 219.023438 234.234375 194.113281 218.734375 196.664062 C 223.75 187.886719 238.847656 197.65625 245.328125 194.941406 Z M 289.941406 219.023438 C 279.441406 203.898438 260.460938 201.996094 257.65625 191.859375 C 245.429688 193.398438 241.75 179.136719 221.453125 185.277344 C 224.691406 177.125 232.738281 181.933594 242.558594 173.78125 C 242.558594 175.652344 242.492188 177.375 241.632812 178.394531 C 249.558594 177.285156 256.558594 184.910156 264.972656 183.238281 C 262.570312 186.058594 261.835938 187.054688 260.269531 187.523438 C 266.273438 188.359375 280.835938 201.484375 289.941406 219.023438 Z M 309.691406 205.234375 C 299.660156 186.738281 268.0625 181.785156 270.664062 172.632812 C 259.695312 172.945312 242.503906 158.242188 224.691406 169.082031 C 230.019531 156.125 244.441406 158.632812 251.960938 152.363281 C 251.125 155.394531 251.023438 156.855469 249.5625 158.425781 C 256.457031 156.4375 275.585938 166.359375 281.847656 164.171875 C 281.011719 166.597656 279.796875 168.167969 277.796875 168.835938 C 282.265625 169.816406 302.480469 186.425781 309.691406 205.234375 Z M 265.546875 93.539062 C 255.933594 80.6875 259.820312 71.707031 262.621094 68.882812 C 227.933594 43.804688 221.140625 28.839844 221.375 24.214844 C 212.972656 33.769531 249.976562 83.40625 265.546875 93.539062 Z M 187.445312 128.519531 C 183.921875 135.917969 177.769531 141.847656 170 146.878906 C 177.769531 151.910156 183.921875 157.84375 187.445312 165.238281 C 190.96875 157.84375 197.121094 151.910156 204.890625 146.878906 C 197.121094 141.84375 190.96875 135.917969 187.445312 128.519531 Z M 187.445312 128.519531 " fill-opacity="1" fill-rule="evenodd"/></svg>