<svg xmlns="http://www.w3.org/2000/svg" xmlns:xlink="http://www.w3.org/1999/xlink" width="500" zoomAndPan="magnify" viewBox="0 0 375 374.999991" height="500" preserveAspectRatio="xMidYMid meet" version="1.0"><defs><clipPath id="0e538ebb66"><path d="M 0 347.007812 L 24.980469 347.007812 L 24.980469 375 L 0 375 Z M 0 347.007812 " clip-rule="nonzero"/></clipPath></defs><g clip-path="url(#0e538ebb66)"><path fill="#000000" d="M -22.941406 473.195312 C -23.179688 476.359375 -18.316406 482.542969 -16.257812 485.230469 C -15.222656 486.578125 -16.757812 487.257812 -17.523438 486.222656 C -21.777344 480.429688 -24.214844 475.710938 -34.160156 468.925781 C -47.308594 459.960938 -59.359375 453.566406 -87.867188 452.414062 C -98.292969 451.996094 -96.5 455.117188 -102.351562 459.492188 C -103.222656 460.136719 -104.320312 459.253906 -103.195312 458.144531 C -97.941406 452.980469 -96.582031 452.050781 -96.457031 449.859375 C -95.949219 440.527344 -106.222656 414.007812 -114.5 412.929688 C -118.066406 412.46875 -123.171875 413.324219 -124.300781 413.183594 C -124.480469 413.167969 -124.636719 413.097656 -124.765625 412.972656 C -124.894531 412.84375 -124.96875 412.691406 -124.984375 412.511719 C -125.003906 412.332031 -124.960938 412.164062 -124.859375 412.015625 C -124.757812 411.863281 -124.621094 411.765625 -124.449219 411.714844 C -124.125 411.609375 -118.242188 411.277344 -116.617188 411.152344 C -116.007812 411.101562 -114.585938 410.515625 -113.480469 409.238281 C -113.234375 408.953125 -113.128906 408.367188 -112.617188 407.109375 C -107.132812 393.507812 -105.527344 362.582031 -109.703125 358.847656 C -117.078125 352.261719 -118.214844 351.128906 -117.335938 350.378906 C -116.308594 349.492188 -115.867188 351.542969 -112.265625 354.304688 C -106.289062 358.886719 -103.171875 359.292969 -93.179688 359.988281 C -79.449219 360.933594 -76.027344 360.875 -69.226562 360.554688 C -52.261719 359.761719 -37.132812 357.578125 -32.59375 356.667969 C -27.667969 355.679688 -27.144531 349.835938 -25.953125 347.550781 C -25.875 347.371094 -25.746094 347.242188 -25.570312 347.160156 C -25.390625 347.082031 -25.210938 347.070312 -25.023438 347.132812 C -24.839844 347.191406 -24.699219 347.308594 -24.601562 347.480469 C -24.507812 347.648438 -24.480469 347.828125 -24.523438 348.019531 C -24.585938 348.375 -26.738281 354.042969 -26.746094 354.054688 C -28.988281 359.582031 -16.929688 377.820312 6.765625 380.773438 C 9.261719 381.085938 18.792969 376.609375 19.921875 376.671875 C 20.253906 376.699219 20.46875 376.871094 20.570312 377.1875 C 20.671875 377.503906 20.59375 377.769531 20.34375 377.984375 C 18.0625 379.84375 10.945312 379.230469 7.042969 387.867188 C -0.582031 404.710938 9.742188 428.902344 18.949219 434.03125 C 23.835938 436.757812 23.976562 436.339844 24.542969 436.875 C 24.976562 437.28125 24.765625 438.203125 24.113281 438.292969 C 22.789062 438.480469 19.726562 435.226562 9.964844 433.609375 C 4.960938 432.789062 -20.554688 441.699219 -22.941406 473.195312 Z M -39.300781 438.832031 C -39.511719 439.34375 -43.324219 426.578125 -46.15625 423.503906 C -49.359375 420.015625 -61.453125 421.355469 -65.007812 424.632812 L -71.894531 431.003906 C -73.546875 432.535156 -64.578125 426.851562 -46.160156 434.488281 C -41.421875 436.453125 -39.695312 438.972656 -39.300781 438.832031 Z M -93.207031 371.019531 C -93.207031 371.003906 -81.789062 381.300781 -80.742188 381.769531 C -79.410156 382.371094 -78.148438 382.96875 -76.933594 382.941406 C -75.722656 382.914062 -66.253906 383.296875 -57.519531 380.941406 C -44.058594 377.300781 -33.757812 368.347656 -33.570312 366.105469 C -44.898438 369.6875 -57.921875 372.042969 -69.269531 372.992188 C -83.644531 374.195312 -87.902344 372.34375 -93.21875 371.019531 Z M -93.507812 451.0625 C -92.714844 451.027344 -89.464844 450.507812 -79.246094 451.5625 C -60.15625 453.535156 -51.851562 456.832031 -42.8125 461.722656 C -30.195312 468.554688 -25.449219 473.8125 -26.15625 472.019531 C -30.617188 460.726562 -30.414062 460.761719 -31.859375 459.238281 C -31.875 459.21875 -40.753906 452.597656 -47.09375 448.871094 C -66.777344 437.292969 -84.085938 442.3125 -86.265625 444.3125 C -86.371094 444.40625 -93.015625 450.511719 -93.519531 451.0625 Z M -106.320312 361.710938 C -106.074219 364.449219 -105.75 374.851562 -106.140625 381.871094 C -106.527344 389.152344 -109.769531 403.949219 -111.113281 407.21875 C -111.292969 407.644531 -112.339844 410.488281 -112.320312 410.828125 C -111.40625 410.871094 -104.59375 410.617188 -104.613281 410.621094 C -102.824219 410.566406 -100.113281 408.996094 -98.308594 407.292969 C -97.226562 406.265625 -95.023438 401.394531 -94.433594 399.964844 C -89.695312 388.464844 -91.421875 382.65625 -92.523438 377.625 C -92.78125 376.457031 -93.765625 372.558594 -94.675781 371.78125 C -97.875 369.027344 -105.691406 362.183594 -106.320312 361.710938 Z M -106.300781 359.652344 C -106.410156 359.847656 -106.367188 359.714844 -106.203125 359.859375 C -96.382812 368.378906 -92.933594 375.265625 -57.402344 370.082031 C -52.296875 369.335938 -38.597656 366.605469 -33.867188 364.613281 C -31.71875 363.707031 -31.382812 361.851562 -29.714844 357.730469 C -29.6875 357.640625 -29.664062 357.546875 -29.648438 357.449219 C -50.582031 362.136719 -90.5 364.21875 -106.300781 359.652344 Z M 6.679688 383.722656 C 6.011719 384 -6.859375 389.894531 -6.835938 389.882812 C -7.523438 390.195312 -16.910156 404.898438 -9.851562 418.097656 C -8.238281 421.117188 -5.773438 423.738281 -5.324219 424.269531 C -4.289062 425.492188 -4.171875 425.304688 11.554688 430.957031 C 12.933594 431.453125 10.742188 430.488281 8.386719 425.136719 C 6.105469 419.941406 3.445312 415.289062 2.863281 403.730469 C 2.316406 392.761719 6.605469 384.148438 6.679688 383.722656 Z M -24.929688 471.15625 C -24.699219 470.503906 -24.875 470.335938 -24.148438 468.210938 C -23.261719 465.621094 -23.261719 464.648438 -22.414062 461.410156 C -19.472656 450.058594 -9.265625 437.597656 4.496094 432.941406 C 7.550781 431.90625 9.492188 432.277344 9.851562 431.898438 C 9.605469 431.804688 -3.199219 427.160156 -3.914062 426.925781 C -4.902344 426.59375 -4.492188 426.6875 -8.265625 427.59375 C -22.722656 431.050781 -33.109375 450.589844 -28.9375 461.089844 C -24.523438 472.203125 -25.269531 470.398438 -24.929688 471.15625 Z M -32.113281 457.257812 C -32.042969 457.179688 -32.015625 457.257812 -32.207031 456.761719 C -37.707031 442.878906 -37.367188 443.339844 -38.5625 441.816406 C -44.105469 434.75 -61.585938 429.125 -74.121094 433.402344 C -74.796875 433.632812 -74.449219 433.351562 -82.78125 441.078125 C -82.976562 441.253906 -83.199219 441.488281 -82.941406 441.433594 C -58.273438 435.3125 -40.484375 451.738281 -32.113281 457.257812 Z M -7.222656 425.828125 C -7.195312 425.628906 -6.042969 426.214844 -22.492188 420.203125 C -23.949219 419.671875 -26.449219 420.988281 -27.671875 421.917969 C -34.113281 426.800781 -37.367188 436.703125 -37.007812 438.800781 C -36.617188 441.109375 -36.398438 442.222656 -35.5 444.503906 C -31.070312 455.78125 -31.441406 454.8125 -31.3125 454.875 C -30.113281 441.171875 -20.300781 429.746094 -10.113281 426.589844 C -9.46875 426.394531 -8.746094 426.214844 -7.222656 425.832031 Z M -28.25 358.050781 C -28.714844 359.050781 -29.457031 361.035156 -30.378906 363.1875 C -30.867188 364.324219 -31.15625 366.265625 -30.78125 367.199219 C -30.011719 369.136719 -28.300781 374.65625 -24.191406 379.804688 C -19.863281 385.230469 -12.554688 390.929688 -6.25 388.035156 C 7.160156 381.875 5.320312 382.773438 5.929688 382.429688 C 4.105469 381.042969 -19.347656 379.753906 -28.25 358.050781 Z M -100.316406 428.730469 C -94.371094 443.773438 -95.128906 449.664062 -94.980469 450.355469 C -86.613281 443.183594 -86.613281 442.480469 -86.75 441.390625 C -86.910156 440.097656 -87.324219 431.023438 -91.164062 423.703125 C -94.390625 417.554688 -99.878906 411.871094 -102.027344 412 C -119.179688 413.054688 -108.234375 408.679688 -100.316406 428.730469 Z M -98.527344 410.382812 C -97.839844 410.425781 -95.941406 410.300781 -92.875 410.234375 C -92.023438 410.214844 -90.582031 410.011719 -89.847656 409.539062 C -83.722656 405.585938 -79.363281 398.296875 -78.71875 392.152344 C -77.929688 384.652344 -77.476562 386.730469 -91.515625 374.535156 C -93.390625 372.902344 -88 380.585938 -90.519531 392.011719 C -93.140625 403.894531 -98.371094 410.101562 -98.527344 410.382812 Z M -9.496094 391.207031 C -9.578125 391.105469 -8.855469 390.792969 -15.976562 394.058594 C -18.625 395.273438 -21.089844 396.289062 -23.414062 398.777344 C -27.8125 403.503906 -27.550781 412.0625 -24.8125 417.398438 C -24.4375 418.121094 -24.078125 418.082031 -20.410156 419.40625 C -6.203125 424.539062 -7.394531 424.214844 -7.75 423.738281 C -14.628906 414.53125 -16.75 406.351562 -9.496094 391.214844 Z M -11.464844 390.402344 C -11.789062 389.988281 -14.703125 390.109375 -19.597656 386.363281 C -28.640625 379.441406 -31.175781 369.796875 -32.1875 367.699219 C -32.394531 368.066406 -36.265625 377.664062 -37.578125 380.839844 C -38.285156 382.535156 -33.941406 395.273438 -24.773438 395.417969 C -21.847656 395.457031 -23.5 395.984375 -11.464844 390.402344 Z M -77.601562 384.382812 C -77.769531 384.632812 -72.382812 389.300781 -68.582031 390.390625 C -64.214844 391.644531 -59.582031 392.140625 -55.222656 391.019531 C -50.574219 389.824219 -44.78125 387.394531 -41.316406 383.71875 C -39.066406 381.332031 -35.210938 371.390625 -34.890625 370.328125 C -48.542969 381.546875 -59.125 384.382812 -77.601562 384.382812 Z M -98.703125 411.921875 C -82.984375 426.054688 -86.480469 442.53125 -84.9375 441.101562 C -77.863281 434.566406 -76.085938 433.867188 -76.523438 428.296875 C -77.234375 419.386719 -85.9375 412.164062 -90.382812 411.800781 C -93.207031 411.570312 -98.703125 411.921875 -98.714844 411.921875 Z M -76.960938 387.191406 C -77.21875 389.230469 -76.636719 392.585938 -78.792969 398.082031 C -81.03125 403.792969 -83.933594 406.597656 -87.957031 410.03125 C -87.941406 410.03125 -76.550781 409.980469 -75.5 409.285156 C -70.535156 406.003906 -67.582031 395.304688 -71.820312 391.628906 C -73.417969 390.257812 -76.796875 387.335938 -76.972656 387.191406 Z M -38.4375 437.035156 C -38.234375 437.003906 -36.011719 424.285156 -25.585938 419.105469 C -26.585938 418.710938 -35.21875 415.617188 -37.089844 414.925781 C -37.828125 414.652344 -44.597656 418.050781 -43.53125 424.050781 C -43.449219 424.523438 -38.714844 436.441406 -38.4375 437.035156 Z M -69.1875 392.007812 C -58.832031 401.003906 -59.382812 400.742188 -58.371094 400.886719 C -51.917969 401.847656 -45.808594 397.15625 -45.378906 396.105469 C -40.71875 384.632812 -41.363281 386.324219 -41.144531 385.628906 C -41.78125 386.089844 -42.5625 387.050781 -45.382812 388.636719 C -61.21875 397.597656 -71.730469 389.800781 -69.1875 392.007812 Z M -86.644531 411.570312 C -73.90625 419.703125 -75.324219 428.070312 -75.035156 430.835938 C -65.785156 423.585938 -68.421875 410.984375 -75.960938 411.164062 C -75.984375 411.164062 -86.867188 411.433594 -86.644531 411.570312 Z M -38.902344 384.125 C -39.375 385.1875 -43.742188 395.972656 -44.578125 397.972656 C -44.703125 398.222656 -44.714844 398.472656 -44.609375 398.730469 C -44.488281 399.046875 -44.347656 399.355469 -44.1875 399.652344 C -43.234375 401.25 -41.414062 402.453125 -40.417969 402.796875 C -38.960938 403.300781 -39.089844 403.035156 -32.128906 399.851562 C -26.15625 397.125 -26.59375 397.355469 -26.492188 397.191406 C -33.710938 395.257812 -36.453125 390.464844 -38.902344 384.125 Z M -25.292969 398.429688 C -25.40625 398.328125 -38.988281 404.433594 -39.101562 404.824219 C -40.230469 408.730469 -37.914062 413.089844 -36.085938 413.746094 C -25.636719 417.507812 -27.136719 417 -26.570312 417.144531 C -28.5 411.949219 -28.605469 407.394531 -27.6875 403.847656 C -26.921875 400.875 -26.140625 399.832031 -25.292969 398.429688 Z M -68.488281 394.558594 C -68.769531 395.066406 -67.320312 398.511719 -70.246094 405.089844 C -71.640625 408.226562 -73.042969 409.085938 -73.300781 409.515625 C -73.148438 409.609375 -73.582031 409.566406 -65.558594 409.324219 C -63.078125 409.246094 -59.160156 402.625 -60.332031 401.613281 C -62.917969 399.382812 -68.332031 394.683594 -68.488281 394.558594 Z M -60.996094 421 C -57.941406 420.273438 -55.269531 419.75 -51.917969 420.054688 C -48.195312 420.394531 -47.046875 421.160156 -46.277344 421.332031 C -46.445312 420.714844 -50.144531 411.417969 -50.355469 411.101562 C -51.144531 411.707031 -60.667969 420.554688 -60.996094 421 Z M -69.738281 426.914062 C -69.636719 427.054688 -65.105469 422.828125 -64.644531 421.941406 C -62.382812 417.550781 -62.175781 410.496094 -67.074219 410.828125 C -74.121094 411.308594 -70.515625 409.984375 -68.820312 414.234375 C -66.984375 418.828125 -67.445312 422.738281 -69.738281 426.914062 Z M -62.164062 420.003906 C -61.484375 419.40625 -52.210938 410.808594 -52.191406 410.789062 C -51.648438 410.28125 -51.785156 410.332031 -52.28125 410.347656 C -63.792969 410.714844 -62.539062 410.691406 -62.902344 410.757812 C -61.707031 413.757812 -61.15625 415.351562 -62.164062 420.003906 Z M -39.390625 414.183594 C -39.480469 414.070312 -48.699219 410.695312 -48.796875 410.785156 C -48.71875 411.183594 -45.132812 420.234375 -44.910156 420.582031 C -43.867188 417.746094 -41.941406 415.691406 -39.390625 414.183594 Z M -57.046875 402.484375 C -56.628906 402.953125 -50.757812 408.03125 -50.453125 408.210938 C -50.144531 408.132812 -46.730469 399.382812 -46.703125 399.265625 C -49.941406 401.328125 -53.167969 402.617188 -57.046875 402.484375 Z M -62.367188 409.210938 C -51.066406 408.835938 -52.640625 408.902344 -52.101562 408.839844 C -52.277344 408.582031 -51.390625 409.382812 -58.726562 403.011719 C -59.453125 405.507812 -60.632812 407.300781 -62.375 409.210938 Z M -48.789062 409.140625 C -48.296875 409.347656 -49.597656 408.875 -39.8125 412.402344 C -39.15625 412.636719 -39.457031 412.527344 -39.988281 411.140625 C -41.261719 407.835938 -40.738281 406.113281 -40.785156 405.457031 C -41.308594 405.613281 -48.492188 408.917969 -48.796875 409.140625 Z M -41.273438 404.035156 C -45.300781 402.035156 -45.316406 399.816406 -45.617188 400.554688 C -48.585938 407.816406 -48.234375 406.886719 -48.253906 407.230469 C -45.933594 406.164062 -43.65625 405.132812 -41.277344 404.035156 Z M -41.273438 404.035156 " fill-opacity="1" fill-rule="nonzero"/></g><path fill="#ffffff" d="M 269.324219 26.878906 C 271.089844 32.726562 272.464844 38.664062 273.445312 44.691406 C 274.429688 50.71875 275.011719 56.785156 275.191406 62.890625 C 275.375 68.996094 275.15625 75.089844 274.535156 81.164062 C 273.917969 87.242188 272.898438 93.25 271.488281 99.191406 C 280.035156 83.730469 285.410156 67.769531 282.976562 50.578125 C 358.261719 103.398438 364.722656 227.097656 290.410156 288.484375 C 289.636719 269.070312 282.703125 255.679688 271.949219 246.019531 C 286.421875 271.960938 283.207031 296.769531 266.398438 320.710938 C 269.691406 318.949219 272.921875 317.082031 276.09375 315.105469 C 279.261719 313.125 282.359375 311.046875 285.390625 308.863281 C 288.417969 306.675781 291.371094 304.394531 294.25 302.011719 C 297.125 299.628906 299.917969 297.15625 302.628906 294.585938 C 305.34375 292.019531 307.964844 289.359375 310.496094 286.617188 C 313.03125 283.871094 315.46875 281.046875 317.816406 278.140625 C 320.160156 275.230469 322.40625 272.25 324.550781 269.191406 C 326.695312 266.136719 328.734375 263.007812 330.671875 259.816406 C 332.605469 256.621094 334.433594 253.367188 336.152344 250.050781 C 337.871094 246.734375 339.476562 243.363281 340.96875 239.941406 C 342.460938 236.515625 343.835938 233.046875 345.097656 229.53125 C 346.359375 226.015625 347.5 222.460938 348.523438 218.871094 C 349.546875 215.277344 350.449219 211.65625 351.230469 208.003906 C 352.007812 204.351562 352.667969 200.675781 353.203125 196.980469 C 353.738281 193.28125 354.148438 189.574219 354.433594 185.847656 C 354.722656 182.125 354.882812 178.394531 354.921875 174.660156 C 354.957031 170.925781 354.871094 167.195312 354.65625 163.464844 C 354.445312 159.738281 354.109375 156.019531 353.648438 152.3125 C 353.1875 148.605469 352.601562 144.917969 351.894531 141.253906 C 351.1875 137.585938 350.355469 133.945312 349.40625 130.335938 C 348.453125 126.722656 347.382812 123.148438 346.191406 119.605469 C 345.003906 116.066406 343.695312 112.570312 342.269531 109.117188 C 340.847656 105.664062 339.308594 102.261719 337.65625 98.914062 C 336.003906 95.5625 334.242188 92.273438 332.371094 89.042969 C 330.5 85.808594 328.523438 82.644531 326.4375 79.542969 C 324.355469 76.445312 322.167969 73.417969 319.882812 70.464844 C 317.597656 67.511719 315.214844 64.636719 312.738281 61.84375 C 310.257812 59.046875 307.6875 56.339844 305.03125 53.71875 C 302.371094 51.097656 299.625 48.566406 296.796875 46.125 C 293.96875 43.6875 291.0625 41.347656 288.074219 39.101562 C 285.089844 36.859375 282.035156 34.714844 278.90625 32.675781 C 275.777344 30.636719 272.582031 28.703125 269.324219 26.878906 Z M 187.496094 26.335938 C 182.140625 37.589844 172.777344 46.613281 160.949219 54.269531 C 172.777344 61.925781 182.140625 70.953125 187.496094 82.207031 C 192.851562 70.953125 202.214844 61.925781 214.042969 54.269531 C 202.214844 46.613281 192.855469 37.585938 187.496094 26.335938 Z M 187.496094 64.792969 C 185.480469 60.664062 181.933594 57.261719 177.519531 54.269531 C 181.933594 51.277344 185.480469 47.875 187.496094 43.75 C 189.511719 47.875 193.058594 51.277344 197.472656 54.269531 C 193.058594 57.269531 189.511719 60.664062 187.496094 64.792969 Z M 146.484375 12.269531 C 141.382812 13.734375 136.457031 15.648438 131.707031 18.011719 C 129.519531 21.261719 128.402344 25.625 127.605469 30.320312 C 130.882812 28.164062 134.390625 26.472656 138.117188 25.242188 C 140.152344 20.433594 142.941406 16.109375 146.484375 12.269531 Z M 141.253906 91.605469 C 158.585938 116.53125 175.101562 113.65625 181.664062 116.53125 C 175.921875 108.015625 159.203125 110.988281 141.253906 91.605469 Z M 140.347656 33.335938 C 148.734375 15.148438 166.457031 2.6875 187.484375 2.675781 L 187.507812 2.675781 C 208.539062 2.6875 226.257812 15.144531 234.648438 33.332031 C 235.730469 35.675781 240.101562 36.585938 243.585938 36.652344 C 242.179688 37.894531 241.078125 39.367188 240.285156 41.066406 C 239.492188 42.769531 239.070312 44.558594 239.023438 46.433594 C 238.90625 48.996094 239.078125 51.625 239.078125 54.269531 C 239.074219 55.78125 239.007812 57.289062 238.875 58.792969 C 238.742188 60.300781 238.546875 61.796875 238.28125 63.285156 C 238.015625 64.773438 237.6875 66.246094 237.292969 67.703125 C 236.902344 69.164062 236.445312 70.601562 235.921875 72.023438 C 235.402344 73.441406 234.820312 74.835938 234.179688 76.203125 C 233.535156 77.570312 232.835938 78.90625 232.074219 80.214844 C 231.316406 81.519531 230.5 82.792969 229.628906 84.027344 C 228.753906 85.261719 227.832031 86.453125 226.855469 87.609375 C 225.878906 88.761719 224.851562 89.871094 223.777344 90.933594 C 222.703125 91.996094 221.585938 93.011719 220.421875 93.976562 C 219.257812 94.941406 218.054688 95.851562 216.8125 96.710938 C 215.570312 97.570312 214.292969 98.375 212.976562 99.121094 C 211.664062 99.867188 210.320312 100.558594 208.945312 101.1875 C 207.570312 101.816406 206.171875 102.382812 204.746094 102.886719 C 203.324219 103.394531 201.878906 103.835938 200.417969 104.214844 C 198.953125 104.59375 197.476562 104.910156 195.984375 105.160156 L 196 105.160156 C 192.617188 105.839844 187.863281 112.585938 187.507812 114.933594 L 187.507812 115.191406 C 187.507812 115.132812 187.503906 115.078125 187.496094 115.019531 C 187.488281 115.078125 187.484375 115.132812 187.484375 115.191406 L 187.484375 114.933594 C 187.125 112.585938 182.375 105.839844 178.992188 105.160156 L 179.007812 105.160156 C 177.515625 104.910156 176.039062 104.59375 174.574219 104.214844 C 173.113281 103.835938 171.667969 103.394531 170.246094 102.886719 C 168.820312 102.382812 167.421875 101.816406 166.046875 101.1875 C 164.671875 100.558594 163.328125 99.871094 162.015625 99.121094 C 160.699219 98.375 159.421875 97.570312 158.179688 96.710938 C 156.9375 95.851562 155.734375 94.941406 154.570312 93.976562 C 153.40625 93.011719 152.289062 91.996094 151.214844 90.933594 C 150.140625 89.871094 149.113281 88.761719 148.136719 87.609375 C 147.160156 86.453125 146.238281 85.261719 145.363281 84.027344 C 144.492188 82.792969 143.675781 81.519531 142.917969 80.214844 C 142.15625 78.90625 141.457031 77.570312 140.8125 76.203125 C 140.171875 74.835938 139.589844 73.441406 139.070312 72.023438 C 138.546875 70.601562 138.089844 69.164062 137.699219 67.703125 C 137.304688 66.246094 136.976562 64.773438 136.710938 63.285156 C 136.445312 61.796875 136.246094 60.300781 136.117188 58.792969 C 135.984375 57.289062 135.917969 55.78125 135.914062 54.269531 C 135.914062 51.625 136.085938 48.996094 135.96875 46.433594 C 135.921875 44.558594 135.5 42.769531 134.707031 41.066406 C 133.914062 39.367188 132.8125 37.894531 131.40625 36.652344 C 134.890625 36.585938 139.261719 35.675781 140.34375 33.332031 Z M 187.496094 11.859375 C 188.886719 11.859375 190.269531 11.925781 191.652344 12.0625 C 193.035156 12.199219 194.40625 12.402344 195.769531 12.671875 C 197.132812 12.941406 198.480469 13.28125 199.808594 13.683594 C 201.136719 14.085938 202.445312 14.550781 203.726562 15.085938 C 205.011719 15.617188 206.265625 16.207031 207.492188 16.863281 C 208.714844 17.519531 209.90625 18.230469 211.0625 19.003906 C 212.214844 19.773438 213.332031 20.601562 214.40625 21.480469 C 215.476562 22.363281 216.507812 23.292969 217.488281 24.277344 C 218.472656 25.257812 219.402344 26.285156 220.285156 27.359375 C 221.164062 28.433594 221.992188 29.546875 222.765625 30.703125 C 223.535156 31.855469 224.25 33.046875 224.90625 34.273438 C 225.558594 35.496094 226.152344 36.75 226.683594 38.035156 C 227.214844 39.316406 227.683594 40.625 228.085938 41.953125 C 228.492188 43.28125 228.828125 44.628906 229.097656 45.992188 C 229.371094 47.351562 229.574219 48.726562 229.710938 50.109375 C 229.847656 51.488281 229.914062 52.875 229.914062 54.265625 C 229.914062 55.652344 229.847656 57.039062 229.710938 58.421875 C 229.574219 59.804688 229.371094 61.175781 229.101562 62.539062 C 228.832031 63.902344 228.492188 65.246094 228.089844 66.578125 C 227.6875 67.90625 227.21875 69.214844 226.6875 70.496094 C 226.15625 71.78125 225.5625 73.035156 224.910156 74.257812 C 224.253906 75.484375 223.542969 76.675781 222.769531 77.828125 C 222 78.984375 221.171875 80.097656 220.289062 81.171875 C 219.410156 82.246094 218.476562 83.273438 217.496094 84.257812 C 216.515625 85.238281 215.484375 86.171875 214.410156 87.050781 C 213.339844 87.933594 212.222656 88.761719 211.070312 89.53125 C 209.914062 90.304688 208.722656 91.015625 207.5 91.671875 C 206.273438 92.328125 205.019531 92.921875 203.738281 93.453125 C 202.453125 93.984375 201.148438 94.453125 199.816406 94.855469 C 198.488281 95.257812 197.144531 95.59375 195.78125 95.867188 C 194.417969 96.136719 193.046875 96.339844 191.664062 96.476562 C 190.28125 96.613281 188.894531 96.683594 187.507812 96.683594 C 186.117188 96.683594 184.730469 96.613281 183.347656 96.476562 C 181.964844 96.339844 180.59375 96.136719 179.230469 95.867188 C 177.867188 95.597656 176.523438 95.257812 175.195312 94.855469 C 173.863281 94.453125 172.558594 93.984375 171.273438 93.453125 C 169.992188 92.921875 168.738281 92.328125 167.511719 91.675781 C 166.289062 91.019531 165.097656 90.308594 163.941406 89.535156 C 162.785156 88.761719 161.671875 87.9375 160.597656 87.054688 C 159.523438 86.175781 158.496094 85.242188 157.515625 84.261719 C 156.53125 83.277344 155.601562 82.25 154.71875 81.175781 C 153.839844 80.101562 153.011719 78.988281 152.238281 77.832031 C 151.46875 76.679688 150.753906 75.488281 150.101562 74.261719 C 149.445312 73.039062 148.851562 71.785156 148.320312 70.5 C 147.789062 69.21875 147.320312 67.910156 146.917969 66.582031 C 146.515625 65.253906 146.175781 63.90625 145.90625 62.542969 C 145.636719 61.183594 145.433594 59.808594 145.296875 58.425781 C 145.160156 57.042969 145.089844 55.660156 145.089844 54.269531 C 145.089844 52.882812 145.160156 51.496094 145.296875 50.113281 C 145.433594 48.730469 145.636719 47.359375 145.90625 45.996094 C 146.175781 44.632812 146.515625 43.289062 146.917969 41.960938 C 147.320312 40.632812 147.789062 39.324219 148.320312 38.042969 C 148.851562 36.757812 149.445312 35.503906 150.097656 34.28125 C 150.753906 33.054688 151.464844 31.863281 152.238281 30.710938 C 153.007812 29.554688 153.835938 28.441406 154.71875 27.367188 C 155.597656 26.292969 156.53125 25.265625 157.511719 24.285156 C 158.492188 23.300781 159.519531 22.371094 160.59375 21.488281 C 161.667969 20.605469 162.78125 19.78125 163.9375 19.007812 C 165.09375 18.238281 166.28125 17.523438 167.507812 16.867188 C 168.730469 16.214844 169.984375 15.621094 171.269531 15.089844 C 172.550781 14.558594 173.855469 14.089844 175.1875 13.6875 C 176.515625 13.28125 177.859375 12.945312 179.222656 12.675781 C 180.585938 12.402344 181.957031 12.199219 183.339844 12.0625 C 184.722656 11.925781 186.105469 11.859375 187.496094 11.859375 Z M 62.167969 187.605469 C 60.433594 186.597656 59.261719 184.519531 58.503906 181.65625 C 57.746094 184.519531 56.578125 186.597656 54.839844 187.605469 C 55.378906 187.898438 55.871094 188.257812 56.316406 188.679688 C 56.761719 189.101562 57.144531 189.570312 57.464844 190.09375 C 57.785156 190.617188 58.035156 191.171875 58.210938 191.757812 C 58.386719 192.34375 58.484375 192.945312 58.503906 193.554688 C 58.523438 192.945312 58.621094 192.34375 58.796875 191.757812 C 58.972656 191.171875 59.222656 190.617188 59.542969 190.09375 C 59.867188 189.570312 60.25 189.101562 60.695312 188.679688 C 61.140625 188.257812 61.628906 187.898438 62.167969 187.605469 Z M 85.71875 203.148438 C 81.574219 200.738281 78.777344 195.773438 76.96875 188.941406 C 75.160156 195.773438 72.363281 200.738281 68.222656 203.148438 C 73.640625 206.113281 76.398438 210.964844 76.96875 217.351562 C 77.539062 210.960938 80.300781 206.109375 85.71875 203.148438 Z M 78.886719 269.457031 C 65.347656 256.125 38.886719 216.328125 41.964844 166.480469 C 45.042969 196.328125 51.09375 212.632812 57.964844 227.507812 C 56.835938 221.457031 59.296875 218.328125 62.835938 218.328125 C 71.351562 219.558594 60.734375 247.867188 76.578125 264.175781 C 75.09375 244.738281 86.886719 212.839844 101.761719 212.839844 C 116.632812 212.839844 113.96875 230.070312 104.222656 230.070312 C 107.40625 223.40625 84.941406 211.710938 78.890625 269.457031 Z M 93.8125 125.398438 C 108.589844 125.324219 106.351562 107.375 98.222656 107.375 C 99.144531 110.21875 97.8125 113.785156 92.8125 113.785156 C 86.816406 113.785156 78.171875 103.296875 83.964844 69.398438 C 73.347656 77.707031 57.039062 99.398438 48.117188 132.015625 C 52.015625 125.757812 58.273438 115.65625 60.632812 112.375 C 59.554688 116.9375 60.023438 121.195312 64.21875 121.195312 C 74.085938 121.273438 62.347656 103.246094 79.503906 78.78125 C 75.96875 96.476562 77.8125 125.484375 93.8125 125.398438 Z M 103.042969 246.019531 C 88.570312 271.957031 91.785156 296.765625 108.59375 320.710938 C 105.300781 318.949219 102.066406 317.078125 98.898438 315.101562 C 95.730469 313.125 92.632812 311.042969 89.601562 308.859375 C 86.574219 306.675781 83.621094 304.394531 80.742188 302.011719 C 77.867188 299.628906 75.070312 297.152344 72.359375 294.585938 C 69.648438 292.015625 67.027344 289.359375 64.492188 286.617188 C 61.960938 283.871094 59.519531 281.046875 57.175781 278.136719 C 54.832031 275.230469 52.585938 272.25 50.441406 269.191406 C 48.296875 266.132812 46.257812 263.007812 44.320312 259.8125 C 42.386719 256.621094 40.558594 253.363281 38.839844 250.046875 C 37.121094 246.730469 35.515625 243.363281 34.023438 239.9375 C 32.53125 236.515625 31.15625 233.046875 29.894531 229.53125 C 28.632812 226.015625 27.492188 222.460938 26.46875 218.867188 C 25.445312 215.277344 24.542969 211.652344 23.761719 208 C 22.984375 204.347656 22.324219 200.675781 21.789062 196.976562 C 21.253906 193.28125 20.84375 189.570312 20.558594 185.847656 C 20.269531 182.125 20.109375 178.394531 20.070312 174.660156 C 20.035156 170.925781 20.121094 167.195312 20.335938 163.464844 C 20.546875 159.734375 20.882812 156.019531 21.34375 152.3125 C 21.804688 148.605469 22.390625 144.917969 23.097656 141.253906 C 23.804688 137.585938 24.636719 133.945312 25.585938 130.332031 C 26.539062 126.722656 27.609375 123.144531 28.800781 119.605469 C 29.988281 116.066406 31.296875 112.570312 32.722656 109.117188 C 34.144531 105.664062 35.683594 102.261719 37.335938 98.914062 C 38.988281 95.5625 40.75 92.273438 42.621094 89.039062 C 44.492188 85.808594 46.46875 82.644531 48.554688 79.542969 C 50.636719 76.445312 52.824219 73.417969 55.109375 70.464844 C 57.394531 67.511719 59.777344 64.636719 62.253906 61.84375 C 64.734375 59.046875 67.304688 56.339844 69.960938 53.71875 C 72.621094 51.097656 75.367188 48.566406 78.195312 46.125 C 81.023438 43.6875 83.929688 41.347656 86.917969 39.101562 C 89.902344 36.859375 92.957031 34.714844 96.085938 32.675781 C 99.214844 30.636719 102.410156 28.703125 105.667969 26.878906 C 103.902344 32.726562 102.527344 38.664062 101.546875 44.691406 C 100.5625 50.71875 99.980469 56.785156 99.800781 62.890625 C 99.617188 68.996094 99.835938 75.089844 100.457031 81.164062 C 101.074219 87.242188 102.09375 93.25 103.503906 99.191406 C 94.957031 83.730469 89.582031 67.769531 92.015625 50.578125 C 16.730469 103.398438 10.269531 227.097656 84.582031 288.484375 C 85.355469 269.070312 92.289062 255.679688 103.042969 246.019531 Z M 247.390625 30.320312 C 246.59375 25.625 245.472656 21.261719 243.285156 18.011719 C 238.535156 15.648438 233.609375 13.734375 228.507812 12.269531 C 232.046875 16.109375 234.835938 20.433594 236.867188 25.242188 C 240.597656 26.472656 244.101562 28.164062 247.378906 30.320312 Z M 193.335938 116.527344 C 199.902344 113.65625 216.414062 116.527344 233.746094 91.605469 C 215.796875 110.984375 199.082031 108.015625 193.335938 116.527344 Z M 320.152344 187.605469 C 319.613281 187.898438 319.121094 188.257812 318.675781 188.679688 C 318.230469 189.101562 317.847656 189.570312 317.527344 190.09375 C 317.207031 190.617188 316.957031 191.171875 316.78125 191.757812 C 316.605469 192.34375 316.507812 192.945312 316.488281 193.554688 C 316.46875 192.945312 316.371094 192.34375 316.195312 191.757812 C 316.019531 191.171875 315.769531 190.617188 315.449219 190.09375 C 315.125 189.570312 314.742188 189.101562 314.296875 188.679688 C 313.851562 188.257812 313.363281 187.898438 312.824219 187.605469 C 314.558594 186.597656 315.730469 184.519531 316.488281 181.65625 C 317.246094 184.519531 318.414062 186.597656 320.152344 187.605469 Z M 306.765625 203.148438 C 301.347656 206.113281 298.589844 210.964844 298.019531 217.351562 C 297.449219 210.960938 294.6875 206.109375 289.269531 203.148438 C 293.414062 200.738281 296.210938 195.773438 298.019531 188.941406 C 299.824219 195.773438 302.621094 200.738281 306.765625 203.148438 Z M 296.097656 269.457031 C 290.046875 211.710938 267.585938 223.40625 270.765625 230.070312 C 261.023438 230.070312 258.355469 212.839844 273.230469 212.839844 C 288.101562 212.839844 299.890625 244.738281 298.410156 264.175781 C 314.257812 247.867188 303.640625 219.558594 312.152344 218.328125 C 315.6875 218.328125 318.152344 221.457031 317.023438 227.507812 C 323.898438 212.632812 329.949219 196.328125 333.027344 166.480469 C 336.105469 216.328125 309.640625 256.125 296.101562 269.457031 Z M 281.175781 125.398438 C 266.398438 125.324219 268.636719 107.375 276.765625 107.375 C 275.84375 110.21875 277.175781 113.785156 282.175781 113.785156 C 288.171875 113.785156 296.816406 103.296875 291.023438 69.398438 C 301.640625 77.707031 317.945312 99.398438 326.871094 132.015625 C 322.972656 125.757812 316.714844 115.65625 314.355469 112.375 C 315.433594 116.9375 314.964844 121.195312 310.765625 121.195312 C 300.902344 121.273438 312.640625 103.246094 295.484375 78.78125 C 299.027344 96.480469 297.179688 125.484375 281.179688 125.402344 Z M 281.175781 125.398438 " fill-opacity="1" fill-rule="evenodd"/><path fill="#ffd700" d="M 263.179688 280.742188 C 267.796875 284.945312 269.640625 292.226562 269.027344 301.972656 C 274.460938 296.433594 278.179688 278.332031 269.140625 258.484375 C 260.105469 238.636719 254.101562 220.480469 259.332031 201.097656 C 257.414062 200.441406 255.800781 199.339844 254.488281 197.789062 C 257.640625 197.789062 260.640625 195.253906 261.792969 193.558594 C 258.332031 193.714844 253.257812 191.789062 253.257812 186.558594 C 253.257812 181.328125 256.71875 178.945312 263.179688 178.945312 C 269.640625 178.945312 298.566406 188.175781 330.722656 146.480469 C 311.796875 141.554688 296.5625 130.632812 256.71875 156.019531 C 259.257812 149.789062 266.179688 144.945312 268.871094 143.402344 C 259.101562 143.710938 252.949219 147.097656 250.410156 149.171875 C 256.796875 138.328125 277.640625 64.324219 250.5625 0.015625 C 259.101562 45.863281 253.640625 73.964844 230.871094 123.609375 C 222.664062 136.328125 234.050781 140.941406 239.382812 148.429688 C 229.640625 146.378906 218.5625 138.792969 222.972656 127.402344 C 217.84375 128.738281 217.945312 131.507812 213.023438 131.199219 C 208.101562 130.890625 191.109375 125.671875 187.496094 131.59375 C 183.882812 125.671875 166.886719 130.890625 161.96875 131.199219 C 157.050781 131.507812 157.148438 128.734375 152.019531 127.402344 C 156.429688 138.789062 145.351562 146.378906 135.609375 148.429688 C 140.941406 140.941406 152.328125 136.328125 144.121094 123.609375 C 121.351562 73.964844 115.890625 45.867188 124.429688 0.015625 C 97.351562 64.324219 118.195312 138.328125 124.582031 149.171875 C 122.042969 147.097656 115.890625 143.710938 106.121094 143.402344 C 108.8125 144.945312 115.734375 149.789062 118.273438 156.019531 C 78.425781 130.632812 63.195312 141.558594 44.269531 146.480469 C 76.425781 188.175781 105.351562 178.945312 111.8125 178.945312 C 118.273438 178.945312 121.734375 181.328125 121.734375 186.558594 C 121.734375 191.789062 116.660156 193.714844 113.199219 193.558594 C 114.351562 195.253906 117.351562 197.789062 120.503906 197.789062 C 119.195312 199.339844 117.578125 200.441406 115.660156 201.097656 C 120.890625 220.480469 114.890625 238.640625 105.851562 258.484375 C 96.8125 278.332031 100.53125 296.4375 105.964844 301.972656 C 105.351562 292.230469 107.195312 284.949219 111.8125 280.742188 C 104.734375 300.640625 129.144531 309.769531 119.503906 328.796875 C 129.609375 327.410156 131.09375 315.925781 130.480469 311.878906 C 131.140625 312.9375 131.679688 314.054688 132.101562 315.230469 C 132.523438 316.40625 132.820312 317.613281 132.988281 318.847656 C 133.152344 320.085938 133.191406 321.328125 133.097656 322.570312 C 133.003906 323.816406 132.78125 325.039062 132.429688 326.234375 C 133.96875 325.519531 135.453125 324.183594 136.734375 319.929688 C 139.863281 328.234375 138.839844 337.722656 135.664062 341.46875 C 136.867188 341.382812 138.039062 341.15625 139.1875 340.789062 C 140.332031 340.417969 141.417969 339.921875 142.445312 339.292969 C 143.472656 338.664062 144.410156 337.921875 145.257812 337.066406 C 146.105469 336.210938 146.839844 335.265625 147.460938 334.234375 C 146.84375 341.777344 150.691406 348.699219 153 350.542969 C 153.441406 348.746094 154.140625 347.050781 155.101562 345.46875 C 155.410156 353.980469 168.128906 356.339844 165.871094 367.417969 C 168.742188 366.753906 171.410156 364.804688 172.742188 359.0625 C 172.742188 366.9375 184.929688 366.347656 187.488281 374.925781 L 187.488281 374.996094 L 187.5 374.960938 L 187.511719 374.996094 L 187.511719 374.925781 C 190.074219 366.347656 202.257812 366.9375 202.257812 359.0625 C 203.59375 364.804688 206.261719 366.753906 209.132812 367.417969 C 206.875 356.34375 219.59375 353.984375 219.902344 345.46875 C 220.863281 347.050781 221.5625 348.746094 222.003906 350.542969 C 224.3125 348.699219 228.160156 341.777344 227.542969 334.234375 C 228.164062 335.265625 228.898438 336.210938 229.746094 337.066406 C 230.59375 337.921875 231.53125 338.664062 232.558594 339.292969 C 233.582031 339.921875 234.671875 340.417969 235.816406 340.789062 C 236.964844 341.15625 238.136719 341.382812 239.335938 341.46875 C 236.160156 337.71875 235.132812 328.234375 238.261719 319.929688 C 239.546875 324.183594 241.03125 325.519531 242.566406 326.234375 C 242.214844 325.039062 241.992188 323.816406 241.898438 322.570312 C 241.804688 321.328125 241.84375 320.085938 242.011719 318.847656 C 242.179688 317.613281 242.472656 316.40625 242.898438 315.230469 C 243.320312 314.054688 243.859375 312.9375 244.519531 311.878906 C 243.902344 315.929688 245.390625 327.417969 255.492188 328.796875 C 245.855469 309.769531 270.261719 300.640625 263.183594 280.742188 Z M 316.488281 150.636719 C 305.03125 153.867188 283.949219 154.484375 278.101562 158.792969 C 282.105469 160.433594 292.71875 159.765625 296.414062 158.738281 C 286.363281 169.40625 260.976562 163.714844 251.949219 172.484375 C 260.71875 160.945312 272.253906 143.714844 316.488281 150.640625 Z M 232.257812 135.402344 C 237.183594 138.398438 241.535156 140.019531 243.585938 136.246094 C 245.640625 132.476562 255.871094 106.554688 258.257812 91.015625 C 257.566406 107.015625 254.488281 125.09375 244.71875 144.25 C 240.101562 143.941406 234.871094 139.246094 232.257812 135.402344 Z M 223.261719 167.632812 C 222.570312 171.25 221.722656 175.324219 222.570312 178.671875 C 226.414062 173.25 232.644531 169.480469 241.492188 170.402344 C 239.617188 171.535156 238.132812 173.046875 237.03125 174.941406 C 240.1875 175.015625 243.570312 179.171875 244.109375 182.328125 C 243.152344 181.703125 242.132812 181.203125 241.046875 180.839844 C 239.964844 180.472656 238.851562 180.25 237.710938 180.167969 C 236.570312 180.085938 235.4375 180.152344 234.3125 180.359375 C 233.1875 180.570312 232.109375 180.917969 231.074219 181.40625 C 231.210938 180.4375 231.519531 179.527344 232.003906 178.675781 C 232.488281 177.824219 233.113281 177.09375 233.878906 176.480469 C 229.109375 177.75 221.414062 182.058594 219.875 189.710938 C 218.03125 185.480469 215.722656 175.558594 223.261719 167.636719 Z M 244.109375 201.582031 C 244.109375 202.445312 241.03125 203.148438 237.238281 203.148438 C 233.441406 203.148438 230.363281 202.445312 230.363281 201.582031 C 230.363281 200.71875 233.441406 200.019531 237.238281 200.019531 C 241.03125 200.019531 244.109375 200.71875 244.109375 201.582031 Z M 159.511719 145.757812 C 160.847656 152.273438 163.359375 157.351562 166.640625 162.894531 C 167.074219 160.101562 167.824219 157.402344 168.898438 154.789062 C 171.308594 163.304688 174.894531 169.199219 177.925781 172.484375 C 178.148438 170.214844 178.644531 168.011719 179.410156 165.867188 C 179.925781 168.636719 183.308594 174.378906 187.515625 177.148438 L 187.515625 177.132812 C 191.707031 174.355469 195.082031 168.632812 195.59375 165.867188 C 196.359375 168.011719 196.855469 170.214844 197.082031 172.484375 C 200.105469 169.199219 203.695312 163.300781 206.105469 154.789062 C 207.179688 157.402344 207.933594 160.101562 208.363281 162.894531 C 211.644531 157.351562 214.160156 152.277344 215.492188 145.757812 C 216.363281 155.144531 211.851562 168.890625 207.902344 175.042969 C 206.402344 173.132812 205.460938 170.980469 205.082031 168.582031 C 203.953125 172.839844 202.15625 180.992188 194.566406 186.273438 C 193.914062 184.679688 193.625 183.019531 193.695312 181.300781 C 191.960938 185.078125 189.5625 187.792969 187.515625 188.570312 L 187.515625 188.582031 C 185.460938 187.8125 183.054688 185.09375 181.308594 181.300781 C 181.378906 183.023438 181.089844 184.679688 180.4375 186.273438 C 172.847656 180.992188 171.050781 172.839844 169.925781 168.582031 C 169.542969 170.980469 168.601562 173.136719 167.101562 175.042969 C 163.152344 168.890625 158.644531 155.144531 159.511719 145.761719 Z M 213.234375 197.96875 C 211.59375 204.121094 212.515625 221.046875 207.183594 230.070312 C 207.183594 217.558594 209.03125 203.148438 213.234375 197.96875 Z M 187.515625 287.605469 C 190.578125 287.605469 192.988281 288.542969 196.925781 291.253906 L 178.074219 291.253906 C 182.023438 288.535156 184.429688 287.605469 187.507812 287.605469 Z M 167.820312 230.070312 C 162.488281 221.046875 163.410156 204.121094 161.769531 197.96875 C 165.976562 203.148438 167.820312 217.5625 167.820312 230.070312 Z M 152.4375 178.671875 C 153.28125 175.324219 152.4375 171.25 151.742188 167.632812 C 159.28125 175.558594 156.972656 185.480469 155.128906 189.710938 C 153.589844 182.054688 145.898438 177.75 141.128906 176.480469 C 141.890625 177.089844 142.515625 177.824219 143 178.675781 C 143.484375 179.523438 143.796875 180.433594 143.933594 181.40625 C 142.898438 180.917969 141.816406 180.570312 140.691406 180.359375 C 139.566406 180.148438 138.433594 180.085938 137.292969 180.164062 C 136.152344 180.246094 135.039062 180.46875 133.957031 180.835938 C 132.871094 181.203125 131.851562 181.699219 130.898438 182.328125 C 131.433594 179.175781 134.820312 175.019531 137.972656 174.9375 C 136.875 173.046875 135.386719 171.53125 133.511719 170.398438 C 142.359375 169.476562 148.589844 173.246094 152.4375 178.671875 Z M 144.640625 201.585938 C 144.640625 202.449219 141.566406 203.152344 137.769531 203.152344 C 133.972656 203.152344 130.898438 202.449219 130.898438 201.585938 C 130.898438 200.722656 133.972656 200.023438 137.769531 200.023438 C 141.5625 200.023438 144.640625 200.722656 144.640625 201.585938 Z M 116.734375 91.019531 C 119.121094 106.558594 129.351562 132.484375 131.40625 136.25 C 133.460938 140.019531 137.8125 138.40625 142.738281 135.40625 C 140.121094 139.253906 134.890625 143.945312 130.273438 144.253906 C 120.503906 125.097656 117.425781 107.019531 116.734375 91.019531 Z M 78.582031 158.738281 C 82.273438 159.765625 92.886719 160.433594 96.890625 158.792969 C 91.042969 154.484375 69.964844 153.867188 58.507812 150.636719 C 102.742188 143.714844 114.277344 160.945312 123.046875 172.480469 C 114.019531 163.710938 88.632812 169.402344 78.582031 158.738281 Z M 123.125 282.796875 C 121.894531 288.027344 124.125 296.644531 127.742188 300.335938 C 118.28125 297.875 119.664062 286.488281 123.125 282.796875 Z M 143.402344 301.96875 C 145.351562 289.558594 140.632812 274.070312 138.070312 269.96875 C 138.480469 275.199219 136.121094 277.660156 133.660156 280.429688 C 134.582031 259.046875 118.171875 246.890625 121.660156 237.660156 C 121.964844 244.941406 133.148438 252.839844 135.609375 261.96875 C 135.542969 256.25 135.5 252.632812 133.695312 248.367188 C 145.492188 266.011719 149.046875 288.433594 143.402344 301.972656 Z M 145.917969 212.222656 C 144.480469 213.660156 140.378906 215.128906 137.339844 215.128906 C 136.832031 215.132812 136.324219 215.101562 135.820312 215.039062 C 135.316406 214.980469 134.816406 214.886719 134.320312 214.765625 C 133.828125 214.644531 133.34375 214.492188 132.867188 214.308594 C 132.394531 214.125 131.933594 213.914062 131.484375 213.675781 C 131.035156 213.4375 130.601562 213.167969 130.183594 212.878906 C 129.769531 212.585938 129.371094 212.265625 128.996094 211.925781 C 128.621094 211.582031 128.265625 211.21875 127.933594 210.835938 C 127.601562 210.449219 127.292969 210.042969 127.011719 209.621094 C 126.730469 209.195312 126.476562 208.757812 126.246094 208.304688 C 126.019531 207.847656 125.820312 207.378906 125.652344 206.902344 C 125.480469 206.421875 125.339844 205.933594 125.230469 205.4375 C 125.121094 204.941406 125.042969 204.4375 124.996094 203.933594 C 124.945312 203.425781 124.929688 202.917969 124.945312 202.410156 C 124.960938 201.902344 125.007812 201.394531 125.082031 200.890625 C 125.160156 200.390625 125.269531 199.894531 125.40625 199.402344 C 125.546875 198.914062 125.714844 198.433594 125.914062 197.964844 C 127.164062 206.378906 133.003906 209.605469 138.371094 209.605469 C 139.539062 209.597656 140.683594 209.433594 141.808594 209.117188 C 142.929688 208.800781 143.992188 208.339844 144.992188 207.734375 C 145.992188 207.132812 146.894531 206.40625 147.695312 205.558594 C 148.5 204.710938 149.175781 203.773438 149.726562 202.742188 C 145.140625 230.070312 169.25 260.429688 164.789062 285.664062 C 163.890625 264.328125 139.8125 231.300781 145.917969 212.222656 Z M 154.375 322.792969 C 143.503906 305.765625 155.195312 299.40625 156.425781 292.125 C 157.660156 301.355469 150.890625 313.152344 154.375 322.792969 Z M 187.507812 356.796875 C 182.894531 356.796875 178.585938 353.71875 176.476562 350.386719 C 178.734375 352.386719 184.273438 352.949219 187.507812 352.949219 C 190.742188 352.949219 196.257812 352.382812 198.511719 350.386719 C 196.410156 353.714844 192.113281 356.785156 187.507812 356.796875 Z M 187.507812 346.410156 C 171.429688 346.410156 164.8125 337.023438 163.890625 334.410156 C 165.046875 335.792969 167.199219 338.5625 175.046875 338.5625 C 181.765625 338.5625 186.609375 333.511719 186.609375 324.179688 C 186.609375 316.101562 181.96875 310.636719 174.816406 310.636719 C 166.738281 310.636719 165.96875 301.945312 167.660156 302.5625 C 169.355469 303.175781 182.507812 310.175781 187.507812 310.175781 C 192.527344 310.15625 205.640625 303.175781 207.332031 302.5625 C 209.019531 301.949219 208.253906 310.640625 200.175781 310.640625 C 193.023438 310.640625 188.382812 316.101562 188.382812 324.179688 C 188.382812 333.511719 193.226562 338.5625 199.945312 338.5625 C 207.792969 338.5625 209.945312 335.792969 211.101562 334.410156 C 210.179688 337.023438 203.566406 346.402344 187.507812 346.410156 Z M 220.613281 322.792969 C 224.101562 313.15625 217.332031 301.355469 218.5625 292.125 C 219.792969 299.40625 231.484375 305.765625 220.613281 322.792969 Z M 210.203125 285.664062 C 205.742188 260.429688 229.851562 230.070312 225.265625 202.746094 C 225.816406 203.773438 226.492188 204.710938 227.296875 205.558594 C 228.097656 206.40625 229 207.132812 230 207.734375 C 230.996094 208.339844 232.058594 208.800781 233.179688 209.117188 C 234.304688 209.433594 235.449219 209.597656 236.617188 209.605469 C 241.984375 209.605469 247.820312 206.378906 249.074219 197.96875 C 249.273438 198.4375 249.441406 198.914062 249.578125 199.402344 C 249.71875 199.894531 249.824219 200.390625 249.902344 200.890625 C 249.980469 201.394531 250.027344 201.902344 250.042969 202.410156 C 250.054688 202.917969 250.039062 203.425781 249.992188 203.929688 C 249.945312 204.4375 249.863281 204.9375 249.753906 205.433594 C 249.644531 205.933594 249.503906 206.417969 249.335938 206.898438 C 249.164062 207.378906 248.96875 207.84375 248.738281 208.300781 C 248.511719 208.753906 248.257812 209.195312 247.976562 209.617188 C 247.691406 210.039062 247.386719 210.445312 247.054688 210.832031 C 246.722656 211.214844 246.367188 211.578125 245.992188 211.921875 C 245.617188 212.261719 245.21875 212.582031 244.804688 212.875 C 244.386719 213.167969 243.957031 213.433594 243.507812 213.671875 C 243.058594 213.910156 242.597656 214.121094 242.121094 214.304688 C 241.648438 214.488281 241.164062 214.640625 240.667969 214.761719 C 240.175781 214.886719 239.675781 214.976562 239.171875 215.039062 C 238.667969 215.097656 238.160156 215.128906 237.652344 215.128906 C 234.613281 215.128906 230.511719 213.65625 229.074219 212.222656 C 235.179688 231.296875 211.101562 264.324219 210.203125 285.660156 Z M 241.332031 280.433594 C 238.871094 277.664062 236.515625 275.199219 236.921875 269.96875 C 234.359375 274.074219 229.640625 289.566406 231.589844 301.972656 C 225.949219 288.433594 229.503906 266.007812 241.296875 248.367188 C 239.488281 252.636719 239.449219 256.25 239.382812 261.964844 C 241.847656 252.839844 253.027344 244.941406 253.332031 237.660156 C 256.820312 246.890625 240.410156 259.042969 241.332031 280.429688 Z M 247.257812 300.332031 C 250.871094 296.636719 253.101562 288.015625 251.871094 282.792969 C 255.332031 286.484375 256.71875 297.871094 247.257812 300.332031 Z M 247.257812 300.332031 " fill-opacity="1" fill-rule="evenodd"/></svg>