<svg xmlns="http://www.w3.org/2000/svg" xmlns:xlink="http://www.w3.org/1999/xlink" width="500" zoomAndPan="magnify" viewBox="0 0 375 374.999991" height="500" preserveAspectRatio="xMidYMid meet" version="1.0"><defs><clipPath id="da96cbb332"><path d="M 0 347.007812 L 24.980469 347.007812 L 24.980469 375 L 0 375 Z M 0 347.007812 " clip-rule="nonzero"/></clipPath><clipPath id="9d75cd3dec"><path d="M 33 2.65625 L 342 2.65625 L 342 372.40625 L 33 372.40625 Z M 33 2.65625 " clip-rule="nonzero"/></clipPath></defs><g clip-path="url(#da96cbb332)"><path fill="#000000" d="M -22.941406 473.195312 C -23.179688 476.359375 -18.316406 482.542969 -16.257812 485.230469 C -15.222656 486.578125 -16.757812 487.257812 -17.523438 486.222656 C -21.777344 480.429688 -24.214844 475.710938 -34.160156 468.925781 C -47.308594 459.960938 -59.359375 453.566406 -87.867188 452.414062 C -98.292969 451.996094 -96.5 455.117188 -102.351562 459.492188 C -103.222656 460.136719 -104.320312 459.253906 -103.195312 458.144531 C -97.941406 452.980469 -96.582031 452.050781 -96.457031 449.859375 C -95.949219 440.527344 -106.222656 414.007812 -114.5 412.929688 C -118.066406 412.46875 -123.171875 413.324219 -124.300781 413.183594 C -124.480469 413.167969 -124.636719 413.097656 -124.765625 412.972656 C -124.894531 412.84375 -124.96875 412.691406 -124.984375 412.511719 C -125.003906 412.332031 -124.960938 412.164062 -124.859375 412.015625 C -124.757812 411.863281 -124.621094 411.765625 -124.449219 411.714844 C -124.125 411.609375 -118.242188 411.277344 -116.617188 411.152344 C -116.007812 411.101562 -114.585938 410.515625 -113.480469 409.238281 C -113.234375 408.953125 -113.128906 408.367188 -112.617188 407.109375 C -107.132812 393.507812 -105.527344 362.582031 -109.703125 358.847656 C -117.078125 352.261719 -118.214844 351.128906 -117.335938 350.378906 C -116.308594 349.492188 -115.867188 351.542969 -112.265625 354.304688 C -106.289062 358.886719 -103.171875 359.292969 -93.179688 359.988281 C -79.449219 360.933594 -76.027344 360.875 -69.226562 360.554688 C -52.261719 359.761719 -37.132812 357.578125 -32.59375 356.667969 C -27.667969 355.679688 -27.144531 349.835938 -25.953125 347.550781 C -25.875 347.371094 -25.746094 347.242188 -25.570312 347.160156 C -25.390625 347.082031 -25.210938 347.070312 -25.023438 347.132812 C -24.839844 347.191406 -24.699219 347.308594 -24.601562 347.480469 C -24.507812 347.648438 -24.480469 347.828125 -24.523438 348.019531 C -24.585938 348.375 -26.738281 354.042969 -26.746094 354.054688 C -28.988281 359.582031 -16.929688 377.820312 6.765625 380.773438 C 9.261719 381.085938 18.792969 376.609375 19.921875 376.671875 C 20.253906 376.699219 20.46875 376.871094 20.570312 377.1875 C 20.671875 377.503906 20.59375 377.769531 20.34375 377.984375 C 18.0625 379.84375 10.945312 379.230469 7.042969 387.867188 C -0.582031 404.710938 9.742188 428.902344 18.949219 434.03125 C 23.835938 436.757812 23.976562 436.339844 24.542969 436.875 C 24.976562 437.28125 24.765625 438.203125 24.113281 438.292969 C 22.789062 438.480469 19.726562 435.226562 9.964844 433.609375 C 4.960938 432.789062 -20.554688 441.699219 -22.941406 473.195312 Z M -39.300781 438.832031 C -39.511719 439.34375 -43.324219 426.578125 -46.15625 423.503906 C -49.359375 420.015625 -61.453125 421.355469 -65.007812 424.632812 L -71.894531 431.003906 C -73.546875 432.535156 -64.578125 426.851562 -46.160156 434.488281 C -41.421875 436.453125 -39.695312 438.972656 -39.300781 438.832031 Z M -93.207031 371.019531 C -93.207031 371.003906 -81.789062 381.300781 -80.742188 381.769531 C -79.410156 382.371094 -78.148438 382.96875 -76.933594 382.941406 C -75.722656 382.914062 -66.253906 383.296875 -57.519531 380.941406 C -44.058594 377.300781 -33.757812 368.347656 -33.570312 366.105469 C -44.898438 369.6875 -57.921875 372.042969 -69.269531 372.992188 C -83.644531 374.195312 -87.902344 372.34375 -93.21875 371.019531 Z M -93.507812 451.0625 C -92.714844 451.027344 -89.464844 450.507812 -79.246094 451.5625 C -60.15625 453.535156 -51.851562 456.832031 -42.8125 461.722656 C -30.195312 468.554688 -25.449219 473.8125 -26.15625 472.019531 C -30.617188 460.726562 -30.414062 460.761719 -31.859375 459.238281 C -31.875 459.21875 -40.753906 452.597656 -47.09375 448.871094 C -66.777344 437.292969 -84.085938 442.3125 -86.265625 444.3125 C -86.371094 444.40625 -93.015625 450.511719 -93.519531 451.0625 Z M -106.320312 361.710938 C -106.074219 364.449219 -105.75 374.851562 -106.140625 381.871094 C -106.527344 389.152344 -109.769531 403.949219 -111.113281 407.21875 C -111.292969 407.644531 -112.339844 410.488281 -112.320312 410.828125 C -111.40625 410.871094 -104.59375 410.617188 -104.613281 410.621094 C -102.824219 410.566406 -100.113281 408.996094 -98.308594 407.292969 C -97.226562 406.265625 -95.023438 401.394531 -94.433594 399.964844 C -89.695312 388.464844 -91.421875 382.65625 -92.523438 377.625 C -92.78125 376.457031 -93.765625 372.558594 -94.675781 371.78125 C -97.875 369.027344 -105.691406 362.183594 -106.320312 361.710938 Z M -106.300781 359.652344 C -106.410156 359.847656 -106.367188 359.714844 -106.203125 359.859375 C -96.382812 368.378906 -92.933594 375.265625 -57.402344 370.082031 C -52.296875 369.335938 -38.597656 366.605469 -33.867188 364.613281 C -31.71875 363.707031 -31.382812 361.851562 -29.714844 357.730469 C -29.6875 357.640625 -29.664062 357.546875 -29.648438 357.449219 C -50.582031 362.136719 -90.5 364.21875 -106.300781 359.652344 Z M 6.679688 383.722656 C 6.011719 384 -6.859375 389.894531 -6.835938 389.882812 C -7.523438 390.195312 -16.910156 404.898438 -9.851562 418.097656 C -8.238281 421.117188 -5.773438 423.738281 -5.324219 424.269531 C -4.289062 425.492188 -4.171875 425.304688 11.554688 430.957031 C 12.933594 431.453125 10.742188 430.488281 8.386719 425.136719 C 6.105469 419.941406 3.445312 415.289062 2.863281 403.730469 C 2.316406 392.761719 6.605469 384.148438 6.679688 383.722656 Z M -24.929688 471.15625 C -24.699219 470.503906 -24.875 470.335938 -24.148438 468.210938 C -23.261719 465.621094 -23.261719 464.648438 -22.414062 461.410156 C -19.472656 450.058594 -9.265625 437.597656 4.496094 432.941406 C 7.550781 431.90625 9.492188 432.277344 9.851562 431.898438 C 9.605469 431.804688 -3.199219 427.160156 -3.914062 426.925781 C -4.902344 426.59375 -4.492188 426.6875 -8.265625 427.59375 C -22.722656 431.050781 -33.109375 450.589844 -28.9375 461.089844 C -24.523438 472.203125 -25.269531 470.398438 -24.929688 471.15625 Z M -32.113281 457.257812 C -32.042969 457.179688 -32.015625 457.257812 -32.207031 456.761719 C -37.707031 442.878906 -37.367188 443.339844 -38.5625 441.816406 C -44.105469 434.75 -61.585938 429.125 -74.121094 433.402344 C -74.796875 433.632812 -74.449219 433.351562 -82.78125 441.078125 C -82.976562 441.253906 -83.199219 441.488281 -82.941406 441.433594 C -58.273438 435.3125 -40.484375 451.738281 -32.113281 457.257812 Z M -7.222656 425.828125 C -7.195312 425.628906 -6.042969 426.214844 -22.492188 420.203125 C -23.949219 419.671875 -26.449219 420.988281 -27.671875 421.917969 C -34.113281 426.800781 -37.367188 436.703125 -37.007812 438.800781 C -36.617188 441.109375 -36.398438 442.222656 -35.5 444.503906 C -31.070312 455.78125 -31.441406 454.8125 -31.3125 454.875 C -30.113281 441.171875 -20.300781 429.746094 -10.113281 426.589844 C -9.46875 426.394531 -8.746094 426.214844 -7.222656 425.832031 Z M -28.25 358.050781 C -28.714844 359.050781 -29.457031 361.035156 -30.378906 363.1875 C -30.867188 364.324219 -31.15625 366.265625 -30.78125 367.199219 C -30.011719 369.136719 -28.300781 374.65625 -24.191406 379.804688 C -19.863281 385.230469 -12.554688 390.929688 -6.25 388.035156 C 7.160156 381.875 5.320312 382.773438 5.929688 382.429688 C 4.105469 381.042969 -19.347656 379.753906 -28.25 358.050781 Z M -100.316406 428.730469 C -94.371094 443.773438 -95.128906 449.664062 -94.980469 450.355469 C -86.613281 443.183594 -86.613281 442.480469 -86.75 441.390625 C -86.910156 440.097656 -87.324219 431.023438 -91.164062 423.703125 C -94.390625 417.554688 -99.878906 411.871094 -102.027344 412 C -119.179688 413.054688 -108.234375 408.679688 -100.316406 428.730469 Z M -98.527344 410.382812 C -97.839844 410.425781 -95.941406 410.300781 -92.875 410.234375 C -92.023438 410.214844 -90.582031 410.011719 -89.847656 409.539062 C -83.722656 405.585938 -79.363281 398.296875 -78.71875 392.152344 C -77.929688 384.652344 -77.476562 386.730469 -91.515625 374.535156 C -93.390625 372.902344 -88 380.585938 -90.519531 392.011719 C -93.140625 403.894531 -98.371094 410.101562 -98.527344 410.382812 Z M -9.496094 391.207031 C -9.578125 391.105469 -8.855469 390.792969 -15.976562 394.058594 C -18.625 395.273438 -21.089844 396.289062 -23.414062 398.777344 C -27.8125 403.503906 -27.550781 412.0625 -24.8125 417.398438 C -24.4375 418.121094 -24.078125 418.082031 -20.410156 419.40625 C -6.203125 424.539062 -7.394531 424.214844 -7.75 423.738281 C -14.628906 414.53125 -16.75 406.351562 -9.496094 391.214844 Z M -11.464844 390.402344 C -11.789062 389.988281 -14.703125 390.109375 -19.597656 386.363281 C -28.640625 379.441406 -31.175781 369.796875 -32.1875 367.699219 C -32.394531 368.066406 -36.265625 377.664062 -37.578125 380.839844 C -38.285156 382.535156 -33.941406 395.273438 -24.773438 395.417969 C -21.847656 395.457031 -23.5 395.984375 -11.464844 390.402344 Z M -77.601562 384.382812 C -77.769531 384.632812 -72.382812 389.300781 -68.582031 390.390625 C -64.214844 391.644531 -59.582031 392.140625 -55.222656 391.019531 C -50.574219 389.824219 -44.78125 387.394531 -41.316406 383.71875 C -39.066406 381.332031 -35.210938 371.390625 -34.890625 370.328125 C -48.542969 381.546875 -59.125 384.382812 -77.601562 384.382812 Z M -98.703125 411.921875 C -82.984375 426.054688 -86.480469 442.53125 -84.9375 441.101562 C -77.863281 434.566406 -76.085938 433.867188 -76.523438 428.296875 C -77.234375 419.386719 -85.9375 412.164062 -90.382812 411.800781 C -93.207031 411.570312 -98.703125 411.921875 -98.714844 411.921875 Z M -76.960938 387.191406 C -77.21875 389.230469 -76.636719 392.585938 -78.792969 398.082031 C -81.03125 403.792969 -83.933594 406.597656 -87.957031 410.03125 C -87.941406 410.03125 -76.550781 409.980469 -75.5 409.285156 C -70.535156 406.003906 -67.582031 395.304688 -71.820312 391.628906 C -73.417969 390.257812 -76.796875 387.335938 -76.972656 387.191406 Z M -38.4375 437.035156 C -38.234375 437.003906 -36.011719 424.285156 -25.585938 419.105469 C -26.585938 418.710938 -35.21875 415.617188 -37.089844 414.925781 C -37.828125 414.652344 -44.597656 418.050781 -43.53125 424.050781 C -43.449219 424.523438 -38.714844 436.441406 -38.4375 437.035156 Z M -69.1875 392.007812 C -58.832031 401.003906 -59.382812 400.742188 -58.371094 400.886719 C -51.917969 401.847656 -45.808594 397.15625 -45.378906 396.105469 C -40.71875 384.632812 -41.363281 386.324219 -41.144531 385.628906 C -41.78125 386.089844 -42.5625 387.050781 -45.382812 388.636719 C -61.21875 397.597656 -71.730469 389.800781 -69.1875 392.007812 Z M -86.644531 411.570312 C -73.90625 419.703125 -75.324219 428.070312 -75.035156 430.835938 C -65.785156 423.585938 -68.421875 410.984375 -75.960938 411.164062 C -75.984375 411.164062 -86.867188 411.433594 -86.644531 411.570312 Z M -38.902344 384.125 C -39.375 385.1875 -43.742188 395.972656 -44.578125 397.972656 C -44.703125 398.222656 -44.714844 398.472656 -44.609375 398.730469 C -44.488281 399.046875 -44.347656 399.355469 -44.1875 399.652344 C -43.234375 401.25 -41.414062 402.453125 -40.417969 402.796875 C -38.960938 403.300781 -39.089844 403.035156 -32.128906 399.851562 C -26.15625 397.125 -26.59375 397.355469 -26.492188 397.191406 C -33.710938 395.257812 -36.453125 390.464844 -38.902344 384.125 Z M -25.292969 398.429688 C -25.40625 398.328125 -38.988281 404.433594 -39.101562 404.824219 C -40.230469 408.730469 -37.914062 413.089844 -36.085938 413.746094 C -25.636719 417.507812 -27.136719 417 -26.570312 417.144531 C -28.5 411.949219 -28.605469 407.394531 -27.6875 403.847656 C -26.921875 400.875 -26.140625 399.832031 -25.292969 398.429688 Z M -68.488281 394.558594 C -68.769531 395.066406 -67.320312 398.511719 -70.246094 405.089844 C -71.640625 408.226562 -73.042969 409.085938 -73.300781 409.515625 C -73.148438 409.609375 -73.582031 409.566406 -65.558594 409.324219 C -63.078125 409.246094 -59.160156 402.625 -60.332031 401.613281 C -62.917969 399.382812 -68.332031 394.683594 -68.488281 394.558594 Z M -60.996094 421 C -57.941406 420.273438 -55.269531 419.75 -51.917969 420.054688 C -48.195312 420.394531 -47.046875 421.160156 -46.277344 421.332031 C -46.445312 420.714844 -50.144531 411.417969 -50.355469 411.101562 C -51.144531 411.707031 -60.667969 420.554688 -60.996094 421 Z M -69.738281 426.914062 C -69.636719 427.054688 -65.105469 422.828125 -64.644531 421.941406 C -62.382812 417.550781 -62.175781 410.496094 -67.074219 410.828125 C -74.121094 411.308594 -70.515625 409.984375 -68.820312 414.234375 C -66.984375 418.828125 -67.445312 422.738281 -69.738281 426.914062 Z M -62.164062 420.003906 C -61.484375 419.40625 -52.210938 410.808594 -52.191406 410.789062 C -51.648438 410.28125 -51.785156 410.332031 -52.28125 410.347656 C -63.792969 410.714844 -62.539062 410.691406 -62.902344 410.757812 C -61.707031 413.757812 -61.15625 415.351562 -62.164062 420.003906 Z M -39.390625 414.183594 C -39.480469 414.070312 -48.699219 410.695312 -48.796875 410.785156 C -48.71875 411.183594 -45.132812 420.234375 -44.910156 420.582031 C -43.867188 417.746094 -41.941406 415.691406 -39.390625 414.183594 Z M -57.046875 402.484375 C -56.628906 402.953125 -50.757812 408.03125 -50.453125 408.210938 C -50.144531 408.132812 -46.730469 399.382812 -46.703125 399.265625 C -49.941406 401.328125 -53.167969 402.617188 -57.046875 402.484375 Z M -62.367188 409.210938 C -51.066406 408.835938 -52.640625 408.902344 -52.101562 408.839844 C -52.277344 408.582031 -51.390625 409.382812 -58.726562 403.011719 C -59.453125 405.507812 -60.632812 407.300781 -62.375 409.210938 Z M -48.789062 409.140625 C -48.296875 409.347656 -49.597656 408.875 -39.8125 412.402344 C -39.15625 412.636719 -39.457031 412.527344 -39.988281 411.140625 C -41.261719 407.835938 -40.738281 406.113281 -40.785156 405.457031 C -41.308594 405.613281 -48.492188 408.917969 -48.796875 409.140625 Z M -41.273438 404.035156 C -45.300781 402.035156 -45.316406 399.816406 -45.617188 400.554688 C -48.585938 407.816406 -48.234375 406.886719 -48.253906 407.230469 C -45.933594 406.164062 -43.65625 405.132812 -41.277344 404.035156 Z M -41.273438 404.035156 " fill-opacity="1" fill-rule="nonzero"/></g><path fill="#ffffff" d="M 207.121094 342.035156 C 204.773438 328.371094 199.078125 316.671875 189.160156 307.445312 C 195.8125 318.929688 200.96875 351.515625 199.636719 368.199219 C 202.492188 363.300781 203.625 357.777344 217.136719 355.433594 C 223.394531 354.328125 229.574219 352.882812 235.671875 351.085938 C 241.765625 349.292969 247.742188 347.167969 253.601562 344.703125 C 259.460938 342.242188 265.164062 339.460938 270.710938 336.359375 C 276.257812 333.261719 281.613281 329.859375 286.78125 326.160156 C 291.949219 322.460938 296.894531 318.488281 301.613281 314.234375 C 306.335938 309.980469 310.808594 305.480469 315.027344 300.726562 C 319.246094 295.972656 323.183594 291 326.847656 285.808594 C 330.507812 280.613281 333.871094 275.234375 336.929688 269.664062 C 304.59375 309.027344 264.433594 337.488281 207.121094 342.035156 Z M 187.5 109.011719 C 185.160156 118.917969 181.191406 126.304688 175.472656 130.960938 C 180.585938 135.566406 184.929688 141.699219 187.5 151.359375 C 190.070312 141.699219 194.414062 135.566406 199.527344 130.960938 C 193.808594 126.304688 189.839844 118.917969 187.5 109.011719 Z M 162.890625 279.980469 C 163.558594 273.964844 166.394531 270.902344 170.453125 269.503906 C 169.433594 268.84375 168.492188 268.078125 167.636719 267.214844 C 166.78125 266.347656 166.023438 265.402344 165.371094 264.375 C 164.71875 263.347656 164.183594 262.261719 163.765625 261.117188 C 163.347656 259.972656 163.054688 258.796875 162.890625 257.59375 C 162.722656 258.796875 162.433594 259.972656 162.011719 261.117188 C 161.59375 262.261719 161.058594 263.347656 160.40625 264.375 C 159.753906 265.402344 159 266.347656 158.140625 267.214844 C 157.285156 268.078125 156.34375 268.84375 155.324219 269.503906 C 159.382812 270.902344 162.21875 273.964844 162.890625 279.980469 Z M 158.179688 246.089844 C 169.875 211.71875 130.296875 225.457031 118.710938 191.929688 C 120.484375 221.863281 160.394531 223.414062 158.179688 246.089844 Z M 134.785156 261.441406 C 140.773438 258.445312 149.640625 247.25 135.339844 230.066406 C 149.644531 232.007812 158.066406 262.605469 134.785156 261.441406 Z M 166.464844 166.988281 C 154.65625 157.261719 155.738281 147.28125 161.058594 133.898438 C 143.765625 146.367188 153.246094 165.164062 166.464844 166.988281 Z M 72.210938 213.445312 C 68.285156 206.746094 67.472656 192.4375 68.824219 181.953125 C 61.445312 192.375 63.628906 207.277344 72.210938 213.445312 Z M 101.03125 269.09375 C 95.09375 265.394531 88.644531 255.050781 86.132812 246.089844 C 83.984375 257.253906 91.066406 267.785156 101.03125 269.09375 Z M 175.582031 73.757812 C 165.160156 65.222656 150.195312 66.664062 143.210938 76.308594 C 150.417969 72.207031 164.824219 71.320312 175.582031 73.757812 Z M 55.742188 191.273438 C 51.972656 221.539062 53.96875 250.472656 73.09375 276.914062 C 72.371094 271.757812 74.253906 270.210938 76.417969 270.09375 C 84.234375 269.671875 77.75 286.640625 87.671875 301.796875 C 77.808594 295.367188 49.3125 274.75 40 210.5625 C 30.6875 146.375 79.578125 146.207031 68.101562 174.644531 C 66.53125 168.15625 40.429688 164.597656 43.492188 211.058594 C 44.878906 232.066406 53.636719 253.6875 59.957031 263.605469 C 51.742188 246.644531 47.761719 222.3125 55.742188 191.269531 Z M 161.058594 42.4375 C 140.996094 50.796875 126.472656 67.324219 130.632812 76.027344 C 119.824219 72.449219 128.136719 59.230469 142.769531 49.585938 C 99.425781 68.769531 98.121094 92.074219 107.074219 95.039062 C 98.535156 98.363281 91.46875 95.1875 91.46875 88.625 C 91.46875 71.035156 131.371094 40.78125 161.0625 42.433594 Z M 112.074219 340.449219 C 120.617188 344.671875 129.457031 348.148438 138.585938 350.878906 C 147.71875 353.609375 157.011719 355.554688 166.472656 356.714844 C 163.660156 353.527344 161.820312 349.855469 160.949219 345.695312 C 145.878906 348.628906 129.585938 346.878906 112.074219 340.449219 Z M 104.964844 283.28125 C 107.839844 300.820312 104.277344 316.121094 90.839844 327.972656 C 88.882812 326.621094 86.957031 325.234375 85.058594 323.804688 C 83.15625 322.375 81.289062 320.90625 79.453125 319.402344 C 77.613281 317.894531 75.808594 316.347656 74.035156 314.765625 C 72.265625 313.183594 70.523438 311.566406 68.820312 309.910156 C 67.113281 308.253906 65.445312 306.566406 63.808594 304.839844 C 62.175781 303.113281 60.574219 301.355469 59.015625 299.566406 C 57.453125 297.773438 55.929688 295.949219 54.445312 294.09375 C 52.960938 292.238281 51.511719 290.355469 50.105469 288.4375 C 48.699219 286.523438 47.335938 284.578125 46.007812 282.605469 C 44.683594 280.632812 43.402344 278.632812 42.160156 276.609375 C 40.917969 274.582031 39.71875 272.53125 38.5625 270.453125 C 37.40625 268.378906 36.292969 266.277344 35.226562 264.15625 C 34.15625 262.03125 33.132812 259.890625 32.152344 257.722656 C 31.175781 255.558594 30.242188 253.371094 29.355469 251.167969 C 28.464844 248.964844 27.625 246.742188 26.832031 244.503906 C 26.035156 242.261719 25.289062 240.007812 24.585938 237.734375 C 23.886719 235.464844 23.234375 233.179688 22.628906 230.882812 C 22.023438 228.585938 21.464844 226.273438 20.957031 223.953125 C 20.449219 221.632812 19.988281 219.300781 19.578125 216.960938 C 19.164062 214.621094 18.804688 212.273438 18.488281 209.914062 C 18.175781 207.558594 17.910156 205.199219 17.699219 202.832031 C 17.484375 200.464844 17.316406 198.09375 17.203125 195.722656 C 17.085938 193.347656 17.019531 190.972656 17.003906 188.597656 C 16.988281 186.21875 17.019531 183.84375 17.101562 181.46875 C 17.183594 179.09375 17.316406 176.722656 17.5 174.351562 C 17.679688 171.984375 17.910156 169.617188 18.191406 167.257812 C 18.472656 164.898438 18.800781 162.546875 19.179688 160.199219 C 19.558594 157.851562 19.988281 155.515625 20.464844 153.1875 C 20.941406 150.859375 21.464844 148.542969 22.039062 146.234375 C 22.609375 143.929688 23.230469 141.636719 23.902344 139.355469 C 24.570312 137.074219 25.285156 134.808594 26.050781 132.558594 C 26.8125 130.308594 27.621094 128.074219 28.480469 125.859375 C 41.972656 133.964844 56.550781 139.917969 74.589844 138.9375 C 68.15625 140.480469 61.628906 141.328125 55.015625 141.476562 C 48.398438 141.628906 41.84375 141.078125 35.347656 139.828125 C 15.328125 203.460938 34.347656 272.414062 89.003906 314.097656 C 99.03125 307.941406 103.71875 297.113281 104.964844 283.28125 Z M 167.878906 32.957031 C 110.566406 37.503906 70.40625 65.964844 38.066406 105.328125 C 41.128906 99.757812 44.488281 94.378906 48.152344 89.183594 C 51.8125 83.992188 55.753906 79.019531 59.972656 74.265625 C 64.191406 69.511719 68.660156 65.011719 73.382812 60.757812 C 78.105469 56.507812 83.050781 52.53125 88.21875 48.832031 C 93.382812 45.132812 98.742188 41.730469 104.289062 38.632812 C 109.835938 35.53125 115.539062 32.75 121.398438 30.289062 C 127.253906 27.824219 133.234375 25.699219 139.328125 23.90625 C 145.425781 22.109375 151.601562 20.664062 157.859375 19.558594 C 171.371094 17.214844 172.507812 11.691406 175.359375 6.792969 C 174.03125 23.476562 179.1875 56.058594 185.835938 67.546875 C 175.917969 58.320312 170.222656 46.621094 167.878906 32.957031 Z M 175.472656 244.035156 C 181.195312 248.695312 185.160156 256.078125 187.5 265.984375 C 189.839844 256.078125 193.808594 248.695312 199.527344 244.035156 C 194.414062 239.433594 190.070312 233.296875 187.5 223.636719 C 184.929688 233.296875 180.585938 239.433594 175.472656 244.035156 Z M 212.113281 95.011719 C 211.441406 101.027344 208.605469 104.089844 204.546875 105.488281 C 205.566406 106.148438 206.507812 106.914062 207.363281 107.777344 C 208.222656 108.644531 208.976562 109.589844 209.628906 110.617188 C 210.28125 111.644531 210.816406 112.730469 211.234375 113.875 C 211.65625 115.019531 211.945312 116.195312 212.113281 117.398438 C 212.277344 116.195312 212.570312 115.019531 212.988281 113.875 C 213.40625 112.730469 213.941406 111.644531 214.59375 110.617188 C 215.246094 109.589844 216.003906 108.644531 216.859375 107.777344 C 217.71875 106.914062 218.65625 106.148438 219.679688 105.488281 C 215.617188 104.089844 212.78125 101.027344 212.113281 95.011719 Z M 216.824219 128.902344 C 205.128906 163.273438 244.703125 149.535156 256.289062 183.0625 C 254.515625 153.128906 214.605469 151.578125 216.824219 128.902344 Z M 240.214844 113.550781 C 234.226562 116.546875 225.359375 127.742188 239.660156 144.925781 C 225.359375 142.984375 216.933594 112.386719 240.214844 113.550781 Z M 208.535156 208.003906 C 220.34375 217.730469 219.261719 227.710938 213.941406 241.09375 C 231.234375 228.625 221.757812 209.832031 208.535156 208.003906 Z M 302.789062 161.546875 C 306.714844 168.246094 307.527344 182.554688 306.175781 193.039062 C 313.554688 182.617188 311.371094 167.714844 302.789062 161.546875 Z M 273.96875 105.894531 C 279.90625 109.597656 286.355469 119.941406 288.867188 128.902344 C 291.015625 117.738281 283.933594 107.207031 273.96875 105.894531 Z M 199.417969 301.234375 C 210.171875 303.671875 224.582031 302.785156 231.789062 298.683594 C 224.804688 308.328125 209.839844 309.769531 199.417969 301.234375 Z M 335 164.4375 C 344.3125 228.625 295.421875 228.792969 306.894531 200.355469 C 308.476562 206.839844 334.570312 210.398438 331.507812 163.9375 C 330.121094 142.929688 321.363281 121.3125 315.042969 111.390625 C 323.257812 128.351562 327.238281 152.6875 319.257812 183.726562 C 323.027344 153.460938 321.03125 124.527344 301.90625 98.085938 C 302.628906 103.242188 300.746094 104.789062 298.582031 104.90625 C 290.765625 105.328125 297.25 88.363281 287.328125 73.199219 C 297.191406 79.632812 325.6875 100.25 335 164.4375 Z M 213.941406 332.554688 C 234.003906 324.195312 248.527344 307.667969 244.367188 298.964844 C 255.175781 302.542969 246.863281 315.761719 232.230469 325.40625 C 275.574219 306.21875 276.878906 282.917969 267.925781 279.953125 C 276.460938 276.628906 283.53125 279.804688 283.53125 286.363281 C 283.53125 303.957031 243.628906 334.210938 213.9375 332.558594 Z M 262.925781 34.542969 C 254.382812 30.320312 245.542969 26.84375 236.414062 24.113281 C 227.28125 21.382812 217.988281 19.4375 208.527344 18.277344 C 211.339844 21.464844 213.179688 25.136719 214.050781 29.296875 C 229.125 26.363281 245.414062 28.113281 262.925781 34.542969 Z M 284.160156 47.019531 C 286.117188 48.367188 288.046875 49.757812 289.945312 51.1875 C 291.84375 52.617188 293.710938 54.082031 295.546875 55.589844 C 297.386719 57.097656 299.191406 58.640625 300.964844 60.226562 C 302.738281 61.808594 304.476562 63.425781 306.183594 65.082031 C 307.886719 66.738281 309.558594 68.425781 311.191406 70.152344 C 312.828125 71.875 314.425781 73.632812 315.988281 75.425781 C 317.546875 77.21875 319.070312 79.042969 320.558594 80.894531 C 322.042969 82.75 323.488281 84.636719 324.894531 86.550781 C 326.300781 88.46875 327.667969 90.414062 328.992188 92.386719 C 330.316406 94.359375 331.601562 96.355469 332.84375 98.382812 C 334.085938 100.410156 335.285156 102.460938 336.441406 104.539062 C 337.597656 106.613281 338.707031 108.714844 339.777344 110.835938 C 340.84375 112.957031 341.867188 115.101562 342.847656 117.269531 C 343.828125 119.433594 344.757812 121.617188 345.648438 123.824219 C 346.535156 126.027344 347.375 128.25 348.171875 130.488281 C 348.964844 132.730469 349.714844 134.984375 350.414062 137.253906 C 351.113281 139.527344 351.769531 141.8125 352.375 144.109375 C 352.980469 146.40625 353.535156 148.714844 354.042969 151.039062 C 354.554688 153.359375 355.011719 155.691406 355.425781 158.03125 C 355.835938 160.371094 356.199219 162.71875 356.511719 165.074219 C 356.824219 167.429688 357.089844 169.792969 357.304688 172.160156 C 357.519531 174.527344 357.683594 176.898438 357.800781 179.269531 C 357.914062 181.644531 357.980469 184.019531 358 186.394531 C 358.015625 188.773438 357.980469 191.148438 357.898438 193.523438 C 357.816406 195.898438 357.683594 198.269531 357.503906 200.640625 C 357.320312 203.007812 357.089844 205.375 356.808594 207.734375 C 356.527344 210.09375 356.199219 212.445312 355.820312 214.792969 C 355.441406 217.140625 355.015625 219.476562 354.539062 221.804688 C 354.0625 224.132812 353.535156 226.449219 352.964844 228.757812 C 352.390625 231.0625 351.769531 233.355469 351.101562 235.636719 C 350.433594 237.917969 349.714844 240.183594 348.953125 242.433594 C 348.1875 244.683594 347.378906 246.917969 346.519531 249.132812 C 333.027344 241.027344 318.453125 235.078125 300.410156 236.054688 C 306.84375 234.511719 313.371094 233.664062 319.984375 233.515625 C 326.601562 233.363281 333.15625 233.914062 339.652344 235.167969 C 359.671875 171.53125 340.652344 102.578125 285.996094 60.894531 C 275.96875 67.050781 271.28125 77.878906 270.03125 91.710938 C 267.160156 74.167969 270.722656 58.871094 284.160156 47.019531 Z M 284.160156 47.019531 " fill-opacity="1" fill-rule="evenodd"/><g clip-path="url(#9d75cd3dec)"><path fill="#ffd700" d="M 128.023438 277.070312 C 107.847656 260.21875 102.636719 238.160156 103.964844 219.757812 C 106.019531 223.414062 107.574219 232.214844 110.507812 235.167969 C 118.65625 241.988281 120.984375 244.699219 121.148438 254.789062 C 127.800781 230.175781 122.148438 221.695312 105.1875 215.210938 C 103.355469 194.589844 113.832031 164.769531 129.132812 154.457031 C 126.582031 160.777344 120.929688 174.523438 124.476562 186.164062 C 133.65625 216.289062 165.273438 205.453125 169.042969 224.078125 C 181.015625 169.757812 142.839844 181.398438 142.65625 148.363281 C 142.546875 128.292969 161.394531 126.300781 169.929688 116.433594 C 174.832031 110.769531 178.144531 101.355469 180.273438 95.203125 C 180.804688 93.457031 180.992188 91.671875 180.84375 89.847656 C 180.695312 88.027344 180.21875 86.296875 179.414062 84.65625 C 177.457031 81.523438 174.402344 77.625 168.417969 78.597656 C 164.46875 79.238281 158.34375 78.996094 153.742188 79.683594 C 132.625 82.84375 120.261719 103.90625 109.175781 105.328125 C 98.089844 106.746094 96.539062 99.472656 76.363281 99.03125 C 56.1875 98.589844 53.96875 116.324219 33.347656 118.097656 C 55.519531 133.175781 77.914062 136.945312 96.09375 122.085938 C 68.605469 169.535156 75.363281 198.359375 76.140625 204.234375 C 76.914062 210.109375 77.582031 213.214844 71.261719 222.746094 C 64.941406 232.28125 64.777344 250.519531 76.914062 259.109375 C 71.925781 248.578125 78.890625 241.796875 79.070312 235.53125 C 79.234375 229.921875 77.027344 226.910156 80.351562 221.859375 C 83.011719 247.136719 116.269531 267.976562 116.269531 297.910156 C 116.269531 316.757812 109.617188 327.84375 98.753906 334.714844 C 109.648438 335.9375 112.613281 328.839844 119.332031 332.046875 C 120.25 332.472656 121.195312 332.804688 122.175781 333.046875 C 123.15625 333.285156 124.152344 333.425781 125.160156 333.472656 C 126.167969 333.515625 127.171875 333.460938 128.167969 333.308594 C 129.164062 333.15625 130.136719 332.90625 131.085938 332.5625 C 132.035156 332.21875 132.941406 331.785156 133.804688 331.261719 C 134.667969 330.738281 135.472656 330.136719 136.21875 329.457031 C 136.960938 328.777344 137.632812 328.03125 138.230469 327.21875 C 138.832031 326.40625 139.34375 325.542969 139.773438 324.628906 C 147.199219 343.03125 156.84375 330.613281 163.828125 334.050781 C 170.816406 337.488281 166.601562 342.367188 170.925781 348.582031 C 175.246094 354.796875 182.453125 355.558594 184.335938 372.1875 C 195.203125 291.261719 148.199219 293.921875 128.019531 277.070312 Z M 246.976562 97.921875 C 226.800781 81.070312 179.796875 83.730469 190.660156 2.804688 C 192.546875 19.433594 199.75 20.195312 204.074219 26.410156 C 208.398438 32.628906 204.183594 37.503906 211.167969 40.941406 C 218.152344 44.378906 227.796875 31.960938 235.226562 50.363281 C 235.652344 49.449219 236.167969 48.585938 236.765625 47.773438 C 237.363281 46.960938 238.035156 46.214844 238.78125 45.535156 C 239.527344 44.855469 240.328125 44.253906 241.195312 43.730469 C 242.058594 43.207031 242.960938 42.773438 243.910156 42.429688 C 244.859375 42.085938 245.832031 41.835938 246.832031 41.683594 C 247.828125 41.53125 248.832031 41.476562 249.839844 41.519531 C 250.847656 41.566406 251.839844 41.707031 252.820312 41.945312 C 253.800781 42.183594 254.75 42.519531 255.664062 42.945312 C 262.386719 46.152344 265.351562 39.0625 276.242188 40.277344 C 265.378906 47.148438 258.726562 58.234375 258.726562 77.082031 C 258.726562 107.015625 291.988281 127.855469 294.644531 153.132812 C 297.972656 148.078125 295.765625 145.070312 295.925781 139.460938 C 296.105469 133.195312 303.070312 126.414062 298.082031 115.882812 C 310.222656 124.472656 310.054688 142.710938 303.738281 152.246094 C 297.417969 161.777344 298.082031 164.882812 298.859375 170.757812 C 299.632812 176.632812 306.398438 205.457031 278.902344 252.90625 C 297.085938 238.050781 319.480469 241.820312 341.648438 256.894531 C 321.027344 258.667969 318.8125 276.410156 298.636719 275.960938 C 278.460938 275.511719 276.90625 268.242188 265.820312 269.664062 C 254.734375 271.085938 242.375 292.148438 221.257812 295.308594 C 216.652344 295.996094 210.53125 295.753906 206.582031 296.394531 C 200.601562 297.367188 197.542969 293.46875 195.585938 290.335938 C 194.78125 288.695312 194.304688 286.964844 194.15625 285.140625 C 194.007812 283.320312 194.195312 281.535156 194.726562 279.785156 C 196.855469 273.636719 200.167969 264.222656 205.070312 258.558594 C 213.605469 248.695312 232.457031 246.695312 232.34375 226.628906 C 232.160156 193.59375 193.984375 205.234375 205.957031 150.910156 C 209.726562 169.539062 241.34375 158.699219 250.523438 188.828125 C 254.070312 200.46875 248.417969 214.21875 245.867188 220.53125 C 261.167969 210.222656 271.640625 180.402344 269.8125 159.78125 C 252.851562 153.296875 247.199219 144.816406 253.851562 120.203125 C 254.015625 130.292969 256.34375 133.003906 264.492188 139.824219 C 267.429688 142.773438 268.980469 151.578125 271.03125 155.234375 C 272.363281 136.832031 267.148438 114.769531 246.976562 97.917969 Z M 210.945312 173.140625 C 210.335938 177.351562 207.730469 188.160156 221.480469 195.199219 C 218.152344 190.988281 211.003906 181.558594 210.945312 173.140625 Z M 218.710938 170.535156 C 221.484375 191.265625 233.125 196.808594 234.785156 207.449219 C 236.226562 192.042969 222.589844 181.398438 218.710938 170.535156 Z M 207.152344 268.875 C 207.976562 269.921875 210.976562 268.933594 213.84375 266.671875 C 216.714844 264.410156 218.371094 261.71875 217.542969 260.671875 C 216.71875 259.625 213.71875 260.613281 210.851562 262.875 C 207.980469 265.136719 206.324219 267.828125 207.152344 268.875 Z M 239.21875 220.976562 C 250.859375 202.796875 240.105469 186.386719 234.890625 178.738281 C 234.199219 187.8125 246.039062 198.445312 239.21875 220.976562 Z M 315.214844 251.738281 C 306.898438 256.671875 290.269531 251.738281 282.289062 257.003906 C 288.554688 257.503906 305.957031 260.386719 315.214844 251.738281 Z M 321.144531 257.863281 C 305.625 265.265625 282.289062 260 274.972656 263.320312 C 287.390625 263.984375 303.742188 272.964844 321.144531 257.863281 Z M 275.921875 181.441406 C 274.59375 186.472656 276.796875 187.175781 274.96875 193.039062 C 273.136719 198.902344 267.859375 201.851562 266.113281 204.96875 C 264.367188 208.085938 265.613281 210.167969 264.074219 213.363281 C 262.539062 216.5625 259.167969 216.980469 256.839844 220.554688 C 254.511719 224.128906 255.800781 225.835938 254.679688 228.039062 C 253.628906 230.097656 251.914062 229.71875 250.191406 234.191406 C 248.238281 239.265625 249.285156 245 246.53125 254.796875 C 295.089844 208.140625 285.773438 151.796875 278.460938 137.160156 C 283.613281 154.121094 278.5 162.105469 278.417969 166.71875 C 278.335938 171.335938 279.992188 169.503906 279.832031 173.703125 C 279.671875 177.902344 277.253906 176.40625 275.921875 181.4375 Z M 253.679688 49.917969 C 237.714844 69.265625 248.691406 90.273438 257.667969 98.085938 C 246.859375 80.460938 248.6875 68.820312 253.679688 49.917969 Z M 243.09375 51.472656 C 237.4375 57.234375 237.4375 65.328125 241.984375 71.980469 C 239.988281 64.214844 241.539062 55.128906 243.09375 51.472656 Z M 222.695312 49.917969 C 221.917969 70.207031 226.460938 79.074219 241.984375 86.171875 C 227.792969 76.308594 227.570312 55.351562 222.695312 49.917969 Z M 228.902344 82.621094 C 214.378906 73.753906 212.828125 50.585938 197.972656 41.050781 C 205.730469 61.117188 210.914062 77.453125 228.902344 82.621094 Z M 164.054688 201.851562 C 163.996094 193.425781 156.847656 184.003906 153.519531 179.792969 C 167.265625 186.832031 164.664062 197.640625 164.054688 201.851562 Z M 156.289062 204.457031 C 152.40625 193.59375 138.773438 182.949219 140.214844 167.539062 C 141.878906 178.183594 153.519531 183.726562 156.289062 204.457031 Z M 167.851562 106.117188 C 168.675781 107.167969 167.019531 109.851562 164.148438 112.117188 C 161.28125 114.382812 158.285156 115.371094 157.457031 114.320312 C 156.628906 113.273438 158.285156 110.585938 161.15625 108.320312 C 164.023438 106.054688 167.023438 105.070312 167.851562 106.117188 Z M 135.78125 154.015625 C 128.960938 176.546875 140.800781 187.171875 140.109375 196.253906 C 134.894531 188.605469 124.140625 172.195312 135.78125 154.015625 Z M 59.785156 123.253906 C 69.042969 114.605469 86.449219 117.488281 92.710938 117.988281 C 84.730469 123.253906 68.101562 118.320312 59.785156 123.253906 Z M 53.855469 117.128906 C 71.261719 102.019531 87.613281 111.003906 100.027344 111.671875 C 92.710938 114.996094 69.375 109.730469 53.855469 117.128906 Z M 99.070312 193.550781 C 97.742188 198.582031 95.332031 197.085938 95.164062 201.285156 C 95 205.484375 96.660156 203.652344 96.578125 208.269531 C 96.496094 212.882812 91.382812 220.859375 96.535156 237.828125 C 89.21875 223.191406 79.90625 166.847656 128.464844 120.191406 C 125.707031 129.988281 126.757812 135.71875 124.804688 140.796875 C 123.082031 145.269531 121.363281 144.886719 120.316406 146.949219 C 119.191406 149.152344 120.480469 150.855469 118.15625 154.433594 C 115.828125 158.007812 112.460938 158.417969 110.914062 161.625 C 109.371094 164.828125 110.625 166.902344 108.878906 170.019531 C 107.132812 173.132812 101.847656 176.085938 100.023438 181.949219 C 98.199219 187.808594 100.398438 188.515625 99.066406 193.546875 Z M 121.316406 325.074219 C 126.304688 306.171875 128.136719 294.53125 117.328125 276.90625 C 126.308594 284.71875 137.28125 305.726562 121.316406 325.074219 Z M 131.902344 323.519531 C 133.453125 319.863281 135.007812 310.773438 133.011719 303.011719 C 137.554688 309.664062 137.554688 317.757812 131.902344 323.519531 Z M 152.300781 325.074219 C 147.421875 319.640625 147.203125 298.6875 133.011719 288.820312 C 148.53125 295.917969 153.078125 304.785156 152.300781 325.074219 Z M 146.09375 292.367188 C 164.082031 297.539062 169.261719 313.878906 177.023438 333.941406 C 162.167969 324.40625 160.617188 301.234375 146.09375 292.367188 Z M 146.09375 292.367188 " fill-opacity="1" fill-rule="evenodd"/></g></svg>