<svg xmlns="http://www.w3.org/2000/svg" xmlns:xlink="http://www.w3.org/1999/xlink" width="500" zoomAndPan="magnify" viewBox="0 0 375 374.999991" height="500" preserveAspectRatio="xMidYMid meet" version="1.0"><defs><clipPath id="d0cfc69c9e"><path d="M 0 347.007812 L 24.980469 347.007812 L 24.980469 375 L 0 375 Z M 0 347.007812 " clip-rule="nonzero"/></clipPath><clipPath id="3765921b96"><path d="M 189 15.234375 L 373 15.234375 L 373 359.484375 L 189 359.484375 Z M 189 15.234375 " clip-rule="nonzero"/></clipPath><clipPath id="8d6e462e42"><path d="M 2 15.234375 L 186 15.234375 L 186 359.484375 L 2 359.484375 Z M 2 15.234375 " clip-rule="nonzero"/></clipPath></defs><g clip-path="url(#d0cfc69c9e)"><path fill="#000000" d="M -22.941406 473.195312 C -23.179688 476.359375 -18.316406 482.542969 -16.257812 485.230469 C -15.222656 486.578125 -16.757812 487.257812 -17.523438 486.222656 C -21.777344 480.429688 -24.214844 475.710938 -34.160156 468.925781 C -47.308594 459.960938 -59.359375 453.566406 -87.867188 452.414062 C -98.292969 451.996094 -96.5 455.117188 -102.351562 459.492188 C -103.222656 460.136719 -104.320312 459.253906 -103.195312 458.144531 C -97.941406 452.980469 -96.582031 452.050781 -96.457031 449.859375 C -95.949219 440.527344 -106.222656 414.007812 -114.5 412.929688 C -118.066406 412.46875 -123.171875 413.324219 -124.300781 413.183594 C -124.480469 413.167969 -124.636719 413.097656 -124.765625 412.972656 C -124.894531 412.84375 -124.96875 412.691406 -124.984375 412.511719 C -125.003906 412.332031 -124.960938 412.164062 -124.859375 412.015625 C -124.757812 411.863281 -124.621094 411.765625 -124.449219 411.714844 C -124.125 411.609375 -118.242188 411.277344 -116.617188 411.152344 C -116.007812 411.101562 -114.585938 410.515625 -113.480469 409.238281 C -113.234375 408.953125 -113.128906 408.367188 -112.617188 407.109375 C -107.132812 393.507812 -105.527344 362.582031 -109.703125 358.847656 C -117.078125 352.261719 -118.214844 351.128906 -117.335938 350.378906 C -116.308594 349.492188 -115.867188 351.542969 -112.265625 354.304688 C -106.289062 358.886719 -103.171875 359.292969 -93.179688 359.988281 C -79.449219 360.933594 -76.027344 360.875 -69.226562 360.554688 C -52.261719 359.761719 -37.132812 357.578125 -32.59375 356.667969 C -27.667969 355.679688 -27.144531 349.835938 -25.953125 347.550781 C -25.875 347.371094 -25.746094 347.242188 -25.570312 347.160156 C -25.390625 347.082031 -25.210938 347.070312 -25.023438 347.132812 C -24.839844 347.191406 -24.699219 347.308594 -24.601562 347.480469 C -24.507812 347.648438 -24.480469 347.828125 -24.523438 348.019531 C -24.585938 348.375 -26.738281 354.042969 -26.746094 354.054688 C -28.988281 359.582031 -16.929688 377.820312 6.765625 380.773438 C 9.261719 381.085938 18.792969 376.609375 19.921875 376.671875 C 20.253906 376.699219 20.46875 376.871094 20.570312 377.1875 C 20.671875 377.503906 20.59375 377.769531 20.34375 377.984375 C 18.0625 379.84375 10.945312 379.230469 7.042969 387.867188 C -0.582031 404.710938 9.742188 428.902344 18.949219 434.03125 C 23.835938 436.757812 23.976562 436.339844 24.542969 436.875 C 24.976562 437.28125 24.765625 438.203125 24.113281 438.292969 C 22.789062 438.480469 19.726562 435.226562 9.964844 433.609375 C 4.960938 432.789062 -20.554688 441.699219 -22.941406 473.195312 Z M -39.300781 438.832031 C -39.511719 439.34375 -43.324219 426.578125 -46.15625 423.503906 C -49.359375 420.015625 -61.453125 421.355469 -65.007812 424.632812 L -71.894531 431.003906 C -73.546875 432.535156 -64.578125 426.851562 -46.160156 434.488281 C -41.421875 436.453125 -39.695312 438.972656 -39.300781 438.832031 Z M -93.207031 371.019531 C -93.207031 371.003906 -81.789062 381.300781 -80.742188 381.769531 C -79.410156 382.371094 -78.148438 382.96875 -76.933594 382.941406 C -75.722656 382.914062 -66.253906 383.296875 -57.519531 380.941406 C -44.058594 377.300781 -33.757812 368.347656 -33.570312 366.105469 C -44.898438 369.6875 -57.921875 372.042969 -69.269531 372.992188 C -83.644531 374.195312 -87.902344 372.34375 -93.21875 371.019531 Z M -93.507812 451.0625 C -92.714844 451.027344 -89.464844 450.507812 -79.246094 451.5625 C -60.15625 453.535156 -51.851562 456.832031 -42.8125 461.722656 C -30.195312 468.554688 -25.449219 473.8125 -26.15625 472.019531 C -30.617188 460.726562 -30.414062 460.761719 -31.859375 459.238281 C -31.875 459.21875 -40.753906 452.597656 -47.09375 448.871094 C -66.777344 437.292969 -84.085938 442.3125 -86.265625 444.3125 C -86.371094 444.40625 -93.015625 450.511719 -93.519531 451.0625 Z M -106.320312 361.710938 C -106.074219 364.449219 -105.75 374.851562 -106.140625 381.871094 C -106.527344 389.152344 -109.769531 403.949219 -111.113281 407.21875 C -111.292969 407.644531 -112.339844 410.488281 -112.320312 410.828125 C -111.40625 410.871094 -104.59375 410.617188 -104.613281 410.621094 C -102.824219 410.566406 -100.113281 408.996094 -98.308594 407.292969 C -97.226562 406.265625 -95.023438 401.394531 -94.433594 399.964844 C -89.695312 388.464844 -91.421875 382.65625 -92.523438 377.625 C -92.78125 376.457031 -93.765625 372.558594 -94.675781 371.78125 C -97.875 369.027344 -105.691406 362.183594 -106.320312 361.710938 Z M -106.300781 359.652344 C -106.410156 359.847656 -106.367188 359.714844 -106.203125 359.859375 C -96.382812 368.378906 -92.933594 375.265625 -57.402344 370.082031 C -52.296875 369.335938 -38.597656 366.605469 -33.867188 364.613281 C -31.71875 363.707031 -31.382812 361.851562 -29.714844 357.730469 C -29.6875 357.640625 -29.664062 357.546875 -29.648438 357.449219 C -50.582031 362.136719 -90.5 364.21875 -106.300781 359.652344 Z M 6.679688 383.722656 C 6.011719 384 -6.859375 389.894531 -6.835938 389.882812 C -7.523438 390.195312 -16.910156 404.898438 -9.851562 418.097656 C -8.238281 421.117188 -5.773438 423.738281 -5.324219 424.269531 C -4.289062 425.492188 -4.171875 425.304688 11.554688 430.957031 C 12.933594 431.453125 10.742188 430.488281 8.386719 425.136719 C 6.105469 419.941406 3.445312 415.289062 2.863281 403.730469 C 2.316406 392.761719 6.605469 384.148438 6.679688 383.722656 Z M -24.929688 471.15625 C -24.699219 470.503906 -24.875 470.335938 -24.148438 468.210938 C -23.261719 465.621094 -23.261719 464.648438 -22.414062 461.410156 C -19.472656 450.058594 -9.265625 437.597656 4.496094 432.941406 C 7.550781 431.90625 9.492188 432.277344 9.851562 431.898438 C 9.605469 431.804688 -3.199219 427.160156 -3.914062 426.925781 C -4.902344 426.59375 -4.492188 426.6875 -8.265625 427.59375 C -22.722656 431.050781 -33.109375 450.589844 -28.9375 461.089844 C -24.523438 472.203125 -25.269531 470.398438 -24.929688 471.15625 Z M -32.113281 457.257812 C -32.042969 457.179688 -32.015625 457.257812 -32.207031 456.761719 C -37.707031 442.878906 -37.367188 443.339844 -38.5625 441.816406 C -44.105469 434.75 -61.585938 429.125 -74.121094 433.402344 C -74.796875 433.632812 -74.449219 433.351562 -82.78125 441.078125 C -82.976562 441.253906 -83.199219 441.488281 -82.941406 441.433594 C -58.273438 435.3125 -40.484375 451.738281 -32.113281 457.257812 Z M -7.222656 425.828125 C -7.195312 425.628906 -6.042969 426.214844 -22.492188 420.203125 C -23.949219 419.671875 -26.449219 420.988281 -27.671875 421.917969 C -34.113281 426.800781 -37.367188 436.703125 -37.007812 438.800781 C -36.617188 441.109375 -36.398438 442.222656 -35.5 444.503906 C -31.070312 455.78125 -31.441406 454.8125 -31.3125 454.875 C -30.113281 441.171875 -20.300781 429.746094 -10.113281 426.589844 C -9.46875 426.394531 -8.746094 426.214844 -7.222656 425.832031 Z M -28.25 358.050781 C -28.714844 359.050781 -29.457031 361.035156 -30.378906 363.1875 C -30.867188 364.324219 -31.15625 366.265625 -30.78125 367.199219 C -30.011719 369.136719 -28.300781 374.65625 -24.191406 379.804688 C -19.863281 385.230469 -12.554688 390.929688 -6.25 388.035156 C 7.160156 381.875 5.320312 382.773438 5.929688 382.429688 C 4.105469 381.042969 -19.347656 379.753906 -28.25 358.050781 Z M -100.316406 428.730469 C -94.371094 443.773438 -95.128906 449.664062 -94.980469 450.355469 C -86.613281 443.183594 -86.613281 442.480469 -86.75 441.390625 C -86.910156 440.097656 -87.324219 431.023438 -91.164062 423.703125 C -94.390625 417.554688 -99.878906 411.871094 -102.027344 412 C -119.179688 413.054688 -108.234375 408.679688 -100.316406 428.730469 Z M -98.527344 410.382812 C -97.839844 410.425781 -95.941406 410.300781 -92.875 410.234375 C -92.023438 410.214844 -90.582031 410.011719 -89.847656 409.539062 C -83.722656 405.585938 -79.363281 398.296875 -78.71875 392.152344 C -77.929688 384.652344 -77.476562 386.730469 -91.515625 374.535156 C -93.390625 372.902344 -88 380.585938 -90.519531 392.011719 C -93.140625 403.894531 -98.371094 410.101562 -98.527344 410.382812 Z M -9.496094 391.207031 C -9.578125 391.105469 -8.855469 390.792969 -15.976562 394.058594 C -18.625 395.273438 -21.089844 396.289062 -23.414062 398.777344 C -27.8125 403.503906 -27.550781 412.0625 -24.8125 417.398438 C -24.4375 418.121094 -24.078125 418.082031 -20.410156 419.40625 C -6.203125 424.539062 -7.394531 424.214844 -7.75 423.738281 C -14.628906 414.53125 -16.75 406.351562 -9.496094 391.214844 Z M -11.464844 390.402344 C -11.789062 389.988281 -14.703125 390.109375 -19.597656 386.363281 C -28.640625 379.441406 -31.175781 369.796875 -32.1875 367.699219 C -32.394531 368.066406 -36.265625 377.664062 -37.578125 380.839844 C -38.285156 382.535156 -33.941406 395.273438 -24.773438 395.417969 C -21.847656 395.457031 -23.5 395.984375 -11.464844 390.402344 Z M -77.601562 384.382812 C -77.769531 384.632812 -72.382812 389.300781 -68.582031 390.390625 C -64.214844 391.644531 -59.582031 392.140625 -55.222656 391.019531 C -50.574219 389.824219 -44.78125 387.394531 -41.316406 383.71875 C -39.066406 381.332031 -35.210938 371.390625 -34.890625 370.328125 C -48.542969 381.546875 -59.125 384.382812 -77.601562 384.382812 Z M -98.703125 411.921875 C -82.984375 426.054688 -86.480469 442.53125 -84.9375 441.101562 C -77.863281 434.566406 -76.085938 433.867188 -76.523438 428.296875 C -77.234375 419.386719 -85.9375 412.164062 -90.382812 411.800781 C -93.207031 411.570312 -98.703125 411.921875 -98.714844 411.921875 Z M -76.960938 387.191406 C -77.21875 389.230469 -76.636719 392.585938 -78.792969 398.082031 C -81.03125 403.792969 -83.933594 406.597656 -87.957031 410.03125 C -87.941406 410.03125 -76.550781 409.980469 -75.5 409.285156 C -70.535156 406.003906 -67.582031 395.304688 -71.820312 391.628906 C -73.417969 390.257812 -76.796875 387.335938 -76.972656 387.191406 Z M -38.4375 437.035156 C -38.234375 437.003906 -36.011719 424.285156 -25.585938 419.105469 C -26.585938 418.710938 -35.21875 415.617188 -37.089844 414.925781 C -37.828125 414.652344 -44.597656 418.050781 -43.53125 424.050781 C -43.449219 424.523438 -38.714844 436.441406 -38.4375 437.035156 Z M -69.1875 392.007812 C -58.832031 401.003906 -59.382812 400.742188 -58.371094 400.886719 C -51.917969 401.847656 -45.808594 397.15625 -45.378906 396.105469 C -40.71875 384.632812 -41.363281 386.324219 -41.144531 385.628906 C -41.78125 386.089844 -42.5625 387.050781 -45.382812 388.636719 C -61.21875 397.597656 -71.730469 389.800781 -69.1875 392.007812 Z M -86.644531 411.570312 C -73.90625 419.703125 -75.324219 428.070312 -75.035156 430.835938 C -65.785156 423.585938 -68.421875 410.984375 -75.960938 411.164062 C -75.984375 411.164062 -86.867188 411.433594 -86.644531 411.570312 Z M -38.902344 384.125 C -39.375 385.1875 -43.742188 395.972656 -44.578125 397.972656 C -44.703125 398.222656 -44.714844 398.472656 -44.609375 398.730469 C -44.488281 399.046875 -44.347656 399.355469 -44.1875 399.652344 C -43.234375 401.25 -41.414062 402.453125 -40.417969 402.796875 C -38.960938 403.300781 -39.089844 403.035156 -32.128906 399.851562 C -26.15625 397.125 -26.59375 397.355469 -26.492188 397.191406 C -33.710938 395.257812 -36.453125 390.464844 -38.902344 384.125 Z M -25.292969 398.429688 C -25.40625 398.328125 -38.988281 404.433594 -39.101562 404.824219 C -40.230469 408.730469 -37.914062 413.089844 -36.085938 413.746094 C -25.636719 417.507812 -27.136719 417 -26.570312 417.144531 C -28.5 411.949219 -28.605469 407.394531 -27.6875 403.847656 C -26.921875 400.875 -26.140625 399.832031 -25.292969 398.429688 Z M -68.488281 394.558594 C -68.769531 395.066406 -67.320312 398.511719 -70.246094 405.089844 C -71.640625 408.226562 -73.042969 409.085938 -73.300781 409.515625 C -73.148438 409.609375 -73.582031 409.566406 -65.558594 409.324219 C -63.078125 409.246094 -59.160156 402.625 -60.332031 401.613281 C -62.917969 399.382812 -68.332031 394.683594 -68.488281 394.558594 Z M -60.996094 421 C -57.941406 420.273438 -55.269531 419.75 -51.917969 420.054688 C -48.195312 420.394531 -47.046875 421.160156 -46.277344 421.332031 C -46.445312 420.714844 -50.144531 411.417969 -50.355469 411.101562 C -51.144531 411.707031 -60.667969 420.554688 -60.996094 421 Z M -69.738281 426.914062 C -69.636719 427.054688 -65.105469 422.828125 -64.644531 421.941406 C -62.382812 417.550781 -62.175781 410.496094 -67.074219 410.828125 C -74.121094 411.308594 -70.515625 409.984375 -68.820312 414.234375 C -66.984375 418.828125 -67.445312 422.738281 -69.738281 426.914062 Z M -62.164062 420.003906 C -61.484375 419.40625 -52.210938 410.808594 -52.191406 410.789062 C -51.648438 410.28125 -51.785156 410.332031 -52.28125 410.347656 C -63.792969 410.714844 -62.539062 410.691406 -62.902344 410.757812 C -61.707031 413.757812 -61.15625 415.351562 -62.164062 420.003906 Z M -39.390625 414.183594 C -39.480469 414.070312 -48.699219 410.695312 -48.796875 410.785156 C -48.71875 411.183594 -45.132812 420.234375 -44.910156 420.582031 C -43.867188 417.746094 -41.941406 415.691406 -39.390625 414.183594 Z M -57.046875 402.484375 C -56.628906 402.953125 -50.757812 408.03125 -50.453125 408.210938 C -50.144531 408.132812 -46.730469 399.382812 -46.703125 399.265625 C -49.941406 401.328125 -53.167969 402.617188 -57.046875 402.484375 Z M -62.367188 409.210938 C -51.066406 408.835938 -52.640625 408.902344 -52.101562 408.839844 C -52.277344 408.582031 -51.390625 409.382812 -58.726562 403.011719 C -59.453125 405.507812 -60.632812 407.300781 -62.375 409.210938 Z M -48.789062 409.140625 C -48.296875 409.347656 -49.597656 408.875 -39.8125 412.402344 C -39.15625 412.636719 -39.457031 412.527344 -39.988281 411.140625 C -41.261719 407.835938 -40.738281 406.113281 -40.785156 405.457031 C -41.308594 405.613281 -48.492188 408.917969 -48.796875 409.140625 Z M -41.273438 404.035156 C -45.300781 402.035156 -45.316406 399.816406 -45.617188 400.554688 C -48.585938 407.816406 -48.234375 406.886719 -48.253906 407.230469 C -45.933594 406.164062 -43.65625 405.132812 -41.277344 404.035156 Z M -41.273438 404.035156 " fill-opacity="1" fill-rule="nonzero"/></g><g clip-path="url(#3765921b96)"><path fill="#ffffff" d="M 273.191406 156.894531 C 282.617188 156.769531 294.273438 153.199219 308.09375 146.257812 C 311.535156 144.535156 317.328125 141.480469 325.417969 137.085938 C 332.488281 133.136719 337.90625 130.269531 341.660156 128.550781 C 342.425781 106.765625 333.765625 80.015625 315.738281 48.292969 C 330.640625 56.507812 343.191406 69.058594 353.382812 86 C 368.605469 111.226562 374.910156 129.316406 372.425781 140.269531 C 370.199219 149.886719 358.097656 158.488281 336.058594 166.195312 C 332.296875 167.597656 323.316406 170.523438 308.988281 174.984375 C 298.792969 178.105469 291.597656 180.71875 287.328125 182.820312 C 303.636719 185.175781 330.386719 186.765625 367.585938 187.53125 C 368.605469 214.730469 363.320312 240.019531 351.726562 263.265625 C 340.644531 285.558594 325.484375 302.757812 306.183594 314.921875 C 318.539062 295.6875 326.375 281.867188 329.6875 273.523438 C 336.949219 256.515625 340.132812 238.042969 339.433594 218.296875 C 334.082031 214.792969 325.292969 212.5 313.128906 211.417969 C 297.519531 210.015625 288.984375 209.125 287.328125 208.742188 C 291.980469 212.246094 299.878906 216.894531 311.023438 222.753906 C 321.980469 228.488281 329.816406 233.265625 334.527344 237.152344 C 321.023438 299.191406 279.304688 340.085938 209.554688 359.765625 C 256.183594 331.101562 286.117188 296.515625 299.304688 256.003906 C 290.578125 243.203125 273.253906 231.355469 247.203125 220.527344 C 247.203125 222.117188 247.203125 229.1875 247.203125 241.609375 C 247.203125 252.058594 246.945312 260.972656 246.308594 268.300781 C 244.398438 291.292969 239.238281 309.253906 230.832031 322.058594 C 226.308594 328.746094 219.558594 335.433594 210.449219 341.992188 C 202.214844 348.171875 195.160156 351.722656 189.324219 352.613281 L 189.324219 112.1875 C 192.386719 112.175781 194.203125 109.980469 194.78125 105.554688 C 195.546875 99.761719 196.5625 96.382812 197.773438 95.492188 C 204.71875 98.359375 209.304688 102.6875 211.402344 108.546875 C 213.761719 114.792969 212.359375 120.652344 207.136719 126.128906 C 209.496094 127.976562 212.234375 128.550781 215.289062 127.785156 C 218.792969 127.148438 221.597656 127.402344 223.699219 128.550781 C 225.800781 136.894531 226.5625 143.136719 225.925781 147.40625 C 229.558594 145.492188 236.246094 142.371094 245.929688 138.042969 C 255.226562 133.964844 262.234375 130.585938 266.820312 127.976562 C 282.488281 119.121094 290.960938 109.121094 292.234375 97.914062 C 293.445312 85.492188 285.480469 70.269531 268.347656 52.179688 C 260.449219 44.089844 246.375 31.796875 225.925781 15.234375 C 253.1875 23.199219 272.105469 31.03125 282.679688 38.738281 C 293.253906 46.511719 303.316406 56.828125 312.9375 69.761719 C 323.382812 83.898438 328.222656 94.855469 327.457031 102.5625 C 326.695312 110.523438 318.988281 120.460938 304.335938 132.246094 C 302.234375 134.027344 296.375 138.488281 286.757812 145.683594 C 280.195312 150.652344 275.675781 154.410156 273.191406 156.894531 Z M 273.191406 156.894531 " fill-opacity="1" fill-rule="nonzero"/></g><g clip-path="url(#8d6e462e42)"><path fill="#cb6ce6" d="M 101.808594 156.894531 C 92.382812 156.769531 80.726562 153.199219 66.902344 146.257812 C 63.464844 144.535156 57.667969 141.480469 49.578125 137.085938 C 42.507812 133.136719 37.09375 130.269531 33.335938 128.550781 C 32.574219 106.765625 41.234375 80.015625 59.261719 48.292969 C 44.359375 56.507812 31.808594 69.058594 21.617188 86 C 6.394531 111.226562 0.0898438 129.316406 2.570312 140.269531 C 4.800781 149.886719 16.902344 158.488281 38.941406 166.195312 C 42.699219 167.597656 51.683594 170.523438 66.011719 174.984375 C 76.203125 178.105469 83.402344 180.71875 87.671875 182.820312 C 71.363281 185.175781 44.613281 186.765625 7.414062 187.53125 C 6.394531 214.730469 11.679688 240.019531 23.273438 263.265625 C 34.355469 285.558594 49.515625 302.757812 68.816406 314.921875 C 56.457031 295.6875 48.625 281.867188 45.3125 273.523438 C 38.050781 256.515625 34.863281 238.042969 35.566406 218.296875 C 40.917969 214.792969 49.707031 212.5 61.871094 211.417969 C 77.476562 210.015625 86.011719 209.125 87.671875 208.742188 C 83.019531 212.246094 75.121094 216.894531 63.972656 222.753906 C 53.019531 228.488281 45.183594 233.265625 40.472656 237.152344 C 53.972656 299.191406 95.695312 340.085938 165.441406 359.765625 C 118.816406 331.101562 88.882812 296.515625 75.695312 256.003906 C 84.421875 243.203125 101.746094 231.355469 127.796875 220.527344 C 127.796875 222.117188 127.796875 229.1875 127.796875 241.609375 C 127.796875 252.058594 128.054688 260.972656 128.691406 268.300781 C 130.601562 291.292969 135.757812 309.253906 144.167969 322.058594 C 148.691406 328.746094 155.441406 335.433594 164.550781 341.992188 C 172.785156 348.171875 179.839844 351.722656 185.675781 352.613281 L 185.675781 112.1875 C 182.613281 112.175781 180.792969 109.980469 180.21875 105.554688 C 179.453125 99.761719 178.4375 96.382812 177.226562 95.492188 C 170.28125 98.359375 165.695312 102.6875 163.597656 108.546875 C 161.238281 114.792969 162.640625 120.652344 167.863281 126.128906 C 165.503906 127.976562 162.765625 128.550781 159.710938 127.785156 C 156.207031 127.148438 153.402344 127.402344 151.300781 128.550781 C 149.199219 136.894531 148.4375 143.136719 149.074219 147.40625 C 145.441406 145.492188 138.753906 142.371094 129.070312 138.042969 C 119.773438 133.964844 112.765625 130.585938 108.179688 127.976562 C 92.511719 119.121094 84.039062 109.121094 82.765625 97.914062 C 81.554688 85.492188 89.515625 70.269531 106.652344 52.179688 C 114.550781 44.089844 128.625 31.796875 149.074219 15.234375 C 121.808594 23.199219 102.890625 31.03125 92.320312 38.738281 C 81.746094 46.511719 71.683594 56.828125 62.0625 69.761719 C 51.617188 83.898438 46.777344 94.855469 47.542969 102.5625 C 48.304688 110.523438 56.011719 120.460938 70.664062 132.246094 C 72.765625 134.027344 78.625 138.488281 88.242188 145.683594 C 94.804688 150.652344 99.324219 154.410156 101.808594 156.894531 Z M 101.808594 156.894531 " fill-opacity="1" fill-rule="nonzero"/></g></svg>