<svg xmlns="http://www.w3.org/2000/svg" xmlns:xlink="http://www.w3.org/1999/xlink" width="500" zoomAndPan="magnify" viewBox="0 0 375 374.999991" height="500" preserveAspectRatio="xMidYMid meet" version="1.0"><defs><clipPath id="46a6d4084a"><path d="M 16.714844 0 L 353.464844 0 L 353.464844 371 L 16.714844 371 Z M 16.714844 0 " clip-rule="nonzero"/></clipPath></defs><rect x="-37.5" width="450" fill="#ffffff" y="-37.499999" height="449.999989" fill-opacity="1"/><rect x="-37.5" width="450" fill="#ffde59" y="-37.499999" height="449.999989" fill-opacity="1"/><g clip-path="url(#46a6d4084a)"><path fill="#010101" d="M 353.378906 1.683594 C 353.378906 1.683594 136.179688 3.226562 209.453125 177.542969 C 209.453125 177.542969 246.71875 259.863281 217.027344 296.980469 C 217.027344 296.980469 214.457031 299.457031 210.621094 299.175781 C 210.667969 295.390625 210.621094 291.652344 210.621094 287.957031 C 210.574219 265.378906 198.699219 261.125 198.699219 261.125 L 198.746094 282.628906 C 192.246094 270.847656 177.234375 277.300781 177.234375 277.300781 C 175.085938 274.074219 168.585938 260.144531 168.585938 260.144531 C 166.433594 266.59375 166.527344 283.796875 166.527344 283.796875 C 163.300781 288.097656 166.574219 293.472656 160.121094 297.773438 C 153.667969 302.074219 148.851562 297.261719 148.851562 297.261719 C 119.722656 259.722656 158.15625 177.964844 158.15625 177.964844 C 233.953125 4.722656 16.804688 0 16.804688 0 C 79.835938 41.183594 49.863281 89.613281 49.863281 89.613281 C 111.257812 122.757812 76.984375 173.335938 76.984375 173.335938 C 111.445312 194.746094 91.152344 242.054688 91.152344 242.054688 C 99.753906 250.609375 113.828125 270.988281 113.828125 270.988281 C 119.347656 323.625 160.214844 325.636719 160.214844 325.636719 C 154.976562 364.34375 187.242188 375 185.089844 368.550781 C 182.941406 362.097656 187.195312 358.871094 187.195312 358.871094 C 198.699219 347.324219 204.542969 336.011719 207.582031 324.980469 C 216.324219 323.71875 247.046875 316.191406 252.425781 271.222656 C 252.425781 271.222656 266.78125 251.074219 275.523438 242.613281 C 275.523438 242.613281 255.929688 194.980469 290.71875 174.082031 C 290.71875 174.082031 257.242188 122.988281 319.058594 90.734375 C 319.011719 90.828125 289.785156 41.929688 353.378906 1.683594 Z M 353.378906 1.683594 " fill-opacity="1" fill-rule="nonzero"/></g></svg>